RecursiveMonoVar-StrictRegular.ufo
<glyph name="exclam" format="1">
  <advance width="600"/>
  <unicode hex="0021"/>
  <outline>
    <contour>
      <point x="333" y="256" type="line"/>
      <point x="339" y="338"/>
      <point x="346" y="420"/>
      <point x="352" y="502" type="curve"/>
      <point x="352" y="689" type="line" smooth="yes"/>
      <point x="352" y="696"/>
      <point x="347" y="700"/>
      <point x="341" y="700" type="curve" smooth="yes"/>
      <point x="305" y="700"/>
      <point x="274" y="700"/>
      <point x="248" y="700" type="curve"/>
      <point x="248" y="662"/>
      <point x="248" y="627"/>
      <point x="248" y="590" type="curve" smooth="yes"/>
      <point x="248" y="502" type="line"/>
      <point x="265" y="268"/>
      <point x="266" y="263"/>
      <point x="270" y="259" type="curve" smooth="yes"/>
      <point x="272" y="257"/>
      <point x="274" y="256"/>
      <point x="278" y="256" type="curve"/>
    </contour>
    <contour>
      <point x="374" y="-7" type="curve"/>
      <point x="374" y="127" type="line" smooth="yes"/>
      <point x="374" y="133"/>
      <point x="369" y="138"/>
      <point x="363" y="138" type="curve" smooth="yes"/>
      <point x="323" y="138"/>
      <point x="266" y="138"/>
      <point x="226" y="138" type="curve"/>
      <point x="226" y="4" type="line" smooth="yes"/>
      <point x="226" y="-2"/>
      <point x="231" y="-7"/>
      <point x="237" y="-7" type="curve" smooth="yes"/>
      <point x="277" y="-7"/>
      <point x="334" y="-7"/>
    </contour>
  </outline>
</glyph>
<glyph name="quotedbl" format="1">
  <advance width="600"/>
  <unicode hex="0022"/>
  <outline>
    <contour>
      <point x="225" y="450" type="curve"/>
      <point x="248" y="737" type="line" smooth="yes"/>
      <point x="249" y="746"/>
      <point x="244" y="750"/>
      <point x="238" y="750" type="curve" smooth="yes"/>
      <point x="203" y="750"/>
      <point x="164" y="750"/>
      <point x="121" y="750" type="curve"/>
      <point x="124" y="714"/>
      <point x="126" y="683"/>
      <point x="129" y="648" type="curve" smooth="yes"/>
      <point x="144" y="461" type="line" smooth="yes"/>
      <point x="145" y="454"/>
      <point x="150" y="450"/>
      <point x="156" y="450" type="curve" smooth="yes"/>
      <point x="179" y="450"/>
      <point x="202" y="450"/>
    </contour>
    <contour>
      <point x="455" y="450" type="curve"/>
      <point x="478" y="737" type="line" smooth="yes"/>
      <point x="479" y="746"/>
      <point x="474" y="750"/>
      <point x="468" y="750" type="curve" smooth="yes"/>
      <point x="433" y="750"/>
      <point x="394" y="750"/>
      <point x="351" y="750" type="curve"/>
      <point x="374" y="461" type="line"/>
      <point x="375" y="454"/>
      <point x="380" y="450"/>
      <point x="386" y="450" type="curve" smooth="yes"/>
      <point x="409" y="450"/>
      <point x="432" y="450"/>
    </contour>
  </outline>
</glyph>
<glyph name="numbersign" format="1">
  <advance width="600"/>
  <unicode hex="0023"/>
  <outline>
    <contour>
      <point x="225" y="720" type="curve"/>
      <point x="176" y="474"/>
      <point x="126" y="226"/>
      <point x="77" y="-20" type="curve"/>
      <point x="97" y="-20"/>
      <point x="117" y="-20"/>
      <point x="137" y="-20" type="curve"/>
      <point x="144" y="-20"/>
      <point x="149" y="-19"/>
      <point x="151" y="-9" type="curve" smooth="yes"/>
      <point x="199" y="230"/>
      <point x="248" y="470"/>
      <point x="295" y="709" type="curve" smooth="yes"/>
      <point x="297" y="718"/>
      <point x="293" y="720"/>
      <point x="286" y="720" type="curve" smooth="yes"/>
      <point x="266" y="720"/>
      <point x="244" y="720"/>
    </contour>
    <contour>
      <point x="447" y="720" type="curve"/>
      <point x="398" y="474"/>
      <point x="348" y="226"/>
      <point x="299" y="-20" type="curve"/>
      <point x="318" y="-20"/>
      <point x="339" y="-20"/>
      <point x="358" y="-20" type="curve"/>
      <point x="365" y="-20"/>
      <point x="370" y="-19"/>
      <point x="372" y="-9" type="curve" smooth="yes"/>
      <point x="420" y="230"/>
      <point x="469" y="470"/>
      <point x="516" y="709" type="curve" smooth="yes"/>
      <point x="518" y="718"/>
      <point x="514" y="720"/>
      <point x="507" y="720" type="curve" smooth="yes"/>
      <point x="488" y="720"/>
      <point x="466" y="720"/>
    </contour>
    <contour>
      <point x="581" y="445" type="line"/>
      <point x="581" y="458"/>
      <point x="581" y="492"/>
      <point x="581" y="505" type="curve" smooth="yes"/>
      <point x="581" y="508"/>
      <point x="580" y="511"/>
      <point x="578" y="513" type="curve" smooth="yes"/>
      <point x="576" y="515"/>
      <point x="573" y="516"/>
      <point x="570" y="516" type="curve"/>
      <point x="61" y="516" type="line"/>
      <point x="61" y="503"/>
      <point x="61" y="469"/>
      <point x="61" y="456" type="curve" smooth="yes"/>
      <point x="61" y="450"/>
      <point x="66" y="445"/>
      <point x="72" y="445" type="curve"/>
    </contour>
    <contour>
      <point x="21" y="252" type="line"/>
      <point x="21" y="239"/>
      <point x="21" y="208"/>
      <point x="21" y="195" type="curve" smooth="yes"/>
      <point x="21" y="192"/>
      <point x="22" y="189"/>
      <point x="24" y="187" type="curve" smooth="yes"/>
      <point x="26" y="185"/>
      <point x="29" y="184"/>
      <point x="32" y="184" type="curve"/>
      <point x="541" y="184" type="line"/>
      <point x="541" y="197"/>
      <point x="541" y="228"/>
      <point x="541" y="241" type="curve" smooth="yes"/>
      <point x="541" y="247"/>
      <point x="536" y="252"/>
      <point x="530" y="252" type="curve"/>
    </contour>
  </outline>
</glyph>
<glyph name="dollar" format="1">
  <advance width="600"/>
  <unicode hex="0024"/>
  <outline>
    <contour>
      <point x="319" y="718" type="curve" smooth="yes"/>
      <point x="177" y="718"/>
      <point x="81" y="645"/>
      <point x="81" y="542" type="curve" smooth="yes"/>
      <point x="81" y="496" type="line" smooth="yes"/>
      <point x="81" y="479"/>
      <point x="115" y="464"/>
      <point x="159" y="464" type="curve"/>
      <point x="159" y="488"/>
      <point x="159" y="514"/>
      <point x="159" y="537" type="curve" smooth="yes"/>
      <point x="159" y="598"/>
      <point x="216" y="638"/>
      <point x="316" y="638" type="curve" smooth="yes"/>
      <point x="394" y="638"/>
      <point x="446" y="621"/>
      <point x="499" y="575" type="curve"/>
      <point x="514" y="575" type="line"/>
      <point x="514" y="591"/>
      <point x="514" y="619"/>
      <point x="514" y="653" type="curve" smooth="yes"/>
      <point x="514" y="657"/>
      <point x="513" y="659"/>
      <point x="511" y="661" type="curve" smooth="yes"/>
      <point x="474" y="697"/>
      <point x="401" y="718"/>
    </contour>
    <contour>
      <point x="374" y="378" type="curve" smooth="yes"/>
      <point x="277" y="406" type="line" smooth="yes"/>
      <point x="185" y="433"/>
      <point x="159" y="455"/>
      <point x="159" y="509" type="curve" smooth="yes"/>
      <point x="159" y="534"/>
      <point x="159" y="550"/>
      <point x="159" y="589" type="curve"/>
      <point x="114" y="581"/>
      <point x="81" y="558"/>
      <point x="81" y="496" type="curve" smooth="yes"/>
      <point x="81" y="429"/>
      <point x="125" y="370"/>
      <point x="252" y="332" type="curve" smooth="yes"/>
      <point x="349" y="303" type="line" smooth="yes"/>
      <point x="435" y="277"/>
      <point x="455" y="253"/>
      <point x="455" y="196" type="curve" smooth="yes"/>
      <point x="455" y="175"/>
      <point x="455" y="140"/>
      <point x="455" y="115" type="curve"/>
      <point x="487" y="115"/>
      <point x="532" y="170"/>
      <point x="532" y="210" type="curve"/>
      <point x="532" y="290"/>
      <point x="491" y="343"/>
    </contour>
    <contour>
      <point x="293" y="-17" type="curve" smooth="yes"/>
      <point x="437" y="-17"/>
      <point x="532" y="56"/>
      <point x="532" y="158" type="curve" smooth="yes"/>
      <point x="532" y="210" type="line" smooth="yes"/>
      <point x="532" y="226"/>
      <point x="499" y="241"/>
      <point x="455" y="241" type="curve"/>
      <point x="455" y="216"/>
      <point x="455" y="189"/>
      <point x="455" y="164" type="curve" smooth="yes"/>
      <point x="455" y="103"/>
      <point x="399" y="62"/>
      <point x="296" y="62" type="curve" smooth="yes"/>
      <point x="207" y="62"/>
      <point x="148" y="82"/>
      <point x="88" y="135" type="curve"/>
      <point x="73" y="135" type="line"/>
      <point x="73" y="119"/>
      <point x="73" y="91"/>
      <point x="73" y="56" type="curve" smooth="yes"/>
      <point x="73" y="53"/>
      <point x="74" y="50"/>
      <point x="76" y="48" type="curve" smooth="yes"/>
      <point x="118" y="7"/>
      <point x="200" y="-17"/>
    </contour>
    <contour>
      <point x="341" y="460" type="line"/>
      <point x="368" y="774" type="line" smooth="yes"/>
      <point x="369" y="783"/>
      <point x="364" y="787"/>
      <point x="358" y="787" type="curve" smooth="yes"/>
      <point x="330" y="787"/>
      <point x="318" y="787"/>
      <point x="290" y="787" type="curve"/>
      <point x="290" y="757"/>
      <point x="290" y="728"/>
      <point x="290" y="698" type="curve"/>
      <point x="290" y="483" type="line" smooth="yes"/>
      <point x="290" y="475"/>
      <point x="294" y="471"/>
      <point x="300" y="469" type="curve" smooth="yes"/>
    </contour>
    <contour>
      <point x="272" y="251" type="line"/>
      <point x="243" y="-72" type="line" smooth="yes"/>
      <point x="242" y="-82"/>
      <point x="247" y="-86"/>
      <point x="253" y="-86" type="curve" smooth="yes"/>
      <point x="281" y="-86"/>
      <point x="295" y="-86"/>
      <point x="322" y="-86" type="curve"/>
      <point x="322" y="-57"/>
      <point x="322" y="-25"/>
      <point x="322" y="4" type="curve"/>
      <point x="322" y="224" type="line" smooth="yes"/>
      <point x="322" y="233"/>
      <point x="319" y="238"/>
      <point x="311" y="240" type="curve" smooth="yes"/>
    </contour>
  </outline>
</glyph>
<glyph name="ampersand" format="1">
  <advance width="600"/>
  <unicode hex="0026"/>
  <outline>
    <contour>
      <point x="308" y="709" type="curve" smooth="yes"/>
      <point x="176" y="709"/>
      <point x="101" y="632"/>
      <point x="101" y="548" type="curve" smooth="yes"/>
      <point x="101" y="495"/>
      <point x="144" y="490"/>
      <point x="181" y="490" type="curve"/>
      <point x="181" y="508"/>
      <point x="181" y="523"/>
      <point x="181" y="544" type="curve" smooth="yes"/>
      <point x="181" y="587"/>
      <point x="228" y="629"/>
      <point x="305" y="629" type="curve" smooth="yes"/>
      <point x="367" y="629"/>
      <point x="407" y="620"/>
      <point x="446" y="604" type="curve"/>
      <point x="461" y="604" type="line"/>
      <point x="461" y="626"/>
      <point x="461" y="650"/>
      <point x="461" y="673" type="curve"/>
      <point x="461" y="676"/>
      <point x="460" y="679"/>
      <point x="458" y="681" type="curve" smooth="yes"/>
      <point x="445" y="694"/>
      <point x="389" y="709"/>
    </contour>
    <contour>
      <point x="226" y="444" type="curve" smooth="yes"/>
      <point x="186" y="501"/>
      <point x="181" y="517"/>
      <point x="181" y="544" type="curve" smooth="yes"/>
      <point x="181" y="562"/>
      <point x="182" y="592"/>
      <point x="188" y="616" type="curve"/>
      <point x="137" y="616"/>
      <point x="101" y="584"/>
      <point x="101" y="548" type="curve" smooth="yes"/>
      <point x="101" y="544" type="line" smooth="yes"/>
      <point x="101" y="491"/>
      <point x="115" y="463"/>
      <point x="177" y="376" type="curve" smooth="yes"/>
      <point x="251" y="272"/>
      <point x="374" y="99"/>
      <point x="400" y="62" type="curve" smooth="yes"/>
      <point x="434" y="13"/>
      <point x="468" y="-10"/>
      <point x="519" y="-10" type="curve" smooth="yes"/>
      <point x="565" y="-10" type="line" smooth="yes"/>
      <point x="573" y="-10"/>
      <point x="576" y="-6"/>
      <point x="576" y="1" type="curve" smooth="yes"/>
      <point x="576" y="29"/>
      <point x="576" y="40"/>
      <point x="576" y="71" type="curve"/>
      <point x="571" y="71" type="line"/>
      <point x="561" y="71"/>
      <point x="539" y="71"/>
      <point x="530" y="71" type="curve" smooth="yes"/>
      <point x="502" y="71"/>
      <point x="486" y="79"/>
      <point x="465" y="106" type="curve" smooth="yes"/>
      <point x="448" y="129"/>
      <point x="329" y="298"/>
    </contour>
    <contour>
      <point x="221" y="-9" type="curve" smooth="yes"/>
      <point x="299" y="-9"/>
      <point x="353" y="22"/>
      <point x="400" y="75" type="curve" smooth="yes"/>
      <point x="408" y="85"/>
      <point x="407" y="91"/>
      <point x="369" y="133" type="curve"/>
      <point x="322" y="83"/>
      <point x="280" y="64"/>
      <point x="230" y="64" type="curve" smooth="yes"/>
      <point x="156" y="64"/>
      <point x="122" y="103"/>
      <point x="122" y="168" type="curve" smooth="yes"/>
      <point x="122" y="230" type="line" smooth="yes"/>
      <point x="122" y="297"/>
      <point x="175" y="344"/>
      <point x="250" y="344" type="curve"/>
      <point x="237" y="379"/>
      <point x="225" y="395"/>
      <point x="197" y="393" type="curve" smooth="yes"/>
      <point x="108" y="385"/>
      <point x="41" y="321"/>
      <point x="41" y="229" type="curve" smooth="yes"/>
      <point x="41" y="160" type="line" smooth="yes"/>
      <point x="41" y="51"/>
      <point x="104" y="-9"/>
    </contour>
    <contour>
      <point x="532" y="429" type="curve" smooth="yes"/>
      <point x="512" y="429"/>
      <point x="489" y="429"/>
      <point x="464" y="429" type="curve"/>
      <point x="464" y="396"/>
      <point x="464" y="372"/>
      <point x="464" y="332" type="curve" smooth="yes"/>
      <point x="464" y="257"/>
      <point x="443" y="212"/>
      <point x="405" y="167" type="curve" smooth="yes"/>
      <point x="397" y="159"/>
      <point x="396" y="152"/>
      <point x="430" y="115" type="curve"/>
      <point x="498" y="172"/>
      <point x="543" y="241"/>
      <point x="543" y="335" type="curve" smooth="yes"/>
      <point x="543" y="418" type="line" smooth="yes"/>
      <point x="543" y="424"/>
      <point x="539" y="429"/>
    </contour>
  </outline>
</glyph>
<glyph name="quotesingle" format="1">
  <advance width="600"/>
  <unicode hex="0027"/>
  <outline>
    <contour>
      <point x="342" y="450" type="curve"/>
      <point x="365" y="737" type="line" smooth="yes"/>
      <point x="366" y="746"/>
      <point x="361" y="750"/>
      <point x="355" y="750" type="curve" smooth="yes"/>
      <point x="319" y="750"/>
      <point x="279" y="750"/>
      <point x="234" y="750" type="curve"/>
      <point x="237" y="714"/>
      <point x="239" y="683"/>
      <point x="242" y="648" type="curve" smooth="yes"/>
      <point x="257" y="461" type="line" smooth="yes"/>
      <point x="258" y="454"/>
      <point x="263" y="450"/>
      <point x="269" y="450" type="curve" smooth="yes"/>
      <point x="294" y="450"/>
      <point x="318" y="450"/>
    </contour>
  </outline>
</glyph>
<glyph name="parenleft" format="1">
  <advance width="600"/>
  <unicode hex="0028"/>
  <outline>
    <contour>
      <point x="393" y="749" type="curve" smooth="yes"/>
      <point x="273" y="630"/>
      <point x="217" y="475"/>
      <point x="217" y="308" type="curve" smooth="yes"/>
      <point x="217" y="301" type="line" smooth="yes"/>
      <point x="217" y="134"/>
      <point x="274" y="-19"/>
      <point x="393" y="-138" type="curve" smooth="yes"/>
      <point x="398" y="-144"/>
      <point x="405" y="-146"/>
      <point x="413" y="-146" type="curve" smooth="yes"/>
      <point x="441" y="-146"/>
      <point x="463" y="-146"/>
      <point x="493" y="-146" type="curve"/>
      <point x="493" y="-131" type="line"/>
      <point x="366" y="-11"/>
      <point x="301" y="135"/>
      <point x="301" y="301" type="curve" smooth="yes"/>
      <point x="301" y="308" type="line" smooth="yes"/>
      <point x="301" y="475"/>
      <point x="364" y="624"/>
      <point x="491" y="742" type="curve"/>
      <point x="491" y="757" type="line"/>
      <point x="462" y="757"/>
      <point x="440" y="757"/>
      <point x="413" y="757" type="curve" smooth="yes"/>
      <point x="405" y="757"/>
      <point x="398" y="755"/>
    </contour>
  </outline>
</glyph>
<glyph name="parenright" format="1">
  <advance width="600"/>
  <unicode hex="0029"/>
  <outline>
    <contour>
      <point x="207" y="-138" type="curve" smooth="yes"/>
      <point x="327" y="-19"/>
      <point x="383" y="136"/>
      <point x="383" y="303" type="curve" smooth="yes"/>
      <point x="383" y="310" type="line" smooth="yes"/>
      <point x="383" y="476"/>
      <point x="326" y="630"/>
      <point x="207" y="749" type="curve" smooth="yes"/>
      <point x="202" y="755"/>
      <point x="195" y="757"/>
      <point x="187" y="757" type="curve" smooth="yes"/>
      <point x="159" y="757"/>
      <point x="137" y="757"/>
      <point x="107" y="757" type="curve"/>
      <point x="107" y="742" type="line"/>
      <point x="234" y="622"/>
      <point x="299" y="476"/>
      <point x="299" y="310" type="curve" smooth="yes"/>
      <point x="299" y="303" type="line" smooth="yes"/>
      <point x="299" y="136"/>
      <point x="236" y="-13"/>
      <point x="109" y="-131" type="curve"/>
      <point x="109" y="-146" type="line"/>
      <point x="138" y="-146"/>
      <point x="160" y="-146"/>
      <point x="187" y="-146" type="curve" smooth="yes"/>
      <point x="195" y="-146"/>
      <point x="202" y="-144"/>
    </contour>
  </outline>
</glyph>
<glyph name="asterisk" format="1">
  <advance width="600"/>
  <unicode hex="002A"/>
  <outline>
    <contour>
      <point x="253" y="568" type="curve"/>
      <point x="257" y="538"/>
      <point x="260" y="509"/>
      <point x="264" y="478" type="curve" smooth="yes"/>
      <point x="283" y="309" type="line"/>
      <point x="254" y="60" type="line" smooth="yes"/>
      <point x="253" y="54"/>
      <point x="256" y="50"/>
      <point x="263" y="50" type="curve"/>
      <point x="291" y="50"/>
      <point x="318" y="50"/>
      <point x="346" y="50" type="curve"/>
      <point x="342" y="80"/>
      <point x="339" y="109"/>
      <point x="335" y="140" type="curve" smooth="yes"/>
      <point x="316" y="309" type="line"/>
      <point x="345" y="558" type="line" smooth="yes"/>
      <point x="346" y="564"/>
      <point x="343" y="568"/>
      <point x="336" y="568" type="curve" smooth="yes"/>
      <point x="308" y="568"/>
      <point x="281" y="568"/>
    </contour>
    <contour>
      <point x="500" y="478" type="curve"/>
      <point x="291" y="323" type="line"/>
      <point x="61" y="224" type="line" smooth="yes"/>
      <point x="56" y="222"/>
      <point x="53" y="217"/>
      <point x="57" y="209" type="curve"/>
      <point x="71" y="185"/>
      <point x="85" y="162"/>
      <point x="99" y="139" type="curve"/>
      <point x="308" y="294" type="line"/>
      <point x="538" y="393" type="line" smooth="yes"/>
      <point x="543" y="396"/>
      <point x="545" y="401"/>
      <point x="541" y="407" type="curve" smooth="yes"/>
      <point x="528" y="431"/>
      <point x="513" y="454"/>
    </contour>
    <contour>
      <point x="547" y="220" type="curve"/>
      <point x="308" y="323" type="line"/>
      <point x="107" y="473" type="line" smooth="yes"/>
      <point x="102" y="477"/>
      <point x="97" y="476"/>
      <point x="93" y="469" type="curve"/>
      <point x="80" y="445"/>
      <point x="65" y="422"/>
      <point x="52" y="398" type="curve"/>
      <point x="292" y="295" type="line"/>
      <point x="492" y="145" type="line" smooth="yes"/>
      <point x="497" y="141"/>
      <point x="503" y="142"/>
      <point x="506" y="149" type="curve"/>
      <point x="519" y="172"/>
      <point x="534" y="196"/>
    </contour>
  </outline>
</glyph>
<glyph name="plus" format="1">
  <advance width="600"/>
  <unicode hex="002B"/>
  <outline>
    <contour>
      <point x="71" y="340" type="line"/>
      <point x="71" y="317"/>
      <point x="71" y="294"/>
      <point x="71" y="271" type="curve" smooth="yes"/>
      <point x="71" y="268"/>
      <point x="72" y="265"/>
      <point x="74" y="263" type="curve" smooth="yes"/>
      <point x="76" y="261"/>
      <point x="79" y="260"/>
      <point x="82" y="260" type="curve"/>
      <point x="529" y="260" type="line"/>
      <point x="529" y="283"/>
      <point x="529" y="306"/>
      <point x="529" y="329" type="curve" smooth="yes"/>
      <point x="529" y="335"/>
      <point x="524" y="340"/>
      <point x="518" y="340" type="curve"/>
    </contour>
    <contour>
      <point x="341" y="71" type="curve"/>
      <point x="341" y="519" type="line" smooth="yes"/>
      <point x="341" y="522"/>
      <point x="340" y="525"/>
      <point x="338" y="527" type="curve" smooth="yes"/>
      <point x="336" y="529"/>
      <point x="333" y="530"/>
      <point x="330" y="530" type="curve" smooth="yes"/>
      <point x="307" y="530"/>
      <point x="285" y="530"/>
      <point x="259" y="530" type="curve"/>
      <point x="259" y="510"/>
      <point x="259" y="475"/>
      <point x="259" y="430" type="curve" smooth="yes"/>
      <point x="259" y="82" type="line" smooth="yes"/>
      <point x="259" y="76"/>
      <point x="264" y="71"/>
      <point x="270" y="71" type="curve" smooth="yes"/>
      <point x="295" y="71"/>
      <point x="316" y="71"/>
    </contour>
  </outline>
</glyph>
<glyph name="comma" format="1">
  <advance width="600"/>
  <unicode hex="002C"/>
  <outline>
    <contour>
      <point x="277" y="-190" type="curve" smooth="yes"/>
      <point x="282" y="-190"/>
      <point x="285" y="-189"/>
      <point x="287" y="-183" type="curve"/>
      <point x="328" y="-85"/>
      <point x="370" y="20"/>
      <point x="409" y="110" type="curve"/>
      <point x="412" y="118"/>
      <point x="409" y="123"/>
      <point x="401" y="123" type="curve" smooth="yes"/>
      <point x="355" y="123"/>
      <point x="328" y="123"/>
      <point x="273" y="123" type="curve"/>
      <point x="249" y="19"/>
      <point x="225" y="-86"/>
      <point x="201" y="-190" type="curve"/>
      <point x="222" y="-190"/>
      <point x="244" y="-190"/>
    </contour>
  </outline>
</glyph>
<glyph name="hyphen" format="1">
  <advance width="600"/>
  <unicode hex="002D"/>
  <outline>
    <contour>
      <point x="121" y="339" type="line"/>
      <point x="121" y="316"/>
      <point x="121" y="295"/>
      <point x="121" y="271" type="curve" smooth="yes"/>
      <point x="121" y="268"/>
      <point x="122" y="265"/>
      <point x="124" y="263" type="curve" smooth="yes"/>
      <point x="126" y="261"/>
      <point x="129" y="260"/>
      <point x="132" y="260" type="curve"/>
      <point x="479" y="260" type="line"/>
      <point x="479" y="284"/>
      <point x="479" y="305"/>
      <point x="479" y="328" type="curve" smooth="yes"/>
      <point x="479" y="334"/>
      <point x="474" y="339"/>
      <point x="468" y="339" type="curve"/>
    </contour>
  </outline>
</glyph>
<glyph name="period" format="1">
  <advance width="600"/>
  <unicode hex="002E"/>
  <outline>
    <contour>
      <point x="374" y="-7" type="curve"/>
      <point x="374" y="127" type="line" smooth="yes"/>
      <point x="374" y="133"/>
      <point x="369" y="138"/>
      <point x="363" y="138" type="curve" smooth="yes"/>
      <point x="323" y="138"/>
      <point x="266" y="138"/>
      <point x="226" y="138" type="curve"/>
      <point x="226" y="4" type="line" smooth="yes"/>
      <point x="226" y="-2"/>
      <point x="231" y="-7"/>
      <point x="237" y="-7" type="curve" smooth="yes"/>
      <point x="277" y="-7"/>
      <point x="334" y="-7"/>
    </contour>
  </outline>
</glyph>
<glyph name="two" format="1">
  <advance width="600"/>
  <unicode hex="0032"/>
  <outline>
    <contour>
      <point x="440" y="613" type="curve"/>
      <point x="440" y="580"/>
      <point x="440" y="568"/>
      <point x="440" y="530" type="curve" smooth="yes"/>
      <point x="440" y="476"/>
      <point x="415" y="446"/>
      <point x="285" y="359" type="curve" smooth="yes"/>
      <point x="131" y="255"/>
      <point x="67" y="185"/>
      <point x="67" y="61" type="curve" smooth="yes"/>
      <point x="67" y="50"/>
      <point x="85" y="47"/>
      <point x="149" y="47" type="curve"/>
      <point x="149" y="155"/>
      <point x="175" y="188"/>
      <point x="330" y="295" type="curve" smooth="yes"/>
      <point x="462" y="384"/>
      <point x="521" y="436"/>
      <point x="521" y="525" type="curve" smooth="yes"/>
      <point x="521" y="556" type="line" smooth="yes"/>
      <point x="521" y="585"/>
      <point x="499" y="613"/>
    </contour>
    <contour>
      <point x="536" y="0" type="line"/>
      <point x="536" y="20"/>
      <point x="536" y="42"/>
      <point x="536" y="66" type="curve" smooth="yes"/>
      <point x="536" y="72"/>
      <point x="532" y="77"/>
      <point x="525" y="77" type="curve" smooth="yes"/>
      <point x="135" y="77" type="line" smooth="yes"/>
      <point x="112" y="77"/>
      <point x="89" y="74"/>
      <point x="67" y="61" type="curve"/>
      <point x="67" y="45"/>
      <point x="67" y="35"/>
      <point x="67" y="11" type="curve" smooth="yes"/>
      <point x="67" y="4"/>
      <point x="71" y="0"/>
      <point x="78" y="0" type="curve" smooth="yes"/>
    </contour>
    <contour>
      <point x="300" y="720" type="curve" smooth="yes"/>
      <point x="200" y="720"/>
      <point x="121" y="687"/>
      <point x="88" y="654" type="curve" smooth="yes"/>
      <point x="86" y="651"/>
      <point x="85" y="649"/>
      <point x="85" y="645" type="curve" smooth="yes"/>
      <point x="85" y="611"/>
      <point x="85" y="590"/>
      <point x="85" y="570" type="curve"/>
      <point x="99" y="570" type="line"/>
      <point x="159" y="621"/>
      <point x="217" y="641"/>
      <point x="299" y="641" type="curve" smooth="yes"/>
      <point x="391" y="641"/>
      <point x="440" y="616"/>
      <point x="440" y="548" type="curve" smooth="yes"/>
      <point x="440" y="521"/>
      <point x="440" y="503"/>
      <point x="440" y="479" type="curve"/>
      <point x="493" y="480"/>
      <point x="521" y="512"/>
      <point x="521" y="556" type="curve" smooth="yes"/>
      <point x="521" y="656"/>
      <point x="437" y="720"/>
    </contour>
  </outline>
</glyph>
<glyph name="three" format="1">
  <advance width="600"/>
  <unicode hex="0033"/>
  <outline>
    <contour>
      <point x="285" y="641" type="curve" smooth="yes"/>
      <point x="392" y="641"/>
      <point x="442" y="593"/>
      <point x="442" y="530" type="curve" smooth="yes"/>
      <point x="442" y="507"/>
      <point x="442" y="485"/>
      <point x="442" y="464" type="curve"/>
      <point x="485" y="464"/>
      <point x="522" y="490"/>
      <point x="522" y="531" type="curve" smooth="yes"/>
      <point x="522" y="555" type="line" smooth="yes"/>
      <point x="522" y="643"/>
      <point x="437" y="720"/>
      <point x="287" y="720" type="curve" smooth="yes"/>
      <point x="193" y="720"/>
      <point x="113" y="693"/>
      <point x="85" y="665" type="curve" smooth="yes"/>
      <point x="83" y="663"/>
      <point x="83" y="661"/>
      <point x="83" y="657" type="curve" smooth="yes"/>
      <point x="83" y="626"/>
      <point x="83" y="601"/>
      <point x="83" y="585" type="curve"/>
      <point x="96" y="585" type="line"/>
      <point x="155" y="625"/>
      <point x="203" y="641"/>
    </contour>
    <contour>
      <point x="177" y="339" type="curve" smooth="yes"/>
      <point x="391" y="339"/>
      <point x="522" y="405"/>
      <point x="522" y="531" type="curve" smooth="yes"/>
      <point x="522" y="561"/>
      <point x="482" y="589"/>
      <point x="439" y="589" type="curve"/>
      <point x="439" y="564"/>
      <point x="439" y="542"/>
      <point x="439" y="521" type="curve" smooth="yes"/>
      <point x="439" y="448"/>
      <point x="368" y="394"/>
      <point x="166" y="394" type="curve"/>
      <point x="166" y="381"/>
      <point x="166" y="363"/>
      <point x="166" y="350" type="curve" smooth="yes"/>
      <point x="166" y="344"/>
      <point x="170" y="339"/>
    </contour>
    <contour>
      <point x="177" y="318" type="curve" smooth="yes"/>
      <point x="357" y="318"/>
      <point x="448" y="277"/>
      <point x="448" y="183" type="curve" smooth="yes"/>
      <point x="448" y="161"/>
      <point x="448" y="144"/>
      <point x="448" y="117" type="curve"/>
      <point x="494" y="117"/>
      <point x="532" y="147"/>
      <point x="532" y="187" type="curve" smooth="yes"/>
      <point x="532" y="307"/>
      <point x="408" y="374"/>
      <point x="166" y="374" type="curve"/>
      <point x="166" y="360"/>
      <point x="166" y="344"/>
      <point x="166" y="329" type="curve" smooth="yes"/>
      <point x="166" y="322"/>
      <point x="170" y="318"/>
    </contour>
    <contour>
      <point x="278" y="59" type="curve" smooth="yes"/>
      <point x="193" y="59"/>
      <point x="145" y="75"/>
      <point x="83" y="119" type="curve"/>
      <point x="69" y="119" type="line"/>
      <point x="69" y="100"/>
      <point x="69" y="75"/>
      <point x="69" y="43" type="curve" smooth="yes"/>
      <point x="69" y="39"/>
      <point x="70" y="37"/>
      <point x="72" y="35" type="curve" smooth="yes"/>
      <point x="101" y="6"/>
      <point x="183" y="-20"/>
      <point x="280" y="-20" type="curve" smooth="yes"/>
      <point x="442" y="-20"/>
      <point x="532" y="61"/>
      <point x="532" y="161" type="curve" smooth="yes"/>
      <point x="532" y="187" type="line" smooth="yes"/>
      <point x="532" y="221"/>
      <point x="491" y="250"/>
      <point x="451" y="250" type="curve"/>
      <point x="451" y="222"/>
      <point x="451" y="202"/>
      <point x="451" y="181" type="curve" smooth="yes"/>
      <point x="451" y="113"/>
      <point x="396" y="59"/>
    </contour>
  </outline>
</glyph>
<glyph name="four" format="1">
  <advance width="600"/>
  <unicode hex="0034"/>
  <outline>
    <contour>
      <point x="123" y="197" type="curve"/>
      <point x="231" y="361"/>
      <point x="339" y="525"/>
      <point x="447" y="689" type="curve"/>
      <point x="447" y="700" type="line"/>
      <point x="406" y="700"/>
      <point x="377" y="700"/>
      <point x="367" y="700" type="curve" smooth="yes"/>
      <point x="361" y="700"/>
      <point x="354" y="700"/>
      <point x="349" y="691" type="curve" smooth="yes"/>
      <point x="204" y="467"/>
      <point x="50" y="227"/>
      <point x="50" y="223" type="curve" smooth="yes"/>
      <point x="50" y="204"/>
      <point x="95" y="197"/>
    </contour>
    <contour>
      <point x="560" y="153" type="line"/>
      <point x="560" y="175"/>
      <point x="560" y="196"/>
      <point x="560" y="218" type="curve" smooth="yes"/>
      <point x="560" y="224"/>
      <point x="555" y="229"/>
      <point x="549" y="229" type="curve" smooth="yes"/>
      <point x="395" y="229" type="line"/>
      <point x="313" y="229"/>
      <point x="177" y="226"/>
      <point x="50" y="223" type="curve"/>
      <point x="50" y="164" type="line" smooth="yes"/>
      <point x="50" y="161"/>
      <point x="51" y="158"/>
      <point x="53" y="156" type="curve" smooth="yes"/>
      <point x="55" y="154"/>
      <point x="58" y="153"/>
      <point x="61" y="153" type="curve" smooth="yes"/>
    </contour>
    <contour>
      <point x="479" y="0" type="curve"/>
      <point x="479" y="31"/>
      <point x="479" y="65"/>
      <point x="479" y="99" type="curve" smooth="yes"/>
      <point x="479" y="368" type="line" smooth="yes"/>
      <point x="479" y="375"/>
      <point x="475" y="379"/>
      <point x="468" y="379" type="curve" smooth="yes"/>
      <point x="408" y="379" type="line"/>
      <point x="405" y="326"/>
      <point x="402" y="274"/>
      <point x="398" y="220" type="curve"/>
      <point x="398" y="11" type="line" smooth="yes"/>
      <point x="398" y="5"/>
      <point x="403" y="0"/>
      <point x="409" y="0" type="curve" smooth="yes"/>
      <point x="432" y="0"/>
      <point x="456" y="0"/>
    </contour>
  </outline>
</glyph>
<glyph name="seven" format="1">
  <advance width="600"/>
  <unicode hex="0037"/>
  <outline>
    <contour>
      <point x="477" y="623" type="line" smooth="yes"/>
      <point x="500" y="623"/>
      <point x="521" y="625"/>
      <point x="543" y="628" type="curve"/>
      <point x="543" y="689" type="line"/>
      <point x="543" y="695"/>
      <point x="538" y="700"/>
      <point x="532" y="700" type="curve"/>
      <point x="71" y="700" type="line"/>
      <point x="71" y="663" type="line" smooth="yes"/>
      <point x="71" y="636"/>
      <point x="82" y="623"/>
      <point x="98" y="623" type="curve" smooth="yes"/>
    </contour>
    <contour>
      <point x="293" y="0" type="line"/>
      <point x="449" y="386"/>
      <point x="543" y="619"/>
      <point x="543" y="628" type="curve" smooth="yes"/>
      <point x="543" y="653"/>
      <point x="520" y="657"/>
      <point x="469" y="656" type="curve"/>
      <point x="316" y="281"/>
      <point x="210" y="18"/>
      <point x="210" y="11" type="curve" smooth="yes"/>
      <point x="210" y="4"/>
      <point x="214" y="0"/>
      <point x="221" y="0" type="curve" smooth="yes"/>
    </contour>
    <contour>
      <point x="152" y="491" type="curve"/>
      <point x="152" y="545"/>
      <point x="152" y="618"/>
      <point x="152" y="673" type="curve"/>
      <point x="152" y="693"/>
      <point x="132" y="700"/>
      <point x="82" y="700" type="curve" smooth="yes"/>
      <point x="71" y="700" type="line"/>
      <point x="71" y="641"/>
      <point x="71" y="561"/>
      <point x="71" y="502" type="curve"/>
      <point x="71" y="496"/>
      <point x="76" y="491"/>
      <point x="82" y="491" type="curve" smooth="yes"/>
      <point x="105" y="491"/>
      <point x="129" y="491"/>
    </contour>
  </outline>
</glyph>
<glyph name="eight" format="1">
  <advance width="600"/>
  <unicode hex="0038"/>
  <outline>
    <contour>
      <point x="368" y="358" type="curve" smooth="yes"/>
      <point x="269" y="394" type="line" smooth="yes"/>
      <point x="189" y="423"/>
      <point x="154" y="460"/>
      <point x="154" y="514" type="curve" smooth="yes"/>
      <point x="154" y="534"/>
      <point x="154" y="551"/>
      <point x="154" y="577" type="curve"/>
      <point x="113" y="577"/>
      <point x="75" y="549"/>
      <point x="75" y="511" type="curve" smooth="yes"/>
      <point x="75" y="427"/>
      <point x="129" y="370"/>
      <point x="251" y="324" type="curve" smooth="yes"/>
      <point x="348" y="288" type="line" smooth="yes"/>
      <point x="430" y="257"/>
      <point x="462" y="227"/>
      <point x="462" y="175" type="curve" smooth="yes"/>
      <point x="462" y="134"/>
      <point x="461" y="119"/>
      <point x="460" y="106" type="curve"/>
      <point x="499" y="110"/>
      <point x="540" y="149"/>
      <point x="540" y="184" type="curve"/>
      <point x="540" y="261"/>
      <point x="484" y="315"/>
    </contour>
    <contour>
      <point x="300" y="-20" type="curve" smooth="yes"/>
      <point x="446" y="-20"/>
      <point x="540" y="53"/>
      <point x="540" y="154" type="curve" smooth="yes"/>
      <point x="540" y="184" type="line" smooth="yes"/>
      <point x="540" y="212"/>
      <point x="507" y="230"/>
      <point x="462" y="233" type="curve"/>
      <point x="462" y="224"/>
      <point x="462" y="202"/>
      <point x="462" y="164" type="curve" smooth="yes"/>
      <point x="462" y="96"/>
      <point x="404" y="55"/>
      <point x="300" y="55" type="curve" smooth="yes"/>
      <point x="253" y="55"/>
      <point x="227" y="55"/>
      <point x="204" y="55" type="curve"/>
      <point x="204" y="17"/>
      <point x="249" y="-20"/>
    </contour>
    <contour>
      <point x="302" y="720" type="curve" smooth="yes"/>
      <point x="168" y="720"/>
      <point x="75" y="642"/>
      <point x="75" y="538" type="curve" smooth="yes"/>
      <point x="75" y="511" type="line" smooth="yes"/>
      <point x="75" y="474"/>
      <point x="100" y="452"/>
      <point x="154" y="452" type="curve"/>
      <point x="154" y="475"/>
      <point x="154" y="496"/>
      <point x="154" y="527" type="curve" smooth="yes"/>
      <point x="154" y="593"/>
      <point x="213" y="645"/>
      <point x="299" y="645" type="curve" smooth="yes"/>
      <point x="345" y="645"/>
      <point x="375" y="645"/>
      <point x="399" y="645" type="curve"/>
      <point x="399" y="690"/>
      <point x="358" y="720"/>
    </contour>
    <contour>
      <point x="348" y="341" type="curve" smooth="yes"/>
      <point x="430" y="341"/>
      <point x="526" y="431"/>
      <point x="526" y="514" type="curve" smooth="yes"/>
      <point x="526" y="541" type="line" smooth="yes"/>
      <point x="526" y="646"/>
      <point x="437" y="720"/>
      <point x="302" y="720" type="curve" smooth="yes"/>
      <point x="283" y="720"/>
      <point x="281" y="708"/>
      <point x="299" y="645" type="curve"/>
      <point x="401" y="645"/>
      <point x="447" y="606"/>
      <point x="447" y="531" type="curve" smooth="yes"/>
      <point x="447" y="519" type="line" smooth="yes"/>
      <point x="447" y="457"/>
      <point x="396" y="400"/>
      <point x="290" y="366" type="curve"/>
      <point x="301" y="351"/>
      <point x="323" y="341"/>
    </contour>
    <contour>
      <point x="300" y="55" type="curve"/>
      <point x="200" y="55"/>
      <point x="138" y="98"/>
      <point x="138" y="165" type="curve" smooth="yes"/>
      <point x="138" y="177" type="line" smooth="yes"/>
      <point x="138" y="242"/>
      <point x="197" y="301"/>
      <point x="304" y="320" type="curve"/>
      <point x="292" y="338"/>
      <point x="275" y="351"/>
      <point x="248" y="351" type="curve" smooth="yes"/>
      <point x="154" y="351"/>
      <point x="60" y="273"/>
      <point x="60" y="182" type="curve" smooth="yes"/>
      <point x="60" y="152" type="line" smooth="yes"/>
      <point x="60" y="50"/>
      <point x="158" y="-20"/>
      <point x="300" y="-20" type="curve" smooth="yes"/>
      <point x="317" y="-20"/>
      <point x="325" y="3"/>
    </contour>
  </outline>
</glyph>
<glyph name="nine" format="1">
  <advance width="600"/>
  <unicode hex="0039"/>
  <outline>
    <contour>
      <point x="387" y="646" type="curve"/>
      <point x="387" y="691"/>
      <point x="364" y="720"/>
      <point x="293" y="720" type="curve"/>
      <point x="160" y="720"/>
      <point x="67" y="635"/>
      <point x="67" y="515" type="curve" smooth="yes"/>
      <point x="67" y="443" type="line" smooth="yes"/>
      <point x="67" y="408"/>
      <point x="102" y="382"/>
      <point x="147" y="382" type="curve"/>
      <point x="147" y="404"/>
      <point x="147" y="422"/>
      <point x="147" y="449" type="curve" smooth="yes"/>
      <point x="147" y="509" type="line" smooth="yes"/>
      <point x="147" y="593"/>
      <point x="204" y="646"/>
      <point x="300" y="646" type="curve" smooth="yes"/>
      <point x="345" y="646"/>
      <point x="362" y="646"/>
    </contour>
    <contour>
      <point x="360" y="59" type="curve"/>
      <point x="332" y="59"/>
      <point x="310" y="59"/>
      <point x="269" y="59" type="curve" smooth="yes"/>
      <point x="199" y="59"/>
      <point x="160" y="71"/>
      <point x="103" y="108" type="curve"/>
      <point x="89" y="108" type="line"/>
      <point x="89" y="90"/>
      <point x="89" y="66"/>
      <point x="89" y="34" type="curve" smooth="yes"/>
      <point x="89" y="30"/>
      <point x="90" y="29"/>
      <point x="92" y="27" type="curve" smooth="yes"/>
      <point x="118" y="1"/>
      <point x="191" y="-20"/>
      <point x="268" y="-20" type="curve" smooth="yes"/>
      <point x="331" y="-20"/>
      <point x="360" y="9"/>
    </contour>
    <contour>
      <point x="536" y="278" type="curve" smooth="yes"/>
      <point x="536" y="436" type="line" smooth="yes"/>
      <point x="536" y="629"/>
      <point x="459" y="720"/>
      <point x="293" y="720" type="curve" smooth="yes"/>
      <point x="281" y="720"/>
      <point x="281" y="692"/>
      <point x="300" y="646" type="curve"/>
      <point x="408" y="646"/>
      <point x="453" y="587"/>
      <point x="453" y="437" type="curve" smooth="yes"/>
      <point x="453" y="276" type="line" smooth="yes"/>
      <point x="453" y="131"/>
      <point x="393" y="59"/>
      <point x="269" y="59" type="curve"/>
      <point x="252" y="14"/>
      <point x="252" y="-20"/>
      <point x="268" y="-20" type="curve" smooth="yes"/>
      <point x="440" y="-20"/>
      <point x="536" y="86"/>
    </contour>
    <contour>
      <point x="277" y="261" type="curve" smooth="yes"/>
      <point x="351" y="261"/>
      <point x="418" y="288"/>
      <point x="453" y="323" type="curve" smooth="yes"/>
      <point x="462" y="332"/>
      <point x="466" y="353"/>
      <point x="466" y="400" type="curve"/>
      <point x="412" y="355"/>
      <point x="357" y="335"/>
      <point x="290" y="335" type="curve" smooth="yes"/>
      <point x="193" y="335"/>
      <point x="147" y="374"/>
      <point x="147" y="449" type="curve" smooth="yes"/>
      <point x="147" y="460"/>
      <point x="147" y="478"/>
      <point x="147" y="485" type="curve"/>
      <point x="94" y="483"/>
      <point x="67" y="466"/>
      <point x="67" y="443" type="curve" smooth="yes"/>
      <point x="67" y="328"/>
      <point x="147" y="261"/>
    </contour>
  </outline>
</glyph>
<glyph name="colon" format="1">
  <advance width="600"/>
  <unicode hex="003A"/>
  <outline>
    <contour>
      <point x="374" y="392" type="curve"/>
      <point x="374" y="526" type="line" smooth="yes"/>
      <point x="374" y="532"/>
      <point x="369" y="537"/>
      <point x="363" y="537" type="curve" smooth="yes"/>
      <point x="323" y="537"/>
      <point x="266" y="537"/>
      <point x="226" y="537" type="curve"/>
      <point x="226" y="403" type="line" smooth="yes"/>
      <point x="226" y="397"/>
      <point x="231" y="392"/>
      <point x="237" y="392" type="curve" smooth="yes"/>
      <point x="277" y="392"/>
      <point x="334" y="392"/>
    </contour>
    <contour>
      <point x="374" y="-7" type="curve"/>
      <point x="374" y="127" type="line" smooth="yes"/>
      <point x="374" y="133"/>
      <point x="369" y="138"/>
      <point x="363" y="138" type="curve" smooth="yes"/>
      <point x="323" y="138"/>
      <point x="266" y="138"/>
      <point x="226" y="138" type="curve"/>
      <point x="226" y="4" type="line" smooth="yes"/>
      <point x="226" y="-2"/>
      <point x="231" y="-7"/>
      <point x="237" y="-7" type="curve" smooth="yes"/>
      <point x="277" y="-7"/>
      <point x="334" y="-7"/>
    </contour>
  </outline>
</glyph>
<glyph name="semicolon" format="1">
  <advance width="600"/>
  <unicode hex="003B"/>
  <outline>
    <contour>
      <point x="374" y="392" type="curve"/>
      <point x="374" y="526" type="line" smooth="yes"/>
      <point x="374" y="532"/>
      <point x="369" y="537"/>
      <point x="363" y="537" type="curve" smooth="yes"/>
      <point x="323" y="537"/>
      <point x="266" y="537"/>
      <point x="226" y="537" type="curve"/>
      <point x="226" y="403" type="line" smooth="yes"/>
      <point x="226" y="397"/>
      <point x="231" y="392"/>
      <point x="237" y="392" type="curve" smooth="yes"/>
      <point x="277" y="392"/>
      <point x="334" y="392"/>
    </contour>
    <contour>
      <point x="274" y="-206" type="curve" smooth="yes"/>
      <point x="279" y="-206"/>
      <point x="282" y="-205"/>
      <point x="284" y="-199" type="curve"/>
      <point x="325" y="-101"/>
      <point x="367" y="4"/>
      <point x="406" y="95" type="curve"/>
      <point x="409" y="103"/>
      <point x="406" y="108"/>
      <point x="398" y="108" type="curve" smooth="yes"/>
      <point x="351" y="108"/>
      <point x="324" y="108"/>
      <point x="270" y="108" type="curve"/>
      <point x="246" y="3"/>
      <point x="222" y="-101"/>
      <point x="198" y="-206" type="curve"/>
      <point x="218" y="-206"/>
      <point x="241" y="-206"/>
    </contour>
  </outline>
</glyph>
<glyph name="less" format="1">
  <advance width="600"/>
  <unicode hex="003C"/>
  <outline>
    <contour>
      <point x="520" y="494" type="curve"/>
      <point x="520" y="568" type="line"/>
      <point x="520" y="572"/>
      <point x="518" y="576"/>
      <point x="513" y="576" type="curve" smooth="yes"/>
      <point x="509" y="576"/>
      <point x="506" y="575"/>
      <point x="492" y="568" type="curve" smooth="yes"/>
      <point x="450" y="547"/>
      <point x="219" y="430"/>
      <point x="80" y="360" type="curve"/>
      <point x="80" y="260" type="line"/>
      <point x="89" y="274"/>
      <point x="99" y="283"/>
      <point x="129" y="297" type="curve"/>
      <point x="259" y="362"/>
      <point x="390" y="428"/>
    </contour>
    <contour>
      <point x="520" y="18" type="curve"/>
      <point x="520" y="44"/>
      <point x="520" y="67"/>
      <point x="520" y="93" type="curve" smooth="yes"/>
      <point x="520" y="102"/>
      <point x="519" y="105"/>
      <point x="510" y="109" type="curve" smooth="yes"/>
      <point x="397" y="167"/>
      <point x="283" y="225"/>
      <point x="167" y="284" type="curve" smooth="yes"/>
      <point x="161" y="287"/>
      <point x="160" y="290"/>
      <point x="160" y="297" type="curve" smooth="yes"/>
      <point x="160" y="314"/>
      <point x="160" y="333"/>
      <point x="160" y="357" type="curve"/>
      <point x="101" y="354"/>
      <point x="80" y="302"/>
      <point x="80" y="266" type="curve" smooth="yes"/>
      <point x="80" y="250" type="line" smooth="yes"/>
      <point x="80" y="242"/>
      <point x="83" y="236"/>
      <point x="92" y="232" type="curve" smooth="yes"/>
      <point x="234" y="161"/>
      <point x="377" y="89"/>
    </contour>
  </outline>
</glyph>
<glyph name="equal" format="1">
  <advance width="600"/>
  <unicode hex="003D"/>
  <outline>
    <contour>
      <point x="71" y="466" type="line"/>
      <point x="71" y="442"/>
      <point x="71" y="421"/>
      <point x="71" y="398" type="curve" smooth="yes"/>
      <point x="71" y="395"/>
      <point x="72" y="392"/>
      <point x="74" y="390" type="curve" smooth="yes"/>
      <point x="76" y="388"/>
      <point x="79" y="387"/>
      <point x="82" y="387" type="curve"/>
      <point x="529" y="387" type="line"/>
      <point x="529" y="410"/>
      <point x="529" y="431"/>
      <point x="529" y="455" type="curve" smooth="yes"/>
      <point x="529" y="461"/>
      <point x="524" y="466"/>
      <point x="518" y="466" type="curve"/>
    </contour>
    <contour>
      <point x="529" y="134" type="line"/>
      <point x="529" y="157"/>
      <point x="529" y="178"/>
      <point x="529" y="202" type="curve" smooth="yes"/>
      <point x="529" y="205"/>
      <point x="528" y="208"/>
      <point x="526" y="210" type="curve" smooth="yes"/>
      <point x="524" y="212"/>
      <point x="521" y="213"/>
      <point x="518" y="213" type="curve"/>
      <point x="71" y="213" type="line"/>
      <point x="71" y="189"/>
      <point x="71" y="168"/>
      <point x="71" y="145" type="curve" smooth="yes"/>
      <point x="71" y="139"/>
      <point x="76" y="134"/>
      <point x="82" y="134" type="curve"/>
    </contour>
  </outline>
</glyph>
<glyph name="greater" format="1">
  <advance width="600"/>
  <unicode hex="003E"/>
  <outline>
    <contour>
      <point x="80" y="106" type="curve"/>
      <point x="80" y="33" type="line"/>
      <point x="80" y="28"/>
      <point x="82" y="25"/>
      <point x="87" y="25" type="curve" smooth="yes"/>
      <point x="91" y="25"/>
      <point x="94" y="26"/>
      <point x="108" y="33" type="curve" smooth="yes"/>
      <point x="150" y="54"/>
      <point x="381" y="171"/>
      <point x="520" y="241" type="curve"/>
      <point x="520" y="341" type="line"/>
      <point x="511" y="327"/>
      <point x="501" y="318"/>
      <point x="471" y="304" type="curve"/>
      <point x="341" y="238"/>
      <point x="210" y="172"/>
    </contour>
    <contour>
      <point x="80" y="583" type="curve"/>
      <point x="80" y="557"/>
      <point x="80" y="533"/>
      <point x="80" y="507" type="curve" smooth="yes"/>
      <point x="80" y="499"/>
      <point x="81" y="496"/>
      <point x="90" y="491" type="curve" smooth="yes"/>
      <point x="203" y="434"/>
      <point x="317" y="376"/>
      <point x="433" y="317" type="curve" smooth="yes"/>
      <point x="439" y="314"/>
      <point x="440" y="311"/>
      <point x="440" y="304" type="curve" smooth="yes"/>
      <point x="440" y="287"/>
      <point x="440" y="267"/>
      <point x="440" y="244" type="curve"/>
      <point x="499" y="246"/>
      <point x="520" y="299"/>
      <point x="520" y="335" type="curve" smooth="yes"/>
      <point x="520" y="350" type="line" smooth="yes"/>
      <point x="520" y="359"/>
      <point x="517" y="364"/>
      <point x="508" y="369" type="curve" smooth="yes"/>
      <point x="366" y="440"/>
      <point x="223" y="511"/>
    </contour>
  </outline>
</glyph>
<glyph name="question" format="1">
  <advance width="600"/>
  <unicode hex="003F"/>
  <outline>
    <contour>
      <point x="298" y="720" type="curve" smooth="yes"/>
      <point x="208" y="720"/>
      <point x="126" y="693"/>
      <point x="88" y="655" type="curve" smooth="yes"/>
      <point x="86" y="653"/>
      <point x="85" y="650"/>
      <point x="85" y="646" type="curve" smooth="yes"/>
      <point x="85" y="612"/>
      <point x="85" y="587"/>
      <point x="85" y="572" type="curve"/>
      <point x="99" y="572" type="line"/>
      <point x="165" y="623"/>
      <point x="224" y="641"/>
      <point x="298" y="641" type="curve" smooth="yes"/>
      <point x="401" y="641"/>
      <point x="440" y="607"/>
      <point x="440" y="548" type="curve" smooth="yes"/>
      <point x="440" y="527"/>
      <point x="440" y="509"/>
      <point x="440" y="487" type="curve"/>
      <point x="492" y="487"/>
      <point x="521" y="521"/>
      <point x="521" y="558" type="curve" smooth="yes"/>
      <point x="521" y="650"/>
      <point x="448" y="720"/>
    </contour>
    <contour>
      <point x="440" y="615" type="curve"/>
      <point x="440" y="594"/>
      <point x="440" y="564"/>
      <point x="440" y="529" type="curve" smooth="yes"/>
      <point x="440" y="489"/>
      <point x="423" y="471"/>
      <point x="367" y="432" type="curve" smooth="yes"/>
      <point x="330" y="407" type="line" smooth="yes"/>
      <point x="254" y="355"/>
      <point x="235" y="323"/>
      <point x="235" y="266" type="curve" smooth="yes"/>
      <point x="235" y="252" type="line" smooth="yes"/>
      <point x="235" y="244"/>
      <point x="238" y="241"/>
      <point x="246" y="241" type="curve" smooth="yes"/>
      <point x="317" y="241" type="line"/>
      <point x="317" y="249" type="line" smooth="yes"/>
      <point x="317" y="293"/>
      <point x="324" y="307"/>
      <point x="386" y="350" type="curve" smooth="yes"/>
      <point x="426" y="378" type="line" smooth="yes"/>
      <point x="496" y="426"/>
      <point x="521" y="460"/>
      <point x="521" y="528" type="curve" smooth="yes"/>
      <point x="521" y="558" type="line" smooth="yes"/>
      <point x="521" y="592"/>
      <point x="499" y="615"/>
    </contour>
    <contour>
      <point x="357" y="-7" type="curve"/>
      <point x="357" y="124" type="line" smooth="yes"/>
      <point x="357" y="130"/>
      <point x="352" y="135"/>
      <point x="346" y="135" type="curve" smooth="yes"/>
      <point x="305" y="135"/>
      <point x="249" y="135"/>
      <point x="209" y="135" type="curve"/>
      <point x="209" y="4" type="line" smooth="yes"/>
      <point x="209" y="-2"/>
      <point x="214" y="-7"/>
      <point x="220" y="-7" type="curve" smooth="yes"/>
      <point x="260" y="-7"/>
      <point x="316" y="-7"/>
    </contour>
  </outline>
</glyph>
<glyph name="A" format="1">
  <advance width="600"/>
  <unicode hex="0041"/>
  <outline>
    <contour>
      <point x="111" y="0" type="curve"/>
      <point x="186" y="292"/>
      <point x="240" y="474"/>
      <point x="297" y="667" type="curve"/>
      <point x="302" y="688"/>
      <point x="324" y="698"/>
      <point x="363" y="707" type="curve"/>
      <point x="225" y="707" type="line"/>
      <point x="168" y="515"/>
      <point x="103" y="280"/>
      <point x="32" y="14" type="curve"/>
      <point x="30" y="5"/>
      <point x="34" y="0"/>
      <point x="40" y="0" type="curve" smooth="yes"/>
      <point x="65" y="0"/>
      <point x="86" y="0"/>
    </contour>
    <contour>
      <point x="574" y="0" type="curve"/>
      <point x="504" y="247"/>
      <point x="438" y="481"/>
      <point x="375" y="696" type="curve"/>
      <point x="374" y="699"/>
      <point x="373" y="702"/>
      <point x="371" y="704" type="curve" smooth="yes"/>
      <point x="369" y="706"/>
      <point x="367" y="707"/>
      <point x="363" y="707" type="curve"/>
      <point x="289" y="707"/>
      <point x="265" y="693"/>
      <point x="265" y="627" type="curve"/>
      <point x="273" y="627"/>
      <point x="299" y="627"/>
      <point x="305" y="627" type="curve" smooth="yes"/>
      <point x="308" y="627"/>
      <point x="310" y="626"/>
      <point x="311" y="623" type="curve"/>
      <point x="365" y="440"/>
      <point x="421" y="253"/>
      <point x="485" y="16" type="curve"/>
      <point x="488" y="6"/>
      <point x="489" y="5"/>
      <point x="491" y="3" type="curve" smooth="yes"/>
      <point x="493" y="1"/>
      <point x="495" y="0"/>
      <point x="499" y="0" type="curve" smooth="yes"/>
      <point x="523" y="0"/>
      <point x="549" y="0"/>
    </contour>
    <contour>
      <point x="142" y="282" type="line"/>
      <point x="142" y="216" type="line" smooth="yes"/>
      <point x="142" y="213"/>
      <point x="143" y="210"/>
      <point x="145" y="208" type="curve" smooth="yes"/>
      <point x="147" y="206"/>
      <point x="150" y="205"/>
      <point x="153" y="205" type="curve"/>
      <point x="469" y="205" type="line"/>
      <point x="469" y="279"/>
      <point x="464" y="282"/>
      <point x="458" y="282" type="curve" smooth="yes"/>
    </contour>
    <contour>
      <point x="300" y="711" type="move" name="top"/>
    </contour>
    <contour>
      <point x="575" y="0" type="move" name="ogonek"/>
    </contour>
    <contour>
      <point x="300" y="700" type="move" name="ring"/>
    </contour>
    <contour>
      <point x="300" y="-1" type="move" name="bottom"/>
    </contour>
  </outline>
</glyph>
<glyph name="B" format="1">
  <advance width="600"/>
  <unicode hex="0042"/>
  <outline>
    <contour>
      <point x="175" y="8" type="curve"/>
      <point x="175" y="667" type="line" smooth="yes"/>
      <point x="175" y="677"/>
      <point x="151" y="681"/>
      <point x="92" y="681" type="curve"/>
      <point x="92" y="11" type="line"/>
      <point x="92" y="10"/>
      <point x="128" y="8"/>
    </contour>
    <contour>
      <point x="30" y="700" type="curve"/>
      <point x="30" y="680"/>
      <point x="30" y="658"/>
      <point x="30" y="634" type="curve" smooth="yes"/>
      <point x="30" y="631"/>
      <point x="31" y="628"/>
      <point x="33" y="626" type="curve" smooth="yes"/>
      <point x="35" y="624"/>
      <point x="38" y="623"/>
      <point x="41" y="623" type="curve" smooth="yes"/>
      <point x="58" y="623"/>
      <point x="81" y="623"/>
      <point x="103" y="623" type="curve" smooth="yes"/>
      <point x="164" y="623"/>
      <point x="251" y="623"/>
      <point x="312" y="623" type="curve" smooth="yes"/>
      <point x="371" y="623"/>
      <point x="384" y="623"/>
      <point x="421" y="623" type="curve"/>
      <point x="422" y="663"/>
      <point x="393" y="700"/>
      <point x="308" y="700" type="curve" smooth="yes"/>
      <point x="220" y="700"/>
      <point x="120" y="700"/>
    </contour>
    <contour>
      <point x="519" y="509" type="curve" smooth="yes"/>
      <point x="519" y="535" type="line" smooth="yes"/>
      <point x="519" y="628"/>
      <point x="459" y="700"/>
      <point x="308" y="700" type="curve" smooth="yes"/>
      <point x="293" y="700"/>
      <point x="292" y="686"/>
      <point x="312" y="623" type="curve"/>
      <point x="402" y="623"/>
      <point x="437" y="589"/>
      <point x="437" y="526" type="curve" smooth="yes"/>
      <point x="437" y="498" type="line" smooth="yes"/>
      <point x="437" y="433"/>
      <point x="407" y="388"/>
      <point x="288" y="388" type="curve" smooth="yes"/>
      <point x="240" y="388"/>
      <point x="197" y="388"/>
      <point x="149" y="388" type="curve"/>
      <point x="149" y="377"/>
      <point x="149" y="364"/>
      <point x="149" y="354" type="curve" smooth="yes"/>
      <point x="149" y="348"/>
      <point x="154" y="343"/>
      <point x="162" y="343" type="curve" smooth="yes"/>
      <point x="297" y="343" type="line" smooth="yes"/>
      <point x="449" y="343"/>
      <point x="519" y="403"/>
    </contour>
    <contour>
      <point x="529" y="183" type="curve" smooth="yes"/>
      <point x="529" y="211" type="line" smooth="yes"/>
      <point x="529" y="312"/>
      <point x="445" y="369"/>
      <point x="293" y="369" type="curve" smooth="yes"/>
      <point x="162" y="369" type="line" smooth="yes"/>
      <point x="155" y="369"/>
      <point x="149" y="364"/>
      <point x="149" y="358" type="curve"/>
      <point x="149" y="323" type="line"/>
      <point x="285" y="323" type="line"/>
      <point x="411" y="323"/>
      <point x="446" y="279"/>
      <point x="446" y="221" type="curve" smooth="yes"/>
      <point x="446" y="191" type="line" smooth="yes"/>
      <point x="446" y="120"/>
      <point x="405" y="77"/>
      <point x="313" y="77" type="curve" smooth="yes"/>
      <point x="259" y="77"/>
      <point x="198" y="77"/>
      <point x="137" y="77" type="curve"/>
      <point x="94" y="24"/>
      <point x="92" y="18"/>
      <point x="92" y="11" type="curve" smooth="yes"/>
      <point x="92" y="4"/>
      <point x="96" y="0"/>
      <point x="103" y="0" type="curve" smooth="yes"/>
      <point x="330" y="0" type="line" smooth="yes"/>
      <point x="450" y="0"/>
      <point x="529" y="61"/>
    </contour>
  </outline>
</glyph>
<glyph name="E" format="1">
  <advance width="600"/>
  <unicode hex="0045"/>
  <outline>
    <contour>
      <point x="30" y="700" type="line"/>
      <point x="30" y="677"/>
      <point x="30" y="658"/>
      <point x="30" y="634" type="curve" smooth="yes"/>
      <point x="30" y="631"/>
      <point x="31" y="628"/>
      <point x="33" y="626" type="curve" smooth="yes"/>
      <point x="35" y="624"/>
      <point x="38" y="623"/>
      <point x="41" y="623" type="curve" smooth="yes"/>
      <point x="533" y="623" type="line"/>
      <point x="533" y="647"/>
      <point x="533" y="666"/>
      <point x="533" y="689" type="curve" smooth="yes"/>
      <point x="533" y="692"/>
      <point x="532" y="695"/>
      <point x="530" y="697" type="curve" smooth="yes"/>
      <point x="528" y="699"/>
      <point x="525" y="700"/>
      <point x="522" y="700" type="curve" smooth="yes"/>
    </contour>
    <contour>
      <point x="177" y="50" type="curve"/>
      <point x="177" y="666" type="line" smooth="yes"/>
      <point x="177" y="672"/>
      <point x="172" y="677"/>
      <point x="92" y="677" type="curve"/>
      <point x="92" y="77" type="line"/>
      <point x="92" y="66"/>
      <point x="105" y="50"/>
    </contour>
    <contour>
      <point x="92" y="77" type="line"/>
      <point x="92" y="11" type="line" smooth="yes"/>
      <point x="92" y="5"/>
      <point x="97" y="0"/>
      <point x="103" y="0" type="curve" smooth="yes"/>
      <point x="533" y="0" type="line"/>
      <point x="533" y="23"/>
      <point x="533" y="42"/>
      <point x="533" y="66" type="curve" smooth="yes"/>
      <point x="533" y="72"/>
      <point x="528" y="77"/>
      <point x="522" y="77" type="curve" smooth="yes"/>
    </contour>
    <contour>
      <point x="128" y="392" type="line"/>
      <point x="128" y="321"/>
      <point x="133" y="317"/>
      <point x="139" y="317" type="curve" smooth="yes"/>
      <point x="480" y="317" type="line"/>
      <point x="480" y="338"/>
      <point x="480" y="357"/>
      <point x="480" y="381" type="curve" smooth="yes"/>
      <point x="480" y="384"/>
      <point x="479" y="387"/>
      <point x="477" y="389" type="curve" smooth="yes"/>
      <point x="475" y="391"/>
      <point x="472" y="392"/>
      <point x="469" y="392" type="curve" smooth="yes"/>
    </contour>
    <contour>
      <point x="300" y="711" type="move" name="top"/>
    </contour>
    <contour>
      <point x="534" y="0" type="move" name="ogonek"/>
    </contour>
    <contour>
      <point x="320" y="-1" type="move" name="bottom"/>
    </contour>
  </outline>
</glyph>
<glyph name="G" format="1">
  <advance width="592"/>
  <unicode hex="0047"/>
  <outline>
    <contour>
      <point x="320" y="644" type="curve" smooth="yes"/>
      <point x="398" y="644"/>
      <point x="440" y="627"/>
      <point x="487" y="584" type="curve"/>
      <point x="519" y="619"/>
      <point x="523" y="628"/>
      <point x="523" y="638" type="curve" smooth="yes"/>
      <point x="523" y="649"/>
      <point x="522" y="652"/>
      <point x="517" y="657" type="curve" smooth="yes"/>
      <point x="482" y="692"/>
      <point x="412" y="720"/>
      <point x="325" y="720" type="curve" smooth="yes"/>
      <point x="157" y="720"/>
      <point x="67" y="631"/>
      <point x="67" y="452" type="curve" smooth="yes"/>
      <point x="67" y="222" type="line" smooth="yes"/>
      <point x="67" y="176"/>
      <point x="110" y="109"/>
      <point x="150" y="109" type="curve"/>
      <point x="150" y="146"/>
      <point x="150" y="181"/>
      <point x="150" y="225" type="curve" smooth="yes"/>
      <point x="150" y="453" type="line" smooth="yes"/>
      <point x="150" y="583"/>
      <point x="203" y="644"/>
    </contour>
    <contour>
      <point x="311" y="56" type="curve" smooth="yes"/>
      <point x="210" y="56"/>
      <point x="150" y="114"/>
      <point x="150" y="225" type="curve"/>
      <point x="91" y="233"/>
      <point x="67" y="228"/>
      <point x="67" y="222" type="curve" smooth="yes"/>
      <point x="67" y="75"/>
      <point x="155" y="-20"/>
      <point x="309" y="-20" type="curve" smooth="yes"/>
      <point x="453" y="-20"/>
      <point x="524" y="48"/>
      <point x="524" y="68" type="curve" smooth="yes"/>
      <point x="524" y="298" type="line" smooth="yes"/>
      <point x="524" y="309"/>
      <point x="478" y="314"/>
      <point x="444" y="314" type="curve"/>
      <point x="444" y="242"/>
      <point x="444" y="168"/>
      <point x="444" y="96" type="curve" smooth="yes"/>
      <point x="444" y="91"/>
      <point x="395" y="56"/>
    </contour>
    <contour>
      <point x="319" y="356" type="line"/>
      <point x="319" y="334"/>
      <point x="319" y="315"/>
      <point x="319" y="294" type="curve" smooth="yes"/>
      <point x="319" y="291"/>
      <point x="320" y="288"/>
      <point x="322" y="286" type="curve" smooth="yes"/>
      <point x="324" y="284"/>
      <point x="327" y="283"/>
      <point x="330" y="283" type="curve"/>
      <point x="567" y="283" type="line"/>
      <point x="567" y="345" type="line" smooth="yes"/>
      <point x="567" y="351"/>
      <point x="562" y="356"/>
      <point x="556" y="356" type="curve" smooth="yes"/>
    </contour>
    <contour>
      <point x="523" y="497" type="curve"/>
      <point x="523" y="638" type="line" smooth="yes"/>
      <point x="523" y="649"/>
      <point x="514" y="655"/>
      <point x="445" y="655" type="curve"/>
      <point x="445" y="647"/>
      <point x="445" y="636"/>
      <point x="445" y="629" type="curve" smooth="yes"/>
      <point x="445" y="508" type="line" smooth="yes"/>
      <point x="445" y="501"/>
      <point x="449" y="497"/>
      <point x="456" y="497" type="curve" smooth="yes"/>
      <point x="478" y="497"/>
      <point x="501" y="497"/>
    </contour>
    <contour>
      <point x="317" y="711" type="move" name="top"/>
    </contour>
    <contour>
      <point x="317" y="-1" type="move" name="bottom"/>
    </contour>
  </outline>
</glyph>
<glyph name="H" format="1">
  <advance width="600"/>
  <unicode hex="0048"/>
  <outline>
    <contour>
      <point x="78" y="700" type="curve"/>
      <point x="78" y="666"/>
      <point x="78" y="632"/>
      <point x="78" y="598" type="curve" smooth="yes"/>
      <point x="78" y="11" type="line" smooth="yes"/>
      <point x="78" y="5"/>
      <point x="83" y="0"/>
      <point x="89" y="0" type="curve" smooth="yes"/>
      <point x="114" y="0"/>
      <point x="138" y="0"/>
      <point x="163" y="0" type="curve"/>
      <point x="163" y="689" type="line" smooth="yes"/>
      <point x="163" y="692"/>
      <point x="162" y="695"/>
      <point x="160" y="697" type="curve" smooth="yes"/>
      <point x="158" y="699"/>
      <point x="155" y="700"/>
      <point x="152" y="700" type="curve" smooth="yes"/>
      <point x="127" y="700"/>
      <point x="103" y="700"/>
    </contour>
    <contour>
      <point x="522" y="0" type="curve"/>
      <point x="522" y="33"/>
      <point x="522" y="68"/>
      <point x="522" y="103" type="curve" smooth="yes"/>
      <point x="522" y="689" type="line" smooth="yes"/>
      <point x="522" y="695"/>
      <point x="517" y="700"/>
      <point x="511" y="700" type="curve" smooth="yes"/>
      <point x="486" y="700"/>
      <point x="462" y="700"/>
      <point x="437" y="700" type="curve"/>
      <point x="437" y="11" type="line" smooth="yes"/>
      <point x="437" y="8"/>
      <point x="438" y="5"/>
      <point x="440" y="3" type="curve" smooth="yes"/>
      <point x="442" y="1"/>
      <point x="445" y="0"/>
      <point x="448" y="0" type="curve" smooth="yes"/>
      <point x="473" y="0"/>
      <point x="497" y="0"/>
    </contour>
    <contour>
      <point x="123" y="393" type="line"/>
      <point x="123" y="327" type="line" smooth="yes"/>
      <point x="123" y="324"/>
      <point x="124" y="321"/>
      <point x="126" y="319" type="curve" smooth="yes"/>
      <point x="128" y="317"/>
      <point x="131" y="316"/>
      <point x="134" y="316" type="curve"/>
      <point x="486" y="316" type="line"/>
      <point x="486" y="391"/>
      <point x="481" y="393"/>
      <point x="475" y="393" type="curve" smooth="yes"/>
    </contour>
    <contour>
      <point x="300" y="711" type="move" name="top"/>
    </contour>
  </outline>
</glyph>
<glyph name="I" format="1">
  <advance width="600"/>
  <unicode hex="0049"/>
  <outline>
    <contour>
      <point x="342" y="29" type="curve"/>
      <point x="342" y="660" type="line" smooth="yes"/>
      <point x="342" y="666"/>
      <point x="337" y="671"/>
      <point x="258" y="671" type="curve"/>
      <point x="258" y="40" type="line" smooth="yes"/>
      <point x="258" y="34"/>
      <point x="263" y="29"/>
    </contour>
    <contour>
      <point x="84" y="700" type="line"/>
      <point x="84" y="677"/>
      <point x="84" y="658"/>
      <point x="84" y="634" type="curve"/>
      <point x="84" y="631"/>
      <point x="85" y="628"/>
      <point x="87" y="626" type="curve" smooth="yes"/>
      <point x="89" y="624"/>
      <point x="92" y="623"/>
      <point x="95" y="623" type="curve" smooth="yes"/>
      <point x="516" y="623" type="line"/>
      <point x="516" y="647"/>
      <point x="516" y="666"/>
      <point x="516" y="689" type="curve" smooth="yes"/>
      <point x="516" y="695"/>
      <point x="511" y="700"/>
      <point x="505" y="700" type="curve" smooth="yes"/>
    </contour>
    <contour>
      <point x="84" y="77" type="line"/>
      <point x="84" y="53"/>
      <point x="84" y="34"/>
      <point x="84" y="11" type="curve"/>
      <point x="84" y="8"/>
      <point x="85" y="5"/>
      <point x="87" y="3" type="curve" smooth="yes"/>
      <point x="89" y="1"/>
      <point x="92" y="0"/>
      <point x="95" y="0" type="curve" smooth="yes"/>
      <point x="516" y="0" type="line"/>
      <point x="516" y="23"/>
      <point x="516" y="43"/>
      <point x="516" y="66" type="curve" smooth="yes"/>
      <point x="516" y="72"/>
      <point x="511" y="77"/>
      <point x="505" y="77" type="curve" smooth="yes"/>
    </contour>
    <contour>
      <point x="300" y="711" type="move" name="top"/>
    </contour>
    <contour>
      <point x="517" y="0" type="move" name="ogonek"/>
    </contour>
    <contour>
      <point x="300" y="-1" type="move" name="bottom"/>
    </contour>
  </outline>
</glyph>
<glyph name="J" format="1">
  <advance width="600"/>
  <unicode hex="004A"/>
  <outline>
    <contour>
      <point x="134" y="700" type="line"/>
      <point x="134" y="677"/>
      <point x="134" y="658"/>
      <point x="134" y="634" type="curve" smooth="yes"/>
      <point x="134" y="631"/>
      <point x="135" y="628"/>
      <point x="137" y="626" type="curve" smooth="yes"/>
      <point x="139" y="624"/>
      <point x="142" y="623"/>
      <point x="145" y="623" type="curve" smooth="yes"/>
      <point x="457" y="623" type="line"/>
      <point x="457" y="666"/>
      <point x="448" y="700"/>
      <point x="426" y="700" type="curve"/>
    </contour>
    <contour>
      <point x="496" y="228" type="curve" smooth="yes"/>
      <point x="496" y="689" type="line" smooth="yes"/>
      <point x="496" y="696"/>
      <point x="493" y="700"/>
      <point x="485" y="700" type="curve" smooth="yes"/>
      <point x="410" y="700" type="line"/>
      <point x="410" y="223" type="line" smooth="yes"/>
      <point x="410" y="169"/>
      <point x="410" y="143"/>
      <point x="410" y="109" type="curve"/>
      <point x="470" y="109"/>
      <point x="496" y="158"/>
    </contour>
    <contour>
      <point x="256" y="58" type="curve" smooth="yes"/>
      <point x="205" y="58"/>
      <point x="163" y="70"/>
      <point x="115" y="99" type="curve"/>
      <point x="101" y="99" type="line"/>
      <point x="101" y="73"/>
      <point x="101" y="54"/>
      <point x="101" y="30" type="curve"/>
      <point x="101" y="26"/>
      <point x="102" y="24"/>
      <point x="104" y="22" type="curve" smooth="yes"/>
      <point x="125" y="1"/>
      <point x="189" y="-20"/>
      <point x="250" y="-20" type="curve" smooth="yes"/>
      <point x="262" y="-20" type="line" smooth="yes"/>
      <point x="423" y="-20"/>
      <point x="496" y="83"/>
      <point x="496" y="228" type="curve"/>
      <point x="496" y="238"/>
      <point x="491" y="247"/>
      <point x="410" y="223" type="curve"/>
      <point x="410" y="115"/>
      <point x="364" y="58"/>
    </contour>
    <contour>
      <point x="298" y="711" type="move" name="top"/>
    </contour>
  </outline>
</glyph>
<glyph name="M" format="1">
  <advance width="600"/>
  <unicode hex="004D"/>
  <outline>
    <contour>
      <point x="148" y="0" type="curve"/>
      <point x="148" y="54"/>
      <point x="148" y="108"/>
      <point x="148" y="162" type="curve" smooth="yes"/>
      <point x="148" y="294"/>
      <point x="135" y="548"/>
      <point x="135" y="689" type="curve" smooth="yes"/>
      <point x="135" y="692"/>
      <point x="134" y="695"/>
      <point x="132" y="697" type="curve" smooth="yes"/>
      <point x="130" y="699"/>
      <point x="127" y="700"/>
      <point x="124" y="700" type="curve" smooth="yes"/>
      <point x="105" y="700"/>
      <point x="82" y="700"/>
      <point x="66" y="700" type="curve"/>
      <point x="66" y="667"/>
      <point x="66" y="633"/>
      <point x="66" y="600" type="curve" smooth="yes"/>
      <point x="66" y="11" type="line" smooth="yes"/>
      <point x="66" y="8"/>
      <point x="67" y="5"/>
      <point x="69" y="3" type="curve" smooth="yes"/>
      <point x="71" y="1"/>
      <point x="74" y="0"/>
      <point x="77" y="0" type="curve" smooth="yes"/>
      <point x="101" y="0"/>
      <point x="124" y="0"/>
    </contour>
    <contour>
      <point x="534" y="0" type="curve"/>
      <point x="534" y="34"/>
      <point x="534" y="68"/>
      <point x="534" y="101" type="curve" smooth="yes"/>
      <point x="534" y="689" type="line" smooth="yes"/>
      <point x="534" y="692"/>
      <point x="533" y="695"/>
      <point x="531" y="697" type="curve" smooth="yes"/>
      <point x="529" y="699"/>
      <point x="526" y="700"/>
      <point x="523" y="700" type="curve" smooth="yes"/>
      <point x="465" y="700" type="line"/>
      <point x="465" y="697"/>
      <point x="465" y="695"/>
      <point x="465" y="692" type="curve" smooth="yes"/>
      <point x="465" y="608"/>
      <point x="452" y="291"/>
      <point x="452" y="162" type="curve" smooth="yes"/>
      <point x="452" y="112"/>
      <point x="452" y="61"/>
      <point x="452" y="11" type="curve" smooth="yes"/>
      <point x="452" y="8"/>
      <point x="453" y="5"/>
      <point x="455" y="3" type="curve" smooth="yes"/>
      <point x="457" y="1"/>
      <point x="460" y="0"/>
      <point x="463" y="0" type="curve"/>
      <point x="487" y="0"/>
      <point x="510" y="0"/>
    </contour>
    <contour>
      <point x="84" y="700" type="line"/>
      <point x="152" y="522"/>
      <point x="218" y="345"/>
      <point x="286" y="168" type="curve"/>
      <point x="288" y="163"/>
      <point x="293" y="161"/>
      <point x="297" y="161" type="curve"/>
      <point x="308" y="161"/>
      <point x="311" y="223"/>
      <point x="311" y="278" type="curve"/>
      <point x="260" y="415"/>
      <point x="210" y="551"/>
      <point x="159" y="688" type="curve"/>
      <point x="156" y="697"/>
      <point x="151" y="700"/>
      <point x="144" y="700" type="curve"/>
    </contour>
    <contour>
      <point x="472" y="700" type="curve" smooth="yes"/>
      <point x="464" y="700"/>
      <point x="456" y="700"/>
      <point x="448" y="700" type="curve"/>
      <point x="396" y="560"/>
      <point x="341" y="415"/>
      <point x="289" y="276" type="curve"/>
      <point x="275" y="235"/>
      <point x="287" y="161"/>
      <point x="297" y="161" type="curve"/>
      <point x="308" y="161" type="line"/>
      <point x="373" y="326"/>
      <point x="438" y="491"/>
      <point x="502" y="657" type="curve"/>
      <point x="511" y="680"/>
      <point x="499" y="700"/>
    </contour>
  </outline>
</glyph>
<glyph name="N" format="1">
  <advance width="600"/>
  <unicode hex="004E"/>
  <outline>
    <contour>
      <point x="156" y="0" type="curve"/>
      <point x="156" y="525" type="line"/>
      <point x="156" y="539"/>
      <point x="144" y="694"/>
      <point x="141" y="697" type="curve" smooth="yes"/>
      <point x="139" y="699"/>
      <point x="136" y="700"/>
      <point x="133" y="700" type="curve"/>
      <point x="116" y="700"/>
      <point x="86" y="700"/>
      <point x="75" y="700" type="curve"/>
      <point x="75" y="653"/>
      <point x="75" y="607"/>
      <point x="75" y="560" type="curve" smooth="yes"/>
      <point x="75" y="11" type="line"/>
      <point x="75" y="5"/>
      <point x="80" y="0"/>
      <point x="86" y="0" type="curve"/>
      <point x="109" y="0"/>
      <point x="133" y="0"/>
    </contour>
    <contour>
      <point x="525" y="0" type="line"/>
      <point x="525" y="689" type="line"/>
      <point x="525" y="695"/>
      <point x="520" y="700"/>
      <point x="514" y="700" type="curve"/>
      <point x="444" y="700" type="line"/>
      <point x="444" y="161" type="line"/>
      <point x="444" y="151"/>
      <point x="457" y="5"/>
      <point x="459" y="3" type="curve" smooth="yes"/>
      <point x="461" y="1"/>
      <point x="464" y="0"/>
      <point x="467" y="0" type="curve"/>
    </contour>
    <contour>
      <point x="133" y="700" type="line"/>
      <point x="101" y="694"/>
      <point x="102" y="681"/>
      <point x="108" y="668" type="curve" smooth="yes"/>
      <point x="216" y="448"/>
      <point x="323" y="227"/>
      <point x="431" y="7" type="curve"/>
      <point x="434" y="2"/>
      <point x="437" y="0"/>
      <point x="444" y="0" type="curve" smooth="yes"/>
      <point x="462" y="0"/>
      <point x="463" y="0"/>
      <point x="480" y="0" type="curve"/>
      <point x="484" y="8"/>
      <point x="483" y="51"/>
      <point x="477" y="79" type="curve"/>
      <point x="378" y="282"/>
      <point x="278" y="488"/>
      <point x="181" y="690" type="curve"/>
      <point x="177" y="698"/>
      <point x="173" y="700"/>
      <point x="164" y="700" type="curve"/>
    </contour>
    <contour>
      <point x="300" y="711" type="move" name="top"/>
    </contour>
    <contour>
      <point x="300" y="-1" type="move" name="bottom"/>
    </contour>
  </outline>
</glyph>
<glyph name="O" format="1">
  <advance width="600"/>
  <unicode hex="004F"/>
  <outline>
    <contour>
      <point x="298" y="720" type="curve" smooth="yes"/>
      <point x="167" y="720"/>
      <point x="63" y="636"/>
      <point x="63" y="470" type="curve" smooth="yes"/>
      <point x="63" y="219" type="line" smooth="yes"/>
      <point x="63" y="61"/>
      <point x="154" y="-20"/>
      <point x="301" y="-20" type="curve" smooth="yes"/>
      <point x="314" y="-20"/>
      <point x="321" y="-7"/>
      <point x="300" y="57" type="curve"/>
      <point x="172" y="57"/>
      <point x="145" y="139"/>
      <point x="145" y="223" type="curve" smooth="yes"/>
      <point x="145" y="469" type="line" smooth="yes"/>
      <point x="145" y="575"/>
      <point x="194" y="643"/>
      <point x="300" y="643" type="curve" smooth="yes"/>
      <point x="343" y="643"/>
      <point x="369" y="643"/>
      <point x="390" y="643" type="curve"/>
      <point x="390" y="687"/>
      <point x="373" y="720"/>
    </contour>
    <contour>
      <point x="301" y="-20" type="curve" smooth="yes"/>
      <point x="433" y="-20"/>
      <point x="536" y="64"/>
      <point x="536" y="230" type="curve" smooth="yes"/>
      <point x="536" y="481" type="line" smooth="yes"/>
      <point x="536" y="640"/>
      <point x="446" y="720"/>
      <point x="298" y="720" type="curve" smooth="yes"/>
      <point x="286" y="720"/>
      <point x="279" y="707"/>
      <point x="300" y="643" type="curve"/>
      <point x="427" y="643"/>
      <point x="455" y="560"/>
      <point x="455" y="477" type="curve" smooth="yes"/>
      <point x="455" y="231" type="line" smooth="yes"/>
      <point x="455" y="125"/>
      <point x="406" y="57"/>
      <point x="300" y="57" type="curve" smooth="yes"/>
      <point x="257" y="57"/>
      <point x="231" y="57"/>
      <point x="210" y="57" type="curve"/>
      <point x="210" y="13"/>
      <point x="227" y="-20"/>
    </contour>
    <contour>
      <point x="300" y="711" type="move" name="top"/>
    </contour>
    <contour>
      <point x="404" y="9" type="move" name="ogonek"/>
    </contour>
    <contour>
      <point x="300" y="-1" type="move" name="bottom"/>
    </contour>
  </outline>
</glyph>
<glyph name="P" format="1">
  <advance width="600"/>
  <unicode hex="0050"/>
  <outline>
    <contour>
      <point x="175" y="0" type="curve"/>
      <point x="175" y="32"/>
      <point x="175" y="66"/>
      <point x="175" y="100" type="curve" smooth="yes"/>
      <point x="175" y="660" type="line" smooth="yes"/>
      <point x="175" y="666"/>
      <point x="170" y="671"/>
      <point x="92" y="671" type="curve"/>
      <point x="92" y="11" type="line" smooth="yes"/>
      <point x="92" y="8"/>
      <point x="93" y="5"/>
      <point x="95" y="3" type="curve" smooth="yes"/>
      <point x="97" y="1"/>
      <point x="100" y="0"/>
      <point x="103" y="0" type="curve" smooth="yes"/>
      <point x="127" y="0"/>
      <point x="151" y="0"/>
    </contour>
    <contour>
      <point x="33" y="700" type="curve"/>
      <point x="33" y="677"/>
      <point x="33" y="658"/>
      <point x="33" y="634" type="curve"/>
      <point x="33" y="631"/>
      <point x="34" y="628"/>
      <point x="36" y="626" type="curve" smooth="yes"/>
      <point x="38" y="624"/>
      <point x="41" y="623"/>
      <point x="44" y="623" type="curve" smooth="yes"/>
      <point x="62" y="623"/>
      <point x="83" y="623"/>
      <point x="108" y="623" type="curve" smooth="yes"/>
      <point x="162" y="623"/>
      <point x="258" y="623"/>
      <point x="310" y="623" type="curve" smooth="yes"/>
      <point x="363" y="623"/>
      <point x="375" y="623"/>
      <point x="402" y="623" type="curve"/>
      <point x="402" y="667"/>
      <point x="376" y="700"/>
      <point x="309" y="700" type="curve" smooth="yes"/>
      <point x="235" y="700"/>
      <point x="124" y="700"/>
    </contour>
    <contour>
      <point x="538" y="440" type="curve" smooth="yes"/>
      <point x="538" y="508" type="line" smooth="yes"/>
      <point x="538" y="654"/>
      <point x="441" y="700"/>
      <point x="309" y="700" type="curve"/>
      <point x="308" y="700"/>
      <point x="291" y="685"/>
      <point x="310" y="623" type="curve"/>
      <point x="410" y="623"/>
      <point x="452" y="590"/>
      <point x="452" y="511" type="curve" smooth="yes"/>
      <point x="452" y="443" type="line" smooth="yes"/>
      <point x="452" y="368"/>
      <point x="406" y="325"/>
      <point x="318" y="325" type="curve" smooth="yes"/>
      <point x="265" y="325"/>
      <point x="204" y="325"/>
      <point x="149" y="325" type="curve"/>
      <point x="149" y="300"/>
      <point x="149" y="286"/>
      <point x="149" y="259" type="curve" smooth="yes"/>
      <point x="149" y="253"/>
      <point x="154" y="248"/>
      <point x="160" y="248" type="curve" smooth="yes"/>
      <point x="323" y="248" type="line" smooth="yes"/>
      <point x="457" y="248"/>
      <point x="538" y="320"/>
    </contour>
  </outline>
</glyph>
<glyph name="Q" format="1">
  <advance width="600"/>
  <unicode hex="0051"/>
  <outline>
    <contour>
      <point x="298" y="720" type="curve" smooth="yes"/>
      <point x="167" y="720"/>
      <point x="63" y="636"/>
      <point x="63" y="470" type="curve" smooth="yes"/>
      <point x="63" y="219" type="line" smooth="yes"/>
      <point x="63" y="61"/>
      <point x="154" y="-20"/>
      <point x="301" y="-20" type="curve" smooth="yes"/>
      <point x="314" y="-20"/>
      <point x="321" y="-7"/>
      <point x="300" y="57" type="curve"/>
      <point x="172" y="57"/>
      <point x="145" y="140"/>
      <point x="145" y="223" type="curve" smooth="yes"/>
      <point x="145" y="469" type="line" smooth="yes"/>
      <point x="145" y="575"/>
      <point x="194" y="643"/>
      <point x="300" y="643" type="curve" smooth="yes"/>
      <point x="343" y="643"/>
      <point x="369" y="643"/>
      <point x="390" y="643" type="curve"/>
      <point x="390" y="687"/>
      <point x="373" y="720"/>
    </contour>
    <contour>
      <point x="301" y="-20" type="curve" smooth="yes"/>
      <point x="433" y="-20"/>
      <point x="536" y="64"/>
      <point x="536" y="230" type="curve" smooth="yes"/>
      <point x="536" y="481" type="line" smooth="yes"/>
      <point x="536" y="640"/>
      <point x="446" y="720"/>
      <point x="298" y="720" type="curve" smooth="yes"/>
      <point x="286" y="720"/>
      <point x="279" y="707"/>
      <point x="300" y="643" type="curve"/>
      <point x="427" y="643"/>
      <point x="455" y="560"/>
      <point x="455" y="477" type="curve" smooth="yes"/>
      <point x="455" y="231" type="line" smooth="yes"/>
      <point x="455" y="125"/>
      <point x="406" y="57"/>
      <point x="300" y="57" type="curve" smooth="yes"/>
      <point x="257" y="57"/>
      <point x="231" y="57"/>
      <point x="210" y="57" type="curve"/>
      <point x="210" y="13"/>
      <point x="227" y="-20"/>
    </contour>
    <contour>
      <point x="413" y="67" type="line"/>
      <point x="349" y="37"/>
      <point x="341" y="31"/>
      <point x="349" y="19" type="curve" smooth="yes"/>
      <point x="427" y="-94" type="line" smooth="yes"/>
      <point x="456" y="-136"/>
      <point x="480" y="-153"/>
      <point x="531" y="-153" type="curve" smooth="yes"/>
      <point x="558" y="-153" type="line" smooth="yes"/>
      <point x="565" y="-153"/>
      <point x="569" y="-149"/>
      <point x="569" y="-142" type="curve" smooth="yes"/>
      <point x="569" y="-118"/>
      <point x="569" y="-93"/>
      <point x="569" y="-69" type="curve"/>
      <point x="560" y="-69" type="line"/>
      <point x="555" y="-69"/>
      <point x="550" y="-69"/>
      <point x="542" y="-69" type="curve" smooth="yes"/>
      <point x="517" y="-69"/>
      <point x="505" y="-64"/>
      <point x="487" y="-40" type="curve" smooth="yes"/>
    </contour>
  </outline>
</glyph>
<glyph name="R" format="1">
  <advance width="600"/>
  <unicode hex="0052"/>
  <outline>
    <contour>
      <point x="175" y="0" type="curve"/>
      <point x="175" y="32"/>
      <point x="175" y="66"/>
      <point x="175" y="100" type="curve" smooth="yes"/>
      <point x="175" y="660" type="line" smooth="yes"/>
      <point x="175" y="666"/>
      <point x="170" y="671"/>
      <point x="92" y="671" type="curve"/>
      <point x="92" y="11" type="line" smooth="yes"/>
      <point x="92" y="8"/>
      <point x="93" y="5"/>
      <point x="95" y="3" type="curve" smooth="yes"/>
      <point x="97" y="1"/>
      <point x="100" y="0"/>
      <point x="103" y="0" type="curve" smooth="yes"/>
      <point x="127" y="0"/>
      <point x="151" y="0"/>
    </contour>
    <contour>
      <point x="33" y="700" type="curve"/>
      <point x="33" y="677"/>
      <point x="33" y="658"/>
      <point x="33" y="634" type="curve"/>
      <point x="33" y="631"/>
      <point x="34" y="628"/>
      <point x="36" y="626" type="curve" smooth="yes"/>
      <point x="38" y="624"/>
      <point x="41" y="623"/>
      <point x="44" y="623" type="curve" smooth="yes"/>
      <point x="62" y="623"/>
      <point x="83" y="623"/>
      <point x="108" y="623" type="curve" smooth="yes"/>
      <point x="162" y="623"/>
      <point x="257" y="623"/>
      <point x="309" y="623" type="curve" smooth="yes"/>
      <point x="362" y="623"/>
      <point x="375" y="623"/>
      <point x="402" y="623" type="curve"/>
      <point x="402" y="667"/>
      <point x="376" y="700"/>
      <point x="309" y="700" type="curve" smooth="yes"/>
      <point x="235" y="700"/>
      <point x="124" y="700"/>
    </contour>
    <contour>
      <point x="521" y="462" type="curve" smooth="yes"/>
      <point x="521" y="510" type="line" smooth="yes"/>
      <point x="521" y="655"/>
      <point x="432" y="700"/>
      <point x="309" y="700" type="curve"/>
      <point x="309" y="700"/>
      <point x="290" y="685"/>
      <point x="309" y="623" type="curve"/>
      <point x="397" y="623"/>
      <point x="436" y="589"/>
      <point x="436" y="513" type="curve" smooth="yes"/>
      <point x="436" y="465" type="line" smooth="yes"/>
      <point x="436" y="388"/>
      <point x="395" y="348"/>
      <point x="312" y="348" type="curve" smooth="yes"/>
      <point x="260" y="348"/>
      <point x="202" y="348"/>
      <point x="149" y="348" type="curve"/>
      <point x="149" y="324"/>
      <point x="149" y="311"/>
      <point x="149" y="285" type="curve" smooth="yes"/>
      <point x="149" y="279"/>
      <point x="154" y="274"/>
      <point x="160" y="274" type="curve" smooth="yes"/>
      <point x="321" y="274" type="line" smooth="yes"/>
      <point x="446" y="274"/>
      <point x="521" y="344"/>
    </contour>
    <contour>
      <point x="360" y="332" type="line"/>
      <point x="292" y="309"/>
      <point x="287" y="302"/>
      <point x="293" y="290" type="curve" smooth="yes"/>
      <point x="406" y="71" type="line" smooth="yes"/>
      <point x="434" y="18"/>
      <point x="465" y="-3"/>
      <point x="517" y="-3" type="curve" smooth="yes"/>
      <point x="549" y="-3" type="line" smooth="yes"/>
      <point x="556" y="-3"/>
      <point x="560" y="1"/>
      <point x="560" y="8" type="curve" smooth="yes"/>
      <point x="560" y="31"/>
      <point x="560" y="53"/>
      <point x="560" y="76" type="curve"/>
      <point x="552" y="76" type="line"/>
      <point x="547" y="76"/>
      <point x="542" y="76"/>
      <point x="534" y="76" type="curve" smooth="yes"/>
      <point x="506" y="76"/>
      <point x="492" y="84"/>
      <point x="475" y="115" type="curve" smooth="yes"/>
    </contour>
    <contour>
      <point x="297" y="711" type="move" name="top"/>
    </contour>
    <contour>
      <point x="297" y="-1" type="move" name="bottom"/>
    </contour>
  </outline>
</glyph>
<glyph name="T" format="1">
  <advance width="600"/>
  <unicode hex="0054"/>
  <outline>
    <contour>
      <point x="57" y="700" type="line"/>
      <point x="57" y="678"/>
      <point x="57" y="657"/>
      <point x="57" y="634" type="curve" smooth="yes"/>
      <point x="57" y="631"/>
      <point x="58" y="628"/>
      <point x="60" y="626" type="curve" smooth="yes"/>
      <point x="62" y="624"/>
      <point x="65" y="623"/>
      <point x="68" y="623" type="curve" smooth="yes"/>
      <point x="543" y="623" type="line"/>
      <point x="543" y="646"/>
      <point x="543" y="667"/>
      <point x="543" y="689" type="curve" smooth="yes"/>
      <point x="543" y="695"/>
      <point x="538" y="700"/>
      <point x="532" y="700" type="curve" smooth="yes"/>
    </contour>
    <contour>
      <point x="342" y="0" type="curve"/>
      <point x="342" y="32"/>
      <point x="342" y="66"/>
      <point x="342" y="100" type="curve" smooth="yes"/>
      <point x="342" y="660" type="line" smooth="yes"/>
      <point x="342" y="666"/>
      <point x="337" y="671"/>
      <point x="258" y="671" type="curve"/>
      <point x="258" y="11" type="line" smooth="yes"/>
      <point x="258" y="8"/>
      <point x="259" y="5"/>
      <point x="261" y="3" type="curve" smooth="yes"/>
      <point x="263" y="1"/>
      <point x="266" y="0"/>
      <point x="269" y="0" type="curve" smooth="yes"/>
      <point x="293" y="0"/>
      <point x="318" y="0"/>
    </contour>
    <contour>
      <point x="300" y="711" type="move" name="top"/>
    </contour>
    <contour>
      <point x="300" y="-1" type="move" name="bottom"/>
    </contour>
  </outline>
</glyph>
<glyph name="V" format="1">
  <advance width="600"/>
  <unicode hex="0056"/>
  <outline>
    <contour>
      <point x="111" y="700" type="curve"/>
      <point x="34" y="700" type="line"/>
      <point x="100" y="469"/>
      <point x="165" y="237"/>
      <point x="231" y="5" type="curve" smooth="yes"/>
      <point x="233" y="-3"/>
      <point x="240" y="-7"/>
      <point x="246" y="-7" type="curve" smooth="yes"/>
      <point x="270" y="-7" type="line" smooth="yes"/>
      <point x="295" y="-7"/>
      <point x="330" y="16"/>
      <point x="342" y="67" type="curve"/>
      <point x="325" y="67"/>
      <point x="316" y="67"/>
      <point x="304" y="67" type="curve" smooth="yes"/>
      <point x="297" y="67"/>
      <point x="296" y="68"/>
      <point x="292" y="79" type="curve"/>
      <point x="235" y="282"/>
      <point x="178" y="488"/>
      <point x="122" y="691" type="curve"/>
      <point x="120" y="697"/>
      <point x="116" y="700"/>
    </contour>
    <contour>
      <point x="555" y="700" type="curve"/>
      <point x="481" y="700" type="line"/>
      <point x="421" y="482"/>
      <point x="361" y="263"/>
      <point x="302" y="50" type="curve"/>
      <point x="292" y="12"/>
      <point x="274" y="0"/>
      <point x="260" y="-7" type="curve"/>
      <point x="367" y="-7" type="line"/>
      <point x="433" y="224"/>
      <point x="498" y="455"/>
      <point x="563" y="686" type="curve"/>
      <point x="565" y="694"/>
      <point x="562" y="700"/>
    </contour>
  </outline>
</glyph>
<glyph name="W" format="1">
  <advance width="600"/>
  <unicode hex="0057"/>
  <outline>
    <contour>
      <point x="28" y="700" type="curve"/>
      <point x="58" y="469"/>
      <point x="89" y="237"/>
      <point x="119" y="5" type="curve"/>
      <point x="120" y="-3"/>
      <point x="128" y="-7"/>
      <point x="134" y="-7" type="curve"/>
      <point x="154" y="-7" type="line" smooth="yes"/>
      <point x="168" y="-7"/>
      <point x="183" y="7"/>
      <point x="185" y="21" type="curve"/>
      <point x="160" y="243"/>
      <point x="136" y="466"/>
      <point x="112" y="687" type="curve"/>
      <point x="111" y="694"/>
      <point x="110" y="696"/>
      <point x="109" y="698" type="curve" smooth="yes"/>
      <point x="107" y="699"/>
      <point x="105" y="700"/>
      <point x="102" y="700" type="curve"/>
      <point x="77" y="700"/>
      <point x="53" y="700"/>
    </contour>
    <contour>
      <point x="490" y="700" type="curve"/>
      <point x="466" y="481"/>
      <point x="441" y="262"/>
      <point x="417" y="43" type="curve"/>
      <point x="413" y="12"/>
      <point x="406" y="3"/>
      <point x="397" y="-7" type="curve"/>
      <point x="478" y="-7" type="line"/>
      <point x="509" y="224"/>
      <point x="539" y="457"/>
      <point x="570" y="688" type="curve"/>
      <point x="571" y="693"/>
      <point x="570" y="696"/>
      <point x="568" y="698" type="curve" smooth="yes"/>
      <point x="567" y="699"/>
      <point x="565" y="700"/>
      <point x="561" y="700" type="curve"/>
      <point x="537" y="700"/>
      <point x="514" y="700"/>
    </contour>
    <contour>
      <point x="311" y="591" type="curve"/>
      <point x="266" y="591" type="line"/>
      <point x="234" y="409"/>
      <point x="203" y="225"/>
      <point x="171" y="43" type="curve"/>
      <point x="163" y="10"/>
      <point x="151" y="3"/>
      <point x="134" y="-7" type="curve"/>
      <point x="221" y="-7" type="line"/>
      <point x="254" y="185"/>
      <point x="288" y="379"/>
      <point x="321" y="571" type="curve"/>
      <point x="323" y="585"/>
      <point x="320" y="591"/>
    </contour>
    <contour>
      <point x="329" y="591" type="curve"/>
      <point x="277" y="591" type="line"/>
      <point x="310" y="396"/>
      <point x="343" y="200"/>
      <point x="376" y="5" type="curve"/>
      <point x="378" y="-3"/>
      <point x="385" y="-7"/>
      <point x="392" y="-7" type="curve"/>
      <point x="414" y="-7" type="line"/>
      <point x="424" y="-7"/>
      <point x="435" y="3"/>
      <point x="433" y="19" type="curve"/>
      <point x="402" y="205"/>
      <point x="371" y="394"/>
      <point x="339" y="581" type="curve"/>
      <point x="337" y="589"/>
      <point x="334" y="591"/>
    </contour>
    <contour>
      <point x="298" y="711" type="move" name="top"/>
    </contour>
  </outline>
</glyph>
<glyph name="X" format="1">
  <advance width="600"/>
  <unicode hex="0058"/>
  <outline>
    <contour>
      <point x="490" y="0" type="curve" smooth="yes"/>
      <point x="517" y="0"/>
      <point x="546" y="0"/>
      <point x="573" y="0" type="curve"/>
      <point x="496" y="124"/>
      <point x="418" y="248"/>
      <point x="344" y="366" type="curve" smooth="yes"/>
      <point x="334" y="384"/>
      <point x="322" y="389"/>
      <point x="314" y="403" type="curve" smooth="yes"/>
      <point x="256" y="495"/>
      <point x="196" y="593"/>
      <point x="135" y="688" type="curve" smooth="yes"/>
      <point x="130" y="695"/>
      <point x="124" y="700"/>
      <point x="115" y="700" type="curve" smooth="yes"/>
      <point x="30" y="700" type="line"/>
      <point x="105" y="579"/>
      <point x="182" y="457"/>
      <point x="256" y="340" type="curve" smooth="yes"/>
      <point x="264" y="325"/>
      <point x="278" y="318"/>
      <point x="287" y="301" type="curve" smooth="yes"/>
      <point x="345" y="209"/>
      <point x="406" y="110"/>
      <point x="467" y="12" type="curve" smooth="yes"/>
      <point x="472" y="5"/>
      <point x="481" y="0"/>
    </contour>
    <contour>
      <point x="551" y="700" type="curve"/>
      <point x="478" y="700" type="line"/>
      <point x="410" y="590"/>
      <point x="344" y="481"/>
      <point x="276" y="371" type="curve"/>
      <point x="264" y="353"/>
      <point x="280" y="338"/>
      <point x="333" y="322" type="curve"/>
      <point x="408" y="442"/>
      <point x="484" y="561"/>
      <point x="560" y="681" type="curve"/>
      <point x="563" y="687"/>
      <point x="564" y="693"/>
      <point x="560" y="697" type="curve" smooth="yes"/>
      <point x="558" y="699"/>
      <point x="555" y="700"/>
    </contour>
    <contour>
      <point x="43" y="0" type="curve" smooth="yes"/>
      <point x="116" y="0" type="line"/>
      <point x="183" y="110"/>
      <point x="250" y="219"/>
      <point x="317" y="329" type="curve"/>
      <point x="329" y="347"/>
      <point x="312" y="362"/>
      <point x="260" y="378" type="curve"/>
      <point x="185" y="258"/>
      <point x="109" y="139"/>
      <point x="34" y="19" type="curve"/>
      <point x="30" y="13"/>
      <point x="30" y="6"/>
      <point x="34" y="3" type="curve" smooth="yes"/>
      <point x="36" y="1"/>
      <point x="39" y="0"/>
    </contour>
  </outline>
</glyph>
<glyph name="Y" format="1">
  <advance width="600"/>
  <unicode hex="0059"/>
  <outline>
    <contour>
      <point x="33" y="700" type="line"/>
      <point x="109" y="556"/>
      <point x="186" y="412"/>
      <point x="262" y="268" type="curve"/>
      <point x="265" y="263"/>
      <point x="272" y="261"/>
      <point x="279" y="261" type="curve"/>
      <point x="306" y="261"/>
      <point x="321" y="299"/>
      <point x="316" y="327" type="curve"/>
      <point x="254" y="447"/>
      <point x="192" y="568"/>
      <point x="131" y="688" type="curve"/>
      <point x="128" y="695"/>
      <point x="124" y="700"/>
      <point x="114" y="700" type="curve" smooth="yes"/>
    </contour>
    <contour>
      <point x="477" y="700" type="line"/>
      <point x="414" y="575"/>
      <point x="351" y="450"/>
      <point x="287" y="325" type="curve"/>
      <point x="273" y="292"/>
      <point x="279" y="269"/>
      <point x="279" y="261" type="curve"/>
      <point x="335" y="261" type="line"/>
      <point x="410" y="402"/>
      <point x="486" y="544"/>
      <point x="562" y="685" type="curve"/>
      <point x="565" y="693"/>
      <point x="560" y="700"/>
      <point x="553" y="700" type="curve"/>
    </contour>
    <contour>
      <point x="342" y="0" type="curve"/>
      <point x="342" y="32"/>
      <point x="342" y="66"/>
      <point x="342" y="100" type="curve" smooth="yes"/>
      <point x="342" y="303" type="line" smooth="yes"/>
      <point x="342" y="309"/>
      <point x="337" y="314"/>
      <point x="258" y="314" type="curve"/>
      <point x="258" y="11" type="line" smooth="yes"/>
      <point x="258" y="8"/>
      <point x="259" y="5"/>
      <point x="261" y="3" type="curve" smooth="yes"/>
      <point x="263" y="1"/>
      <point x="266" y="0"/>
      <point x="269" y="0" type="curve" smooth="yes"/>
      <point x="293" y="0"/>
      <point x="318" y="0"/>
    </contour>
    <contour>
      <point x="300" y="711" type="move" name="top"/>
    </contour>
  </outline>
</glyph>
<glyph name="Z" format="1">
  <advance width="600"/>
  <unicode hex="005A"/>
  <outline>
    <contour>
      <point x="93" y="700" type="line"/>
      <point x="93" y="677"/>
      <point x="93" y="658"/>
      <point x="93" y="634" type="curve" smooth="yes"/>
      <point x="93" y="631"/>
      <point x="94" y="628"/>
      <point x="96" y="626" type="curve" smooth="yes"/>
      <point x="98" y="624"/>
      <point x="101" y="623"/>
      <point x="104" y="623" type="curve" smooth="yes"/>
      <point x="444" y="623" type="line" smooth="yes"/>
      <point x="465" y="623"/>
      <point x="501" y="624"/>
      <point x="528" y="627" type="curve" smooth="yes"/>
      <point x="535" y="628"/>
      <point x="541" y="628"/>
      <point x="543" y="628" type="curve"/>
      <point x="543" y="689" type="line" smooth="yes"/>
      <point x="543" y="695"/>
      <point x="538" y="700"/>
      <point x="532" y="700" type="curve" smooth="yes"/>
    </contour>
    <contour>
      <point x="468" y="658" type="curve"/>
      <point x="332" y="465"/>
      <point x="193" y="266"/>
      <point x="57" y="72" type="curve"/>
      <point x="126" y="44"/>
      <point x="137" y="45"/>
      <point x="142" y="52" type="curve" smooth="yes"/>
      <point x="326" y="311"/>
      <point x="543" y="627"/>
      <point x="543" y="628" type="curve"/>
      <point x="482" y="664"/>
      <point x="475" y="666"/>
    </contour>
    <contour>
      <point x="545" y="0" type="line"/>
      <point x="545" y="23"/>
      <point x="545" y="42"/>
      <point x="545" y="66" type="curve" smooth="yes"/>
      <point x="545" y="69"/>
      <point x="544" y="72"/>
      <point x="542" y="74" type="curve" smooth="yes"/>
      <point x="540" y="76"/>
      <point x="537" y="77"/>
      <point x="534" y="77" type="curve" smooth="yes"/>
      <point x="158" y="77" type="line" smooth="yes"/>
      <point x="127" y="77"/>
      <point x="89" y="76"/>
      <point x="57" y="72" type="curve"/>
      <point x="57" y="11" type="line" smooth="yes"/>
      <point x="57" y="5"/>
      <point x="62" y="0"/>
      <point x="68" y="0" type="curve" smooth="yes"/>
    </contour>
    <contour>
      <point x="152" y="534" type="curve"/>
      <point x="152" y="581"/>
      <point x="152" y="628"/>
      <point x="152" y="675" type="curve"/>
      <point x="152" y="694"/>
      <point x="144" y="700"/>
      <point x="128" y="700" type="curve" smooth="yes"/>
      <point x="71" y="700" type="line"/>
      <point x="71" y="648"/>
      <point x="71" y="597"/>
      <point x="71" y="545" type="curve"/>
      <point x="71" y="539"/>
      <point x="76" y="534"/>
      <point x="82" y="534" type="curve" smooth="yes"/>
      <point x="105" y="534"/>
      <point x="129" y="534"/>
    </contour>
    <contour>
      <point x="300" y="711" type="move" name="top"/>
    </contour>
  </outline>
</glyph>
<glyph name="bracketleft" format="1">
  <advance width="600"/>
  <unicode hex="005B"/>
  <outline>
    <contour>
      <point x="205" y="650" type="curve" smooth="yes"/>
      <point x="205" y="-74" type="line" smooth="yes"/>
      <point x="205" y="-84"/>
      <point x="224" y="-85"/>
      <point x="289" y="-85" type="curve"/>
      <point x="289" y="746" type="line" smooth="yes"/>
      <point x="289" y="752"/>
      <point x="281" y="757"/>
      <point x="254" y="757" type="curve" smooth="yes"/>
      <point x="235" y="757"/>
      <point x="225" y="757"/>
      <point x="205" y="757" type="curve"/>
      <point x="205" y="721"/>
      <point x="205" y="686"/>
    </contour>
    <contour>
      <point x="520" y="678" type="line"/>
      <point x="520" y="701"/>
      <point x="520" y="723"/>
      <point x="520" y="746" type="curve" smooth="yes"/>
      <point x="520" y="749"/>
      <point x="519" y="752"/>
      <point x="517" y="754" type="curve" smooth="yes"/>
      <point x="515" y="756"/>
      <point x="512" y="757"/>
      <point x="509" y="757" type="curve" smooth="yes"/>
      <point x="254" y="757" type="line"/>
      <point x="254" y="683"/>
      <point x="260" y="678"/>
      <point x="265" y="678" type="curve"/>
    </contour>
    <contour>
      <point x="520" y="-151" type="line"/>
      <point x="520" y="-127"/>
      <point x="520" y="-108"/>
      <point x="520" y="-84" type="curve" smooth="yes"/>
      <point x="520" y="-78"/>
      <point x="515" y="-73"/>
      <point x="509" y="-73" type="curve" smooth="yes"/>
      <point x="205" y="-73" type="line"/>
      <point x="205" y="-140" type="line" smooth="yes"/>
      <point x="205" y="-146"/>
      <point x="210" y="-151"/>
      <point x="216" y="-151" type="curve" smooth="yes"/>
    </contour>
  </outline>
</glyph>
<glyph name="bracketright" format="1">
  <advance width="600"/>
  <unicode hex="005D"/>
  <outline>
    <contour>
      <point x="395" y="-44" type="curve" smooth="yes"/>
      <point x="395" y="680" type="line" smooth="yes"/>
      <point x="395" y="690"/>
      <point x="376" y="691"/>
      <point x="311" y="691" type="curve"/>
      <point x="311" y="-140" type="line" smooth="yes"/>
      <point x="311" y="-146"/>
      <point x="319" y="-151"/>
      <point x="346" y="-151" type="curve" smooth="yes"/>
      <point x="365" y="-151"/>
      <point x="375" y="-151"/>
      <point x="395" y="-151" type="curve"/>
      <point x="395" y="-115"/>
      <point x="395" y="-80"/>
    </contour>
    <contour>
      <point x="80" y="-72" type="line"/>
      <point x="80" y="-95"/>
      <point x="80" y="-116"/>
      <point x="80" y="-140" type="curve" smooth="yes"/>
      <point x="80" y="-143"/>
      <point x="81" y="-146"/>
      <point x="83" y="-148" type="curve" smooth="yes"/>
      <point x="85" y="-150"/>
      <point x="88" y="-151"/>
      <point x="91" y="-151" type="curve" smooth="yes"/>
      <point x="346" y="-151" type="line"/>
      <point x="346" y="-77"/>
      <point x="340" y="-72"/>
      <point x="335" y="-72" type="curve"/>
    </contour>
    <contour>
      <point x="80" y="758" type="line"/>
      <point x="80" y="734"/>
      <point x="80" y="714"/>
      <point x="80" y="690" type="curve" smooth="yes"/>
      <point x="80" y="684"/>
      <point x="85" y="679"/>
      <point x="91" y="679" type="curve" smooth="yes"/>
      <point x="395" y="679" type="line"/>
      <point x="395" y="747" type="line" smooth="yes"/>
      <point x="395" y="753"/>
      <point x="390" y="758"/>
      <point x="384" y="758" type="curve" smooth="yes"/>
    </contour>
  </outline>
</glyph>
<glyph name="underscore" format="1">
  <advance width="600"/>
  <unicode hex="005F"/>
  <outline>
    <contour>
      <point x="68" y="-84" type="line"/>
      <point x="68" y="-108"/>
      <point x="68" y="-129"/>
      <point x="68" y="-152" type="curve" smooth="yes"/>
      <point x="68" y="-155"/>
      <point x="69" y="-158"/>
      <point x="71" y="-160" type="curve" smooth="yes"/>
      <point x="73" y="-162"/>
      <point x="76" y="-163"/>
      <point x="79" y="-163" type="curve"/>
      <point x="532" y="-163" type="line"/>
      <point x="532" y="-140"/>
      <point x="532" y="-119"/>
      <point x="532" y="-95" type="curve" smooth="yes"/>
      <point x="532" y="-89"/>
      <point x="527" y="-84"/>
      <point x="521" y="-84" type="curve"/>
    </contour>
  </outline>
</glyph>
<glyph name="grave" format="1">
  <advance width="600"/>
  <unicode hex="0060"/>
  <outline>
    <contour>
      <point x="384" y="414" type="curve"/>
      <point x="359" y="518"/>
      <point x="336" y="613"/>
      <point x="310" y="717" type="curve"/>
      <point x="256" y="717"/>
      <point x="229" y="717"/>
      <point x="183" y="717" type="curve" smooth="yes"/>
      <point x="175" y="717"/>
      <point x="170" y="712"/>
      <point x="173" y="704" type="curve" smooth="yes"/>
      <point x="215" y="613"/>
      <point x="258" y="519"/>
      <point x="301" y="423" type="curve" smooth="yes"/>
      <point x="304" y="416"/>
      <point x="309" y="414"/>
      <point x="316" y="414" type="curve" smooth="yes"/>
      <point x="348" y="414"/>
      <point x="364" y="414"/>
    </contour>
  </outline>
</glyph>
<glyph name="b" format="1">
  <advance width="600"/>
  <unicode hex="0062"/>
  <outline>
    <contour>
      <point x="97" y="0" type="line"/>
      <point x="113" y="0"/>
      <point x="128" y="0"/>
      <point x="143" y="0" type="curve" smooth="yes"/>
      <point x="155" y="0"/>
      <point x="180" y="65"/>
      <point x="180" y="95" type="curve" smooth="yes"/>
      <point x="180" y="739" type="line"/>
      <point x="180" y="745"/>
      <point x="175" y="750"/>
      <point x="169" y="750" type="curve" smooth="yes"/>
      <point x="145" y="750"/>
      <point x="121" y="750"/>
      <point x="97" y="750" type="curve"/>
      <point x="97" y="713"/>
      <point x="97" y="674"/>
      <point x="97" y="635" type="curve" smooth="yes"/>
    </contour>
    <contour>
      <point x="360" y="541" type="curve" smooth="yes"/>
      <point x="293" y="541"/>
      <point x="232" y="515"/>
      <point x="177" y="460" type="curve" smooth="yes"/>
      <point x="149" y="432"/>
      <point x="143" y="400"/>
      <point x="151" y="366" type="curve"/>
      <point x="223" y="436"/>
      <point x="275" y="462"/>
      <point x="341" y="462" type="curve" smooth="yes"/>
      <point x="409" y="462"/>
      <point x="448" y="417"/>
      <point x="448" y="335" type="curve"/>
      <point x="491" y="333"/>
      <point x="531" y="340"/>
      <point x="531" y="348" type="curve" smooth="yes"/>
      <point x="531" y="465"/>
      <point x="463" y="541"/>
    </contour>
    <contour>
      <point x="340" y="-10" type="curve" smooth="yes"/>
      <point x="460" y="-10"/>
      <point x="531" y="67"/>
      <point x="531" y="212" type="curve" smooth="yes"/>
      <point x="531" y="348" type="line" smooth="yes"/>
      <point x="531" y="401"/>
      <point x="491" y="465"/>
      <point x="451" y="465" type="curve"/>
      <point x="435" y="465"/>
      <point x="425" y="460"/>
      <point x="424" y="450" type="curve"/>
      <point x="441" y="417"/>
      <point x="448" y="390"/>
      <point x="448" y="335" type="curve" smooth="yes"/>
      <point x="448" y="213" type="line" smooth="yes"/>
      <point x="448" y="113"/>
      <point x="409" y="68"/>
      <point x="334" y="68" type="curve" smooth="yes"/>
      <point x="267" y="68"/>
      <point x="217" y="98"/>
      <point x="163" y="163" type="curve"/>
      <point x="158" y="160"/>
      <point x="146" y="124"/>
      <point x="152" y="109" type="curve" smooth="yes"/>
      <point x="181" y="41"/>
      <point x="250" y="-10"/>
    </contour>
  </outline>
</glyph>
<glyph name="d" format="1">
  <advance width="600"/>
  <unicode hex="0064"/>
  <outline>
    <contour>
      <point x="263" y="541" type="curve" smooth="yes"/>
      <point x="142" y="541"/>
      <point x="69" y="457"/>
      <point x="69" y="313" type="curve" smooth="yes"/>
      <point x="69" y="186" type="line" smooth="yes"/>
      <point x="69" y="138"/>
      <point x="110" y="75"/>
      <point x="150" y="75" type="curve" smooth="yes"/>
      <point x="166" y="75"/>
      <point x="176" y="80"/>
      <point x="177" y="91" type="curve"/>
      <point x="162" y="123"/>
      <point x="152" y="149"/>
      <point x="152" y="196" type="curve" smooth="yes"/>
      <point x="152" y="308" type="line" smooth="yes"/>
      <point x="152" y="408"/>
      <point x="188" y="463"/>
      <point x="277" y="463" type="curve" smooth="yes"/>
      <point x="344" y="463"/>
      <point x="385" y="432"/>
      <point x="431" y="382" type="curve"/>
      <point x="447" y="385"/>
      <point x="450" y="411"/>
      <point x="445" y="427" type="curve" smooth="yes"/>
      <point x="426" y="482"/>
      <point x="356" y="541"/>
    </contour>
    <contour>
      <point x="240" y="-10" type="curve" smooth="yes"/>
      <point x="314" y="-10"/>
      <point x="370" y="23"/>
      <point x="421" y="83" type="curve" smooth="yes"/>
      <point x="449" y="117"/>
      <point x="452" y="154"/>
      <point x="444" y="181" type="curve"/>
      <point x="373" y="99"/>
      <point x="325" y="67"/>
      <point x="261" y="67" type="curve" smooth="yes"/>
      <point x="193" y="67"/>
      <point x="152" y="111"/>
      <point x="152" y="196" type="curve"/>
      <point x="99" y="205"/>
      <point x="69" y="189"/>
      <point x="69" y="186" type="curve" smooth="yes"/>
      <point x="69" y="65"/>
      <point x="141" y="-10"/>
    </contour>
    <contour>
      <point x="420" y="750" type="curve"/>
      <point x="420" y="716"/>
      <point x="420" y="682"/>
      <point x="420" y="650" type="curve" smooth="yes"/>
      <point x="420" y="11" type="line"/>
      <point x="420" y="8"/>
      <point x="421" y="5"/>
      <point x="423" y="3" type="curve" smooth="yes"/>
      <point x="425" y="1"/>
      <point x="428" y="0"/>
      <point x="431" y="0" type="curve" smooth="yes"/>
      <point x="455" y="0"/>
      <point x="479" y="0"/>
      <point x="503" y="0" type="curve"/>
      <point x="503" y="30"/>
      <point x="503" y="69"/>
      <point x="503" y="115" type="curve" smooth="yes"/>
      <point x="503" y="739" type="line"/>
      <point x="503" y="742"/>
      <point x="502" y="745"/>
      <point x="500" y="747" type="curve" smooth="yes"/>
      <point x="498" y="749"/>
      <point x="495" y="750"/>
      <point x="492" y="750" type="curve" smooth="yes"/>
      <point x="468" y="750"/>
      <point x="444" y="750"/>
    </contour>
    <contour>
      <point x="538" y="711" type="move" name="caronslovak"/>
    </contour>
  </outline>
</glyph>
<glyph name="g" format="1">
  <advance width="600"/>
  <unicode hex="0067"/>
  <outline>
    <contour>
      <point x="296" y="472" type="curve" smooth="yes"/>
      <point x="351" y="472"/>
      <point x="380" y="469"/>
      <point x="412" y="450" type="curve"/>
      <point x="431" y="491"/>
      <point x="370" y="540"/>
      <point x="293" y="540" type="curve" smooth="yes"/>
      <point x="171" y="540"/>
      <point x="77" y="474"/>
      <point x="77" y="372" type="curve" smooth="yes"/>
      <point x="77" y="340" type="line" smooth="yes"/>
      <point x="77" y="242"/>
      <point x="158" y="173"/>
      <point x="288" y="173" type="curve" smooth="yes"/>
      <point x="300" y="173"/>
      <point x="303" y="185"/>
      <point x="285" y="241" type="curve"/>
      <point x="211" y="241"/>
      <point x="158" y="273"/>
      <point x="158" y="337" type="curve" smooth="yes"/>
      <point x="158" y="373" type="line" smooth="yes"/>
      <point x="158" y="437"/>
      <point x="214" y="472"/>
    </contour>
    <contour>
      <point x="285" y="241" type="curve" smooth="yes"/>
      <point x="226" y="241"/>
      <point x="191" y="248"/>
      <point x="154" y="268" type="curve"/>
      <point x="145" y="216"/>
      <point x="199" y="173"/>
      <point x="288" y="173" type="curve" smooth="yes"/>
      <point x="411" y="173"/>
      <point x="504" y="237"/>
      <point x="504" y="341" type="curve" smooth="yes"/>
      <point x="504" y="373" type="line" smooth="yes"/>
      <point x="504" y="475"/>
      <point x="422" y="540"/>
      <point x="293" y="540" type="curve" smooth="yes"/>
      <point x="273" y="540"/>
      <point x="274" y="528"/>
      <point x="296" y="472" type="curve"/>
      <point x="383" y="472"/>
      <point x="423" y="437"/>
      <point x="423" y="376" type="curve" smooth="yes"/>
      <point x="423" y="341" type="line" smooth="yes"/>
      <point x="423" y="276"/>
      <point x="367" y="241"/>
    </contour>
    <contour>
      <point x="151" y="92" type="curve" smooth="yes"/>
      <point x="151" y="86" type="line" smooth="yes"/>
      <point x="151" y="29"/>
      <point x="193" y="-6"/>
      <point x="258" y="-6" type="curve" smooth="yes"/>
      <point x="375" y="-6" type="line" smooth="yes"/>
      <point x="450" y="-6"/>
      <point x="482" y="-33"/>
      <point x="482" y="-79" type="curve" smooth="yes"/>
      <point x="482" y="-100" type="line" smooth="yes"/>
      <point x="482" y="-158"/>
      <point x="433" y="-183"/>
      <point x="360" y="-183" type="curve"/>
      <point x="350" y="-241"/>
      <point x="356" y="-250"/>
      <point x="363" y="-250" type="curve" smooth="yes"/>
      <point x="478" y="-250"/>
      <point x="565" y="-205"/>
      <point x="565" y="-89" type="curve" smooth="yes"/>
      <point x="565" y="-73" type="line" smooth="yes"/>
      <point x="565" y="12"/>
      <point x="507" y="67"/>
      <point x="380" y="67" type="curve" smooth="yes"/>
      <point x="266" y="67" type="line" smooth="yes"/>
      <point x="241" y="67"/>
      <point x="231" y="77"/>
      <point x="231" y="100" type="curve" smooth="yes"/>
      <point x="231" y="109" type="line" smooth="yes"/>
      <point x="231" y="132"/>
      <point x="242" y="169"/>
      <point x="255" y="185" type="curve"/>
      <point x="255" y="190"/>
      <point x="251" y="195"/>
      <point x="236" y="196" type="curve" smooth="yes"/>
      <point x="190" y="196"/>
      <point x="151" y="137"/>
    </contour>
    <contour>
      <point x="489" y="-153" type="curve"/>
      <point x="450" y="-179"/>
      <point x="415" y="-183"/>
      <point x="360" y="-183" type="curve" smooth="yes"/>
      <point x="260" y="-183" type="line" smooth="yes"/>
      <point x="176" y="-183"/>
      <point x="135" y="-156"/>
      <point x="135" y="-100" type="curve" smooth="yes"/>
      <point x="135" y="-79" type="line" smooth="yes"/>
      <point x="135" y="-39"/>
      <point x="151" y="-8"/>
      <point x="218" y="14" type="curve"/>
      <point x="215" y="32"/>
      <point x="205" y="48"/>
      <point x="183" y="46" type="curve" smooth="yes"/>
      <point x="100" y="35"/>
      <point x="52" y="-23"/>
      <point x="52" y="-94" type="curve" smooth="yes"/>
      <point x="52" y="-113" type="line" smooth="yes"/>
      <point x="52" y="-196"/>
      <point x="122" y="-250"/>
      <point x="238" y="-250" type="curve" smooth="yes"/>
      <point x="363" y="-250" type="line" smooth="yes"/>
      <point x="419" y="-250"/>
      <point x="503" y="-216"/>
    </contour>
    <contour>
      <point x="440" y="473" type="curve" smooth="yes"/>
      <point x="504" y="493" type="line" smooth="yes"/>
      <point x="574" y="514"/>
      <point x="577" y="516"/>
      <point x="577" y="527" type="curve" smooth="yes"/>
      <point x="577" y="574" type="line" smooth="yes"/>
      <point x="577" y="580"/>
      <point x="572" y="585"/>
      <point x="566" y="585" type="curve" smooth="yes"/>
      <point x="535" y="585"/>
      <point x="483" y="585"/>
      <point x="452" y="585" type="curve"/>
      <point x="452" y="580"/>
      <point x="452" y="576"/>
      <point x="452" y="551" type="curve" smooth="yes"/>
      <point x="452" y="542"/>
      <point x="450" y="537"/>
      <point x="443" y="531" type="curve" smooth="yes"/>
      <point x="394" y="498" type="line"/>
      <point x="404" y="480"/>
      <point x="422" y="468"/>
    </contour>
  </outline>
</glyph>
<glyph name="h" format="1">
  <advance width="600"/>
  <unicode hex="0068"/>
  <outline>
    <contour>
      <point x="182" y="0" type="curve"/>
      <point x="182" y="739" type="line" smooth="yes"/>
      <point x="182" y="742"/>
      <point x="181" y="745"/>
      <point x="179" y="747" type="curve" smooth="yes"/>
      <point x="177" y="749"/>
      <point x="174" y="750"/>
      <point x="171" y="750" type="curve" smooth="yes"/>
      <point x="148" y="750"/>
      <point x="124" y="750"/>
      <point x="97" y="750" type="curve"/>
      <point x="97" y="730"/>
      <point x="97" y="695"/>
      <point x="97" y="651" type="curve" smooth="yes"/>
      <point x="97" y="11" type="line" smooth="yes"/>
      <point x="97" y="5"/>
      <point x="102" y="0"/>
      <point x="108" y="0" type="curve" smooth="yes"/>
      <point x="133" y="0"/>
      <point x="157" y="0"/>
    </contour>
    <contour>
      <point x="368" y="541" type="curve" smooth="yes"/>
      <point x="296" y="541"/>
      <point x="239" y="506"/>
      <point x="180" y="441" type="curve" smooth="yes"/>
      <point x="159" y="418"/>
      <point x="144" y="382"/>
      <point x="153" y="336" type="curve"/>
      <point x="233" y="425"/>
      <point x="286" y="459"/>
      <point x="348" y="459" type="curve" smooth="yes"/>
      <point x="394" y="459"/>
      <point x="422" y="429"/>
      <point x="422" y="366" type="curve"/>
      <point x="493" y="367"/>
      <point x="506" y="382"/>
      <point x="506" y="396" type="curve" smooth="yes"/>
      <point x="506" y="474"/>
      <point x="453" y="541"/>
    </contour>
    <contour>
      <point x="506" y="0" type="curve"/>
      <point x="506" y="33"/>
      <point x="506" y="66"/>
      <point x="506" y="98" type="curve" smooth="yes"/>
      <point x="506" y="396" type="line"/>
      <point x="506" y="428"/>
      <point x="464" y="458"/>
      <point x="414" y="443" type="curve"/>
      <point x="420" y="420"/>
      <point x="422" y="407"/>
      <point x="422" y="366" type="curve" smooth="yes"/>
      <point x="422" y="11" type="line" smooth="yes"/>
      <point x="422" y="5"/>
      <point x="427" y="0"/>
      <point x="433" y="0" type="curve" smooth="yes"/>
      <point x="457" y="0"/>
      <point x="481" y="0"/>
    </contour>
    <contour>
      <point x="141" y="730" type="move" name="top"/>
    </contour>
  </outline>
</glyph>
<glyph name="i" format="1">
  <advance width="600"/>
  <unicode hex="0069"/>
  <outline>
    <contour>
      <point x="87" y="530" type="curve"/>
      <point x="87" y="508"/>
      <point x="87" y="488"/>
      <point x="87" y="465" type="curve" smooth="yes"/>
      <point x="87" y="459"/>
      <point x="92" y="454"/>
      <point x="98" y="454" type="curve" smooth="yes"/>
      <point x="159" y="454"/>
      <point x="218" y="454"/>
      <point x="280" y="454" type="curve"/>
      <point x="280" y="513"/>
      <point x="275" y="530"/>
      <point x="267" y="530" type="curve" smooth="yes"/>
      <point x="198" y="530"/>
      <point x="156" y="530"/>
    </contour>
    <contour>
      <point x="346" y="527" type="curve" smooth="yes"/>
      <point x="344" y="529"/>
      <point x="341" y="530"/>
      <point x="338" y="530" type="curve" smooth="yes"/>
      <point x="267" y="530" type="line"/>
      <point x="267" y="53" type="line" smooth="yes"/>
      <point x="267" y="41"/>
      <point x="293" y="37"/>
      <point x="349" y="37" type="curve"/>
      <point x="349" y="519" type="line" smooth="yes"/>
      <point x="349" y="522"/>
      <point x="348" y="525"/>
    </contour>
    <contour>
      <point x="74" y="76" type="line"/>
      <point x="74" y="54"/>
      <point x="74" y="33"/>
      <point x="74" y="11" type="curve" smooth="yes"/>
      <point x="74" y="8"/>
      <point x="75" y="5"/>
      <point x="77" y="3" type="curve" smooth="yes"/>
      <point x="79" y="1"/>
      <point x="82" y="0"/>
      <point x="85" y="0" type="curve"/>
      <point x="533" y="0" type="line"/>
      <point x="533" y="22"/>
      <point x="533" y="43"/>
      <point x="533" y="65" type="curve" smooth="yes"/>
      <point x="533" y="71"/>
      <point x="528" y="76"/>
      <point x="522" y="76" type="curve"/>
    </contour>
    <contour>
      <point x="360" y="668" type="curve"/>
      <point x="360" y="759" type="line" smooth="yes"/>
      <point x="360" y="765"/>
      <point x="355" y="770"/>
      <point x="349" y="770" type="curve" smooth="yes"/>
      <point x="316" y="770"/>
      <point x="282" y="770"/>
      <point x="249" y="770" type="curve"/>
      <point x="249" y="679" type="line" smooth="yes"/>
      <point x="249" y="673"/>
      <point x="254" y="668"/>
      <point x="260" y="668" type="curve" smooth="yes"/>
      <point x="293" y="668"/>
      <point x="327" y="668"/>
    </contour>
    <contour>
      <point x="534" y="0" type="move" name="ogonek"/>
    </contour>
    <contour>
      <point x="303" y="-1" type="move" name="bottom"/>
    </contour>
  </outline>
</glyph>
<glyph name="j" format="1">
  <advance width="600"/>
  <unicode hex="006A"/>
  <outline>
    <contour>
      <point x="77" y="530" type="curve"/>
      <point x="77" y="508"/>
      <point x="77" y="488"/>
      <point x="77" y="465" type="curve" smooth="yes"/>
      <point x="77" y="459"/>
      <point x="82" y="454"/>
      <point x="88" y="454" type="curve" smooth="yes"/>
      <point x="186" y="454"/>
      <point x="297" y="454"/>
      <point x="395" y="454" type="curve"/>
      <point x="395" y="492"/>
      <point x="385" y="530"/>
      <point x="364" y="530" type="curve" smooth="yes"/>
      <point x="273" y="530"/>
      <point x="168" y="530"/>
    </contour>
    <contour>
      <point x="433" y="-2" type="curve" smooth="yes"/>
      <point x="433" y="519" type="line" smooth="yes"/>
      <point x="433" y="522"/>
      <point x="432" y="525"/>
      <point x="430" y="527" type="curve" smooth="yes"/>
      <point x="428" y="529"/>
      <point x="425" y="530"/>
      <point x="422" y="530" type="curve" smooth="yes"/>
      <point x="351" y="530" type="line"/>
      <point x="351" y="6" type="line" smooth="yes"/>
      <point x="351" y="-88"/>
      <point x="341" y="-125"/>
      <point x="285" y="-181" type="curve"/>
      <point x="348" y="-216"/>
      <point x="433" y="-118"/>
    </contour>
    <contour>
      <point x="198" y="-171" type="curve" smooth="yes"/>
      <point x="143" y="-171"/>
      <point x="101" y="-163"/>
      <point x="62" y="-144" type="curve"/>
      <point x="47" y="-144" type="line"/>
      <point x="47" y="-168"/>
      <point x="47" y="-190"/>
      <point x="47" y="-214" type="curve" smooth="yes"/>
      <point x="47" y="-217"/>
      <point x="48" y="-220"/>
      <point x="50" y="-222" type="curve" smooth="yes"/>
      <point x="65" y="-236"/>
      <point x="127" y="-250"/>
      <point x="193" y="-250" type="curve" smooth="yes"/>
      <point x="354" y="-250"/>
      <point x="433" y="-165"/>
      <point x="433" y="-2" type="curve" smooth="yes"/>
      <point x="433" y="16"/>
      <point x="411" y="14"/>
      <point x="351" y="6" type="curve"/>
      <point x="351" y="-115"/>
      <point x="302" y="-171"/>
    </contour>
    <contour>
      <point x="444" y="668" type="curve"/>
      <point x="444" y="759" type="line" smooth="yes"/>
      <point x="444" y="765"/>
      <point x="439" y="770"/>
      <point x="433" y="770" type="curve" smooth="yes"/>
      <point x="400" y="770"/>
      <point x="366" y="770"/>
      <point x="333" y="770" type="curve"/>
      <point x="333" y="679" type="line" smooth="yes"/>
      <point x="333" y="673"/>
      <point x="338" y="668"/>
      <point x="344" y="668" type="curve" smooth="yes"/>
      <point x="377" y="668"/>
      <point x="411" y="668"/>
    </contour>
  </outline>
</glyph>
<glyph name="l" format="1">
  <advance width="600"/>
  <unicode hex="006C"/>
  <outline>
    <contour>
      <point x="87" y="750" type="curve"/>
      <point x="87" y="728"/>
      <point x="87" y="707"/>
      <point x="87" y="685" type="curve" smooth="yes"/>
      <point x="87" y="679"/>
      <point x="92" y="674"/>
      <point x="98" y="674" type="curve" smooth="yes"/>
      <point x="159" y="674"/>
      <point x="218" y="674"/>
      <point x="280" y="674" type="curve"/>
      <point x="280" y="733"/>
      <point x="275" y="750"/>
      <point x="267" y="750" type="curve" smooth="yes"/>
      <point x="198" y="750"/>
      <point x="156" y="750"/>
    </contour>
    <contour>
      <point x="346" y="747" type="curve" smooth="yes"/>
      <point x="344" y="749"/>
      <point x="341" y="750"/>
      <point x="338" y="750" type="curve" smooth="yes"/>
      <point x="267" y="750" type="line"/>
      <point x="267" y="53" type="line" smooth="yes"/>
      <point x="267" y="41"/>
      <point x="293" y="37"/>
      <point x="349" y="37" type="curve"/>
      <point x="349" y="739" type="line" smooth="yes"/>
      <point x="349" y="742"/>
      <point x="348" y="745"/>
    </contour>
    <contour>
      <point x="74" y="76" type="line"/>
      <point x="74" y="54"/>
      <point x="74" y="33"/>
      <point x="74" y="11" type="curve" smooth="yes"/>
      <point x="74" y="8"/>
      <point x="75" y="5"/>
      <point x="77" y="3" type="curve" smooth="yes"/>
      <point x="79" y="1"/>
      <point x="82" y="0"/>
      <point x="85" y="0" type="curve"/>
      <point x="533" y="0" type="line"/>
      <point x="533" y="22"/>
      <point x="533" y="43"/>
      <point x="533" y="65" type="curve" smooth="yes"/>
      <point x="533" y="71"/>
      <point x="528" y="76"/>
      <point x="522" y="76" type="curve"/>
    </contour>
    <contour>
      <point x="501" y="671" type="move" name="caronslovak"/>
    </contour>
    <contour>
      <point x="303" y="730" type="move" name="top"/>
    </contour>
    <contour>
      <point x="497" y="400" type="move" name="dot"/>
    </contour>
    <contour>
      <point x="303" y="-1" type="move" name="bottom"/>
    </contour>
  </outline>
</glyph>
<glyph name="m" format="1">
  <advance width="600"/>
  <unicode hex="006D"/>
  <outline>
    <contour>
      <point x="126" y="0" type="curve"/>
      <point x="126" y="492" type="line" smooth="yes"/>
      <point x="126" y="509"/>
      <point x="119" y="525"/>
      <point x="116" y="527" type="curve" smooth="yes"/>
      <point x="114" y="530"/>
      <point x="110" y="530"/>
      <point x="107" y="530" type="curve" smooth="yes"/>
      <point x="89" y="530"/>
      <point x="69" y="530"/>
      <point x="51" y="530" type="curve"/>
      <point x="51" y="509"/>
      <point x="51" y="474"/>
      <point x="51" y="430" type="curve" smooth="yes"/>
      <point x="51" y="11" type="line" smooth="yes"/>
      <point x="51" y="5"/>
      <point x="56" y="0"/>
      <point x="62" y="0" type="curve" smooth="yes"/>
      <point x="83" y="0"/>
      <point x="104" y="0"/>
    </contour>
    <contour>
      <point x="248" y="541" type="curve" smooth="yes"/>
      <point x="200" y="541"/>
      <point x="163" y="513"/>
      <point x="128" y="463" type="curve" smooth="yes"/>
      <point x="109" y="438"/>
      <point x="91" y="399"/>
      <point x="101" y="360" type="curve"/>
      <point x="148" y="430"/>
      <point x="186" y="459"/>
      <point x="225" y="459" type="curve" smooth="yes"/>
      <point x="251" y="459"/>
      <point x="264" y="443"/>
      <point x="264" y="412" type="curve"/>
      <point x="331" y="435"/>
      <point x="336" y="441"/>
      <point x="336" y="443" type="curve" smooth="yes"/>
      <point x="336" y="502"/>
      <point x="298" y="541"/>
    </contour>
    <contour>
      <point x="336" y="0" type="curve"/>
      <point x="336" y="443" type="line" smooth="yes"/>
      <point x="336" y="473"/>
      <point x="306" y="483"/>
      <point x="250" y="468" type="curve"/>
      <point x="259" y="451"/>
      <point x="264" y="442"/>
      <point x="264" y="413" type="curve" smooth="yes"/>
      <point x="264" y="11" type="line" smooth="yes"/>
      <point x="264" y="5"/>
      <point x="269" y="0"/>
      <point x="275" y="0" type="curve" smooth="yes"/>
      <point x="295" y="0"/>
      <point x="316" y="0"/>
    </contour>
    <contour>
      <point x="464" y="541" type="curve" smooth="yes"/>
      <point x="412" y="541"/>
      <point x="376" y="513"/>
      <point x="340" y="462" type="curve" smooth="yes"/>
      <point x="320" y="436"/>
      <point x="303" y="395"/>
      <point x="313" y="359" type="curve"/>
      <point x="361" y="429"/>
      <point x="397" y="459"/>
      <point x="436" y="459" type="curve" smooth="yes"/>
      <point x="462" y="459"/>
      <point x="474" y="443"/>
      <point x="474" y="412" type="curve"/>
      <point x="545" y="432"/>
      <point x="549" y="439"/>
      <point x="549" y="442" type="curve" smooth="yes"/>
      <point x="549" y="502"/>
      <point x="518" y="541"/>
    </contour>
    <contour>
      <point x="549" y="0" type="curve"/>
      <point x="549" y="35"/>
      <point x="549" y="68"/>
      <point x="549" y="99" type="curve" smooth="yes"/>
      <point x="549" y="442" type="line" smooth="yes"/>
      <point x="549" y="476"/>
      <point x="524" y="486"/>
      <point x="460" y="471" type="curve"/>
      <point x="469" y="453"/>
      <point x="474" y="443"/>
      <point x="474" y="413" type="curve" smooth="yes"/>
      <point x="474" y="11" type="line" smooth="yes"/>
      <point x="474" y="5"/>
      <point x="479" y="0"/>
      <point x="485" y="0" type="curve" smooth="yes"/>
      <point x="507" y="0"/>
      <point x="528" y="0"/>
    </contour>
  </outline>
</glyph>
<glyph name="n" format="1">
  <advance width="600"/>
  <unicode hex="006E"/>
  <outline>
    <contour>
      <point x="182" y="0" type="curve"/>
      <point x="182" y="519" type="line" smooth="yes"/>
      <point x="182" y="522"/>
      <point x="181" y="525"/>
      <point x="179" y="527" type="curve" smooth="yes"/>
      <point x="177" y="529"/>
      <point x="174" y="530"/>
      <point x="171" y="530" type="curve" smooth="yes"/>
      <point x="148" y="530"/>
      <point x="124" y="530"/>
      <point x="97" y="530" type="curve"/>
      <point x="97" y="511"/>
      <point x="97" y="475"/>
      <point x="97" y="431" type="curve" smooth="yes"/>
      <point x="97" y="11" type="line" smooth="yes"/>
      <point x="97" y="5"/>
      <point x="102" y="0"/>
      <point x="108" y="0" type="curve" smooth="yes"/>
      <point x="133" y="0"/>
      <point x="157" y="0"/>
    </contour>
    <contour>
      <point x="368" y="541" type="curve" smooth="yes"/>
      <point x="296" y="541"/>
      <point x="239" y="506"/>
      <point x="180" y="441" type="curve" smooth="yes"/>
      <point x="159" y="418"/>
      <point x="144" y="382"/>
      <point x="153" y="336" type="curve"/>
      <point x="233" y="425"/>
      <point x="286" y="459"/>
      <point x="347" y="459" type="curve" smooth="yes"/>
      <point x="392" y="459"/>
      <point x="422" y="429"/>
      <point x="422" y="371" type="curve"/>
      <point x="496" y="372"/>
      <point x="506" y="384"/>
      <point x="506" y="396" type="curve" smooth="yes"/>
      <point x="506" y="475"/>
      <point x="454" y="541"/>
    </contour>
    <contour>
      <point x="506" y="0" type="curve"/>
      <point x="506" y="33"/>
      <point x="506" y="66"/>
      <point x="506" y="98" type="curve" smooth="yes"/>
      <point x="506" y="396" type="line"/>
      <point x="506" y="428"/>
      <point x="464" y="458"/>
      <point x="414" y="443" type="curve"/>
      <point x="420" y="421"/>
      <point x="422" y="409"/>
      <point x="422" y="371" type="curve" smooth="yes"/>
      <point x="422" y="11" type="line" smooth="yes"/>
      <point x="422" y="5"/>
      <point x="427" y="0"/>
      <point x="433" y="0" type="curve" smooth="yes"/>
      <point x="457" y="0"/>
      <point x="481" y="0"/>
    </contour>
    <contour>
      <point x="76" y="698" type="move" name="caronslovak"/>
    </contour>
    <contour>
      <point x="300" y="541" type="move" name="top"/>
    </contour>
    <contour>
      <point x="301" y="-1" type="move" name="bottom"/>
    </contour>
  </outline>
</glyph>
<glyph name="p" format="1">
  <advance width="600"/>
  <unicode hex="0070"/>
  <outline>
    <contour>
      <point x="180" y="-214" type="curve"/>
      <point x="180" y="519" type="line" smooth="yes"/>
      <point x="180" y="522"/>
      <point x="179" y="525"/>
      <point x="177" y="527" type="curve" smooth="yes"/>
      <point x="175" y="529"/>
      <point x="172" y="530"/>
      <point x="169" y="530" type="curve"/>
      <point x="145" y="530"/>
      <point x="121" y="530"/>
      <point x="97" y="530" type="curve"/>
      <point x="97" y="497"/>
      <point x="97" y="464"/>
      <point x="97" y="430" type="curve" smooth="yes"/>
      <point x="97" y="-203" type="line" smooth="yes"/>
      <point x="97" y="-209"/>
      <point x="102" y="-214"/>
      <point x="108" y="-214" type="curve"/>
      <point x="132" y="-214"/>
      <point x="156" y="-214"/>
    </contour>
    <contour>
      <point x="358" y="541" type="curve" smooth="yes"/>
      <point x="295" y="541"/>
      <point x="235" y="514"/>
      <point x="180" y="458" type="curve" smooth="yes"/>
      <point x="153" y="430"/>
      <point x="146" y="396"/>
      <point x="154" y="365" type="curve"/>
      <point x="229" y="436"/>
      <point x="279" y="463"/>
      <point x="340" y="463" type="curve" smooth="yes"/>
      <point x="410" y="463"/>
      <point x="448" y="412"/>
      <point x="448" y="320" type="curve"/>
      <point x="488" y="322"/>
      <point x="531" y="325"/>
      <point x="531" y="340" type="curve" smooth="yes"/>
      <point x="531" y="461"/>
      <point x="467" y="541"/>
    </contour>
    <contour>
      <point x="337" y="-10" type="curve" smooth="yes"/>
      <point x="460" y="-10"/>
      <point x="531" y="71"/>
      <point x="531" y="213" type="curve" smooth="yes"/>
      <point x="531" y="340" type="line" smooth="yes"/>
      <point x="531" y="395"/>
      <point x="488" y="465"/>
      <point x="447" y="465" type="curve" smooth="yes"/>
      <point x="430" y="465"/>
      <point x="421" y="460"/>
      <point x="420" y="450" type="curve"/>
      <point x="439" y="411"/>
      <point x="448" y="373"/>
      <point x="448" y="320" type="curve" smooth="yes"/>
      <point x="448" y="218" type="line" smooth="yes"/>
      <point x="448" y="116"/>
      <point x="408" y="67"/>
      <point x="323" y="67" type="curve" smooth="yes"/>
      <point x="263" y="67"/>
      <point x="220" y="85"/>
      <point x="166" y="143" type="curve"/>
      <point x="155" y="137"/>
      <point x="148" y="113"/>
      <point x="153" y="100" type="curve" smooth="yes"/>
      <point x="174" y="39"/>
      <point x="249" y="-10"/>
    </contour>
  </outline>
</glyph>
<glyph name="r" format="1">
  <advance width="600"/>
  <unicode hex="0072"/>
  <outline>
    <contour>
      <point x="82" y="530" type="curve"/>
      <point x="82" y="508"/>
      <point x="82" y="488"/>
      <point x="82" y="465" type="curve" smooth="yes"/>
      <point x="82" y="459"/>
      <point x="87" y="454"/>
      <point x="93" y="454" type="curve" smooth="yes"/>
      <point x="139" y="454"/>
      <point x="213" y="454"/>
      <point x="259" y="454" type="curve"/>
      <point x="259" y="499"/>
      <point x="253" y="530"/>
      <point x="245" y="530" type="curve" smooth="yes"/>
      <point x="198" y="530"/>
      <point x="130" y="530"/>
    </contour>
    <contour>
      <point x="285" y="38" type="curve"/>
      <point x="285" y="420" type="line" smooth="yes"/>
      <point x="285" y="449"/>
      <point x="262" y="530"/>
      <point x="245" y="530" type="curve" smooth="yes"/>
      <point x="237" y="530"/>
      <point x="219" y="526"/>
      <point x="204" y="521" type="curve"/>
      <point x="204" y="49" type="line" smooth="yes"/>
      <point x="204" y="42"/>
      <point x="210" y="38"/>
    </contour>
    <contour>
      <point x="74" y="76" type="line"/>
      <point x="74" y="54"/>
      <point x="74" y="33"/>
      <point x="74" y="11" type="curve" smooth="yes"/>
      <point x="74" y="8"/>
      <point x="75" y="5"/>
      <point x="77" y="3" type="curve" smooth="yes"/>
      <point x="79" y="1"/>
      <point x="82" y="0"/>
      <point x="85" y="0" type="curve"/>
      <point x="490" y="0" type="line"/>
      <point x="490" y="22"/>
      <point x="490" y="43"/>
      <point x="490" y="65" type="curve" smooth="yes"/>
      <point x="490" y="71"/>
      <point x="485" y="76"/>
      <point x="479" y="76" type="curve"/>
    </contour>
    <contour>
      <point x="251" y="344" type="curve"/>
      <point x="344" y="437"/>
      <point x="396" y="453"/>
      <point x="459" y="453" type="curve" smooth="yes"/>
      <point x="483" y="453"/>
      <point x="507" y="452"/>
      <point x="530" y="449" type="curve"/>
      <point x="540" y="449" type="line"/>
      <point x="540" y="471"/>
      <point x="540" y="514"/>
      <point x="540" y="526" type="curve"/>
      <point x="540" y="533"/>
      <point x="536" y="537"/>
      <point x="529" y="537" type="curve" smooth="yes"/>
      <point x="477" y="537" type="line" smooth="yes"/>
      <point x="390" y="537"/>
      <point x="330" y="509"/>
      <point x="269" y="437" type="curve" smooth="yes"/>
      <point x="254" y="418"/>
      <point x="250" y="395"/>
    </contour>
    <contour>
      <point x="307" y="541" type="move" name="top"/>
    </contour>
    <contour>
      <point x="307" y="-1" type="move" name="bottom"/>
    </contour>
  </outline>
</glyph>
<glyph name="s" format="1">
  <advance width="600"/>
  <unicode hex="0073"/>
  <outline>
    <contour>
      <point x="329" y="539" type="curve" smooth="yes"/>
      <point x="314" y="539" type="line" smooth="yes"/>
      <point x="175" y="539"/>
      <point x="98" y="470"/>
      <point x="98" y="384" type="curve" smooth="yes"/>
      <point x="98" y="345"/>
      <point x="141" y="335"/>
      <point x="179" y="335" type="curve"/>
      <point x="179" y="352"/>
      <point x="179" y="372"/>
      <point x="179" y="385" type="curve" smooth="yes"/>
      <point x="179" y="432"/>
      <point x="231" y="461"/>
      <point x="318" y="461" type="curve" smooth="yes"/>
      <point x="385" y="461"/>
      <point x="422" y="452"/>
      <point x="473" y="431" type="curve"/>
      <point x="487" y="431" type="line"/>
      <point x="487" y="454"/>
      <point x="487" y="477"/>
      <point x="487" y="500" type="curve"/>
      <point x="487" y="504"/>
      <point x="487" y="506"/>
      <point x="484" y="509" type="curve" smooth="yes"/>
      <point x="475" y="518"/>
      <point x="411" y="539"/>
    </contour>
    <contour>
      <point x="367" y="295" type="curve" smooth="yes"/>
      <point x="274" y="314" type="line" smooth="yes"/>
      <point x="197" y="332"/>
      <point x="179" y="348"/>
      <point x="179" y="385" type="curve" smooth="yes"/>
      <point x="179" y="399"/>
      <point x="179" y="420"/>
      <point x="179" y="443" type="curve"/>
      <point x="134" y="443"/>
      <point x="98" y="415"/>
      <point x="98" y="384" type="curve"/>
      <point x="98" y="309"/>
      <point x="136" y="271"/>
      <point x="241" y="248" type="curve" smooth="yes"/>
      <point x="333" y="229" type="line" smooth="yes"/>
      <point x="415" y="209"/>
      <point x="434" y="189"/>
      <point x="434" y="150" type="curve" smooth="yes"/>
      <point x="434" y="133"/>
      <point x="434" y="120"/>
      <point x="434" y="103" type="curve"/>
      <point x="487" y="103"/>
      <point x="515" y="127"/>
      <point x="515" y="150" type="curve" smooth="yes"/>
      <point x="515" y="222"/>
      <point x="480" y="271"/>
    </contour>
    <contour>
      <point x="291" y="69" type="curve" smooth="yes"/>
      <point x="196" y="69"/>
      <point x="152" y="84"/>
      <point x="96" y="121" type="curve"/>
      <point x="81" y="121" type="line"/>
      <point x="81" y="103"/>
      <point x="81" y="77"/>
      <point x="81" y="49" type="curve" smooth="yes"/>
      <point x="81" y="45"/>
      <point x="82" y="43"/>
      <point x="84" y="41" type="curve" smooth="yes"/>
      <point x="106" y="19"/>
      <point x="183" y="-8"/>
      <point x="280" y="-8" type="curve" smooth="yes"/>
      <point x="290" y="-8" type="line" smooth="yes"/>
      <point x="430" y="-8"/>
      <point x="515" y="50"/>
      <point x="515" y="150" type="curve" smooth="yes"/>
      <point x="515" y="183"/>
      <point x="478" y="206"/>
      <point x="434" y="206" type="curve"/>
      <point x="434" y="184"/>
      <point x="434" y="169"/>
      <point x="434" y="150" type="curve" smooth="yes"/>
      <point x="434" y="102"/>
      <point x="394" y="69"/>
    </contour>
    <contour>
      <point x="312" y="541" type="move" name="top"/>
    </contour>
    <contour>
      <point x="305" y="-1" type="move" name="bottom"/>
    </contour>
  </outline>
</glyph>
<glyph name="t" format="1">
  <advance width="600"/>
  <unicode hex="0074"/>
  <outline>
    <contour>
      <point x="206" y="700" type="curve"/>
      <point x="206" y="197" type="line" smooth="yes"/>
      <point x="206" y="99"/>
      <point x="261" y="46"/>
      <point x="341" y="53" type="curve"/>
      <point x="298" y="99"/>
      <point x="287" y="126"/>
      <point x="287" y="209" type="curve" smooth="yes"/>
      <point x="287" y="689" type="line" smooth="yes"/>
      <point x="287" y="695"/>
      <point x="282" y="700"/>
      <point x="276" y="700" type="curve" smooth="yes"/>
      <point x="254" y="700"/>
      <point x="230" y="700"/>
    </contour>
    <contour>
      <point x="500" y="77" type="curve"/>
      <point x="487" y="77" type="line"/>
      <point x="458" y="77"/>
      <point x="444" y="77"/>
      <point x="408" y="77" type="curve" smooth="yes"/>
      <point x="320" y="77"/>
      <point x="287" y="108"/>
      <point x="287" y="209" type="curve"/>
      <point x="224" y="226"/>
      <point x="206" y="216"/>
      <point x="206" y="197" type="curve" smooth="yes"/>
      <point x="206" y="45"/>
      <point x="293" y="0"/>
      <point x="401" y="0" type="curve" smooth="yes"/>
      <point x="489" y="0" type="line" smooth="yes"/>
      <point x="493" y="0"/>
      <point x="495" y="1"/>
      <point x="497" y="3" type="curve" smooth="yes"/>
      <point x="499" y="5"/>
      <point x="500" y="7"/>
      <point x="500" y="11" type="curve" smooth="yes"/>
      <point x="500" y="34"/>
      <point x="500" y="54"/>
    </contour>
    <contour>
      <point x="74" y="530" type="line"/>
      <point x="74" y="507"/>
      <point x="74" y="489"/>
      <point x="74" y="466" type="curve" smooth="yes"/>
      <point x="74" y="463"/>
      <point x="75" y="460"/>
      <point x="77" y="458" type="curve" smooth="yes"/>
      <point x="79" y="456"/>
      <point x="82" y="455"/>
      <point x="85" y="455" type="curve" smooth="yes"/>
      <point x="500" y="455" type="line"/>
      <point x="500" y="478"/>
      <point x="500" y="496"/>
      <point x="500" y="519" type="curve" smooth="yes"/>
      <point x="500" y="525"/>
      <point x="495" y="530"/>
      <point x="489" y="530" type="curve" smooth="yes"/>
    </contour>
    <contour>
      <point x="438" y="700" type="move" name="caronslovak"/>
    </contour>
    <contour>
      <point x="370" y="-1" type="move" name="bottom"/>
    </contour>
  </outline>
</glyph>
<glyph name="v" format="1">
  <advance width="600"/>
  <unicode hex="0076"/>
  <outline>
    <contour>
      <point x="539" y="530" type="curve" smooth="yes"/>
      <point x="465" y="530" type="line"/>
      <point x="410" y="370"/>
      <point x="355" y="210"/>
      <point x="298" y="49" type="curve"/>
      <point x="289" y="18"/>
      <point x="282" y="9"/>
      <point x="266" y="0" type="curve"/>
      <point x="362" y="0" type="line"/>
      <point x="425" y="173"/>
      <point x="486" y="344"/>
      <point x="548" y="517" type="curve"/>
      <point x="551" y="525"/>
      <point x="546" y="530"/>
    </contour>
    <contour>
      <point x="127" y="530" type="curve" smooth="yes"/>
      <point x="48" y="530" type="line"/>
      <point x="110" y="357"/>
      <point x="171" y="185"/>
      <point x="233" y="12" type="curve"/>
      <point x="236" y="4"/>
      <point x="242" y="0"/>
      <point x="249" y="0" type="curve" smooth="yes"/>
      <point x="274" y="0" type="line" smooth="yes"/>
      <point x="303" y="0"/>
      <point x="362" y="20"/>
      <point x="365" y="78" type="curve"/>
      <point x="341" y="78"/>
      <point x="322" y="78"/>
      <point x="302" y="78" type="curve" smooth="yes"/>
      <point x="296" y="78"/>
      <point x="293" y="81"/>
      <point x="291" y="87" type="curve"/>
      <point x="240" y="232"/>
      <point x="189" y="376"/>
      <point x="138" y="521" type="curve"/>
      <point x="136" y="528"/>
      <point x="133" y="530"/>
    </contour>
  </outline>
</glyph>
<glyph name="w" format="1">
  <advance width="600"/>
  <unicode hex="0077"/>
  <outline>
    <contour>
      <point x="42" y="530" type="curve"/>
      <point x="67" y="358"/>
      <point x="94" y="185"/>
      <point x="119" y="12" type="curve" smooth="yes"/>
      <point x="120" y="4"/>
      <point x="126" y="0"/>
      <point x="134" y="0" type="curve" smooth="yes"/>
      <point x="156" y="0" type="line" smooth="yes"/>
      <point x="168" y="0"/>
      <point x="180" y="12"/>
      <point x="183" y="28" type="curve" smooth="yes"/>
      <point x="163" y="192"/>
      <point x="143" y="355"/>
      <point x="122" y="518" type="curve"/>
      <point x="121" y="524"/>
      <point x="120" y="527"/>
      <point x="119" y="528" type="curve" smooth="yes"/>
      <point x="118" y="529"/>
      <point x="115" y="530"/>
      <point x="112" y="530" type="curve"/>
      <point x="88" y="530"/>
      <point x="65" y="530"/>
    </contour>
    <contour>
      <point x="308" y="424" type="curve" smooth="yes"/>
      <point x="267" y="424" type="line"/>
      <point x="235" y="300"/>
      <point x="203" y="175"/>
      <point x="171" y="49" type="curve"/>
      <point x="164" y="17"/>
      <point x="159" y="9"/>
      <point x="148" y="0" type="curve"/>
      <point x="218" y="0" type="line"/>
      <point x="251" y="135"/>
      <point x="284" y="270"/>
      <point x="317" y="405" type="curve" smooth="yes"/>
      <point x="320" y="418"/>
      <point x="316" y="424"/>
    </contour>
    <contour>
      <point x="327" y="424" type="curve" smooth="yes"/>
      <point x="279" y="424" type="line"/>
      <point x="312" y="288"/>
      <point x="345" y="150"/>
      <point x="379" y="12" type="curve" smooth="yes"/>
      <point x="381" y="4"/>
      <point x="388" y="0"/>
      <point x="394" y="0" type="curve" smooth="yes"/>
      <point x="414" y="0" type="line" smooth="yes"/>
      <point x="424" y="0"/>
      <point x="435" y="10"/>
      <point x="433" y="25" type="curve" smooth="yes"/>
      <point x="400" y="162"/>
      <point x="368" y="288"/>
      <point x="337" y="414" type="curve" smooth="yes"/>
      <point x="335" y="423"/>
      <point x="332" y="424"/>
    </contour>
    <contour>
      <point x="479" y="530" type="curve"/>
      <point x="459" y="370"/>
      <point x="439" y="209"/>
      <point x="419" y="49" type="curve"/>
      <point x="415" y="19"/>
      <point x="412" y="9"/>
      <point x="406" y="0" type="curve"/>
      <point x="478" y="0" type="line"/>
      <point x="504" y="172"/>
      <point x="530" y="346"/>
      <point x="556" y="518" type="curve"/>
      <point x="557" y="523"/>
      <point x="557" y="526"/>
      <point x="555" y="528" type="curve" smooth="yes"/>
      <point x="553" y="529"/>
      <point x="552" y="530"/>
      <point x="548" y="530" type="curve"/>
      <point x="524" y="530"/>
      <point x="502" y="530"/>
    </contour>
    <contour>
      <point x="298" y="541" type="move" name="top"/>
    </contour>
  </outline>
</glyph>
<glyph name="y" format="1">
  <advance width="600"/>
  <unicode hex="0079"/>
  <outline>
    <contour>
      <point x="539" y="530" type="curve" smooth="yes"/>
      <point x="514" y="530"/>
      <point x="491" y="530"/>
      <point x="470" y="530" type="curve"/>
      <point x="404" y="318"/>
      <point x="294" y="-30"/>
      <point x="270" y="-107" type="curve" smooth="yes"/>
      <point x="256" y="-153"/>
      <point x="226" y="-173"/>
      <point x="181" y="-173" type="curve" smooth="yes"/>
      <point x="88" y="-173" type="line"/>
      <point x="88" y="-239" type="line" smooth="yes"/>
      <point x="88" y="-247"/>
      <point x="92" y="-250"/>
      <point x="99" y="-250" type="curve" smooth="yes"/>
      <point x="186" y="-250" type="line" smooth="yes"/>
      <point x="271" y="-250"/>
      <point x="316" y="-212"/>
      <point x="344" y="-121" type="curve" smooth="yes"/>
      <point x="399" y="56"/>
      <point x="483" y="308"/>
      <point x="551" y="514" type="curve" smooth="yes"/>
      <point x="554" y="524"/>
      <point x="546" y="530"/>
    </contour>
    <contour>
      <point x="121" y="530" type="curve" smooth="yes"/>
      <point x="94" y="530"/>
      <point x="70" y="530"/>
      <point x="46" y="530" type="curve"/>
      <point x="111" y="361"/>
      <point x="244" y="17"/>
      <point x="247" y="8" type="curve" smooth="yes"/>
      <point x="249" y="3"/>
      <point x="252" y="0"/>
      <point x="258" y="0" type="curve" smooth="yes"/>
      <point x="330" y="0" type="line" smooth="yes"/>
      <point x="350" y="0"/>
      <point x="365" y="16"/>
      <point x="366" y="71" type="curve"/>
      <point x="314" y="71" type="line"/>
      <point x="310" y="71"/>
      <point x="307" y="74"/>
      <point x="305" y="80" type="curve" smooth="yes"/>
      <point x="299" y="96"/>
      <point x="162" y="450"/>
      <point x="140" y="518" type="curve" smooth="yes"/>
      <point x="136" y="528"/>
      <point x="132" y="530"/>
    </contour>
    <contour>
      <point x="314" y="541" type="move" name="top"/>
    </contour>
  </outline>
</glyph>
<glyph name="z" format="1">
  <advance width="600"/>
  <unicode hex="007A"/>
  <outline>
    <contour>
      <point x="78" y="530" type="line"/>
      <point x="78" y="508"/>
      <point x="78" y="487"/>
      <point x="78" y="465" type="curve" smooth="yes"/>
      <point x="78" y="462"/>
      <point x="79" y="459"/>
      <point x="81" y="457" type="curve" smooth="yes"/>
      <point x="83" y="455"/>
      <point x="86" y="454"/>
      <point x="89" y="454" type="curve" smooth="yes"/>
      <point x="432" y="454" type="line" smooth="yes"/>
      <point x="457" y="454"/>
      <point x="503" y="455"/>
      <point x="525" y="457" type="curve"/>
      <point x="525" y="519" type="line" smooth="yes"/>
      <point x="525" y="522"/>
      <point x="524" y="525"/>
      <point x="522" y="527" type="curve" smooth="yes"/>
      <point x="520" y="529"/>
      <point x="517" y="530"/>
      <point x="514" y="530" type="curve" smooth="yes"/>
    </contour>
    <contour>
      <point x="451" y="489" type="curve"/>
      <point x="325" y="349"/>
      <point x="203" y="212"/>
      <point x="78" y="73" type="curve"/>
      <point x="78" y="17"/>
      <point x="142" y="27"/>
      <point x="165" y="52" type="curve" smooth="yes"/>
      <point x="292" y="195"/>
      <point x="525" y="456"/>
      <point x="525" y="457" type="curve"/>
      <point x="525" y="479"/>
      <point x="501" y="489"/>
    </contour>
    <contour>
      <point x="525" y="0" type="line"/>
      <point x="525" y="23"/>
      <point x="525" y="43"/>
      <point x="525" y="66" type="curve"/>
      <point x="525" y="72"/>
      <point x="520" y="77"/>
      <point x="514" y="77" type="curve" smooth="yes"/>
      <point x="173" y="77" type="line" smooth="yes"/>
      <point x="142" y="77"/>
      <point x="111" y="75"/>
      <point x="78" y="73" type="curve"/>
      <point x="78" y="11" type="line" smooth="yes"/>
      <point x="78" y="8"/>
      <point x="79" y="5"/>
      <point x="81" y="3" type="curve" smooth="yes"/>
      <point x="83" y="1"/>
      <point x="86" y="0"/>
      <point x="89" y="0" type="curve" smooth="yes"/>
    </contour>
    <contour>
      <point x="300" y="541" type="move" name="top"/>
    </contour>
  </outline>
</glyph>
<glyph name="braceleft" format="1">
  <advance width="600"/>
  <unicode hex="007B"/>
  <outline>
    <contour>
      <point x="355" y="681" type="curve" smooth="yes"/>
      <point x="413" y="681"/>
      <point x="439" y="681"/>
      <point x="493" y="681" type="curve"/>
      <point x="513" y="681" type="line"/>
      <point x="513" y="704"/>
      <point x="513" y="726"/>
      <point x="513" y="749" type="curve"/>
      <point x="513" y="756"/>
      <point x="509" y="760"/>
      <point x="502" y="760" type="curve" smooth="yes"/>
      <point x="332" y="760" type="line" smooth="yes"/>
      <point x="253" y="760"/>
      <point x="226" y="700"/>
      <point x="226" y="664" type="curve" smooth="yes"/>
      <point x="226" y="660" type="line" smooth="yes"/>
      <point x="226" y="650"/>
      <point x="234" y="648"/>
      <point x="304" y="633" type="curve"/>
      <point x="309" y="667"/>
      <point x="323" y="681"/>
    </contour>
    <contour>
      <point x="379" y="447" type="curve" smooth="yes"/>
      <point x="379" y="533"/>
      <point x="307" y="564"/>
      <point x="307" y="614" type="curve" smooth="yes"/>
      <point x="307" y="629"/>
      <point x="307" y="662"/>
      <point x="307" y="683" type="curve"/>
      <point x="230" y="674"/>
      <point x="226" y="670"/>
      <point x="226" y="664" type="curve" smooth="yes"/>
      <point x="226" y="614" type="line" smooth="yes"/>
      <point x="226" y="536"/>
      <point x="297" y="513"/>
      <point x="297" y="445" type="curve" smooth="yes"/>
      <point x="297" y="379"/>
      <point x="223" y="339"/>
      <point x="102" y="339" type="curve" smooth="yes"/>
      <point x="70" y="339" type="line"/>
      <point x="70" y="288" type="line" smooth="yes"/>
      <point x="70" y="280"/>
      <point x="78" y="274"/>
      <point x="86" y="274" type="curve" smooth="yes"/>
      <point x="102" y="274" type="line" smooth="yes"/>
      <point x="280" y="274"/>
      <point x="379" y="347"/>
    </contour>
    <contour>
      <point x="379" y="152" type="curve" smooth="yes"/>
      <point x="379" y="253"/>
      <point x="283" y="326"/>
      <point x="102" y="326" type="curve" smooth="yes"/>
      <point x="91" y="326"/>
      <point x="81" y="326"/>
      <point x="70" y="326" type="curve"/>
      <point x="70" y="272" type="line" smooth="yes"/>
      <point x="70" y="265"/>
      <point x="74" y="261"/>
      <point x="81" y="261" type="curve" smooth="yes"/>
      <point x="102" y="261" type="line" smooth="yes"/>
      <point x="223" y="261"/>
      <point x="297" y="218"/>
      <point x="297" y="153" type="curve" smooth="yes"/>
      <point x="297" y="85"/>
      <point x="226" y="63"/>
      <point x="226" y="-15" type="curve" smooth="yes"/>
      <point x="226" y="-65" type="line" smooth="yes"/>
      <point x="226" y="-70"/>
      <point x="231" y="-75"/>
      <point x="307" y="-81" type="curve"/>
      <point x="307" y="-59"/>
      <point x="307" y="-37"/>
      <point x="307" y="-15" type="curve" smooth="yes"/>
      <point x="307" y="35"/>
      <point x="379" y="66"/>
    </contour>
    <contour>
      <point x="355" y="-82" type="curve" smooth="yes"/>
      <point x="323" y="-82"/>
      <point x="309" y="-68"/>
      <point x="304" y="-34" type="curve"/>
      <point x="235" y="-49"/>
      <point x="226" y="-51"/>
      <point x="226" y="-61" type="curve" smooth="yes"/>
      <point x="226" y="-65" type="line" smooth="yes"/>
      <point x="226" y="-101"/>
      <point x="253" y="-161"/>
      <point x="332" y="-161" type="curve" smooth="yes"/>
      <point x="502" y="-161" type="line" smooth="yes"/>
      <point x="509" y="-161"/>
      <point x="513" y="-157"/>
      <point x="513" y="-150" type="curve"/>
      <point x="513" y="-82" type="line"/>
      <point x="493" y="-82" type="line"/>
      <point x="439" y="-82"/>
      <point x="413" y="-82"/>
    </contour>
  </outline>
</glyph>
<glyph name="bar" format="1">
  <advance width="600"/>
  <unicode hex="007C"/>
  <outline>
    <contour>
      <point x="258" y="760" type="curve"/>
      <point x="258" y="726"/>
      <point x="258" y="692"/>
      <point x="258" y="658" type="curve" smooth="yes"/>
      <point x="258" y="-150" type="line" smooth="yes"/>
      <point x="258" y="-156"/>
      <point x="263" y="-161"/>
      <point x="269" y="-161" type="curve" smooth="yes"/>
      <point x="293" y="-161"/>
      <point x="318" y="-161"/>
      <point x="342" y="-161" type="curve"/>
      <point x="342" y="749" type="line" smooth="yes"/>
      <point x="342" y="752"/>
      <point x="341" y="755"/>
      <point x="339" y="757" type="curve" smooth="yes"/>
      <point x="337" y="759"/>
      <point x="334" y="760"/>
      <point x="331" y="760" type="curve" smooth="yes"/>
      <point x="307" y="760"/>
      <point x="282" y="760"/>
    </contour>
  </outline>
</glyph>
<glyph name="braceright" format="1">
  <advance width="600"/>
  <unicode hex="007D"/>
  <outline>
    <contour>
      <point x="245" y="-82" type="curve" smooth="yes"/>
      <point x="187" y="-82"/>
      <point x="161" y="-82"/>
      <point x="107" y="-82" type="curve"/>
      <point x="87" y="-82" type="line"/>
      <point x="87" y="-105"/>
      <point x="87" y="-127"/>
      <point x="87" y="-150" type="curve"/>
      <point x="87" y="-157"/>
      <point x="91" y="-161"/>
      <point x="98" y="-161" type="curve" smooth="yes"/>
      <point x="268" y="-161" type="line" smooth="yes"/>
      <point x="347" y="-161"/>
      <point x="374" y="-101"/>
      <point x="374" y="-65" type="curve" smooth="yes"/>
      <point x="374" y="-61" type="line" smooth="yes"/>
      <point x="374" y="-51"/>
      <point x="366" y="-49"/>
      <point x="296" y="-34" type="curve"/>
      <point x="291" y="-68"/>
      <point x="277" y="-82"/>
    </contour>
    <contour>
      <point x="221" y="152" type="curve" smooth="yes"/>
      <point x="221" y="66"/>
      <point x="293" y="35"/>
      <point x="293" y="-15" type="curve" smooth="yes"/>
      <point x="293" y="-30"/>
      <point x="293" y="-63"/>
      <point x="293" y="-84" type="curve"/>
      <point x="370" y="-75"/>
      <point x="374" y="-71"/>
      <point x="374" y="-65" type="curve" smooth="yes"/>
      <point x="374" y="-15" type="line" smooth="yes"/>
      <point x="374" y="63"/>
      <point x="303" y="86"/>
      <point x="303" y="154" type="curve" smooth="yes"/>
      <point x="303" y="220"/>
      <point x="377" y="260"/>
      <point x="498" y="260" type="curve" smooth="yes"/>
      <point x="530" y="260" type="line"/>
      <point x="530" y="311" type="line" smooth="yes"/>
      <point x="530" y="319"/>
      <point x="522" y="325"/>
      <point x="514" y="325" type="curve" smooth="yes"/>
      <point x="498" y="325" type="line" smooth="yes"/>
      <point x="320" y="325"/>
      <point x="221" y="252"/>
    </contour>
    <contour>
      <point x="221" y="447" type="curve" smooth="yes"/>
      <point x="221" y="346"/>
      <point x="317" y="273"/>
      <point x="498" y="273" type="curve" smooth="yes"/>
      <point x="509" y="273"/>
      <point x="519" y="273"/>
      <point x="530" y="273" type="curve"/>
      <point x="530" y="327" type="line" smooth="yes"/>
      <point x="530" y="334"/>
      <point x="526" y="338"/>
      <point x="519" y="338" type="curve" smooth="yes"/>
      <point x="498" y="338" type="line" smooth="yes"/>
      <point x="377" y="338"/>
      <point x="303" y="381"/>
      <point x="303" y="446" type="curve" smooth="yes"/>
      <point x="303" y="514"/>
      <point x="374" y="536"/>
      <point x="374" y="614" type="curve" smooth="yes"/>
      <point x="374" y="664" type="line" smooth="yes"/>
      <point x="374" y="669"/>
      <point x="369" y="674"/>
      <point x="293" y="680" type="curve"/>
      <point x="293" y="658"/>
      <point x="293" y="636"/>
      <point x="293" y="614" type="curve" smooth="yes"/>
      <point x="293" y="564"/>
      <point x="221" y="533"/>
    </contour>
    <contour>
      <point x="245" y="681" type="curve" smooth="yes"/>
      <point x="277" y="681"/>
      <point x="291" y="667"/>
      <point x="296" y="633" type="curve"/>
      <point x="365" y="648"/>
      <point x="374" y="650"/>
      <point x="374" y="660" type="curve" smooth="yes"/>
      <point x="374" y="664" type="line" smooth="yes"/>
      <point x="374" y="700"/>
      <point x="347" y="760"/>
      <point x="268" y="760" type="curve" smooth="yes"/>
      <point x="98" y="760" type="line" smooth="yes"/>
      <point x="91" y="760"/>
      <point x="87" y="756"/>
      <point x="87" y="749" type="curve"/>
      <point x="87" y="681" type="line"/>
      <point x="107" y="681" type="line"/>
      <point x="161" y="681"/>
      <point x="187" y="681"/>
    </contour>
  </outline>
</glyph>
<glyph name="exclamdown" format="1">
  <advance width="600"/>
  <unicode hex="00A1"/>
  <outline>
    <contour>
      <point x="267" y="275" type="line"/>
      <point x="261" y="193"/>
      <point x="254" y="110"/>
      <point x="248" y="28" type="curve"/>
      <point x="248" y="-159" type="line" smooth="yes"/>
      <point x="248" y="-166"/>
      <point x="253" y="-170"/>
      <point x="259" y="-170" type="curve" smooth="yes"/>
      <point x="295" y="-170"/>
      <point x="326" y="-170"/>
      <point x="352" y="-170" type="curve"/>
      <point x="352" y="-132"/>
      <point x="352" y="-97"/>
      <point x="352" y="-60" type="curve" smooth="yes"/>
      <point x="352" y="28" type="line"/>
      <point x="335" y="262"/>
      <point x="334" y="268"/>
      <point x="330" y="272" type="curve" smooth="yes"/>
      <point x="328" y="274"/>
      <point x="326" y="275"/>
      <point x="322" y="275" type="curve"/>
    </contour>
    <contour>
      <point x="226" y="537" type="curve"/>
      <point x="226" y="403" type="line" smooth="yes"/>
      <point x="226" y="397"/>
      <point x="231" y="392"/>
      <point x="237" y="392" type="curve" smooth="yes"/>
      <point x="277" y="392"/>
      <point x="334" y="392"/>
      <point x="374" y="392" type="curve"/>
      <point x="374" y="526" type="line" smooth="yes"/>
      <point x="374" y="532"/>
      <point x="369" y="537"/>
      <point x="363" y="537" type="curve" smooth="yes"/>
      <point x="323" y="537"/>
      <point x="266" y="537"/>
    </contour>
  </outline>
</glyph>
<glyph name="sterling" format="1">
  <advance width="600"/>
  <unicode hex="00A3"/>
  <outline>
    <contour>
      <point x="364" y="641" type="curve" smooth="yes"/>
      <point x="423" y="641"/>
      <point x="458" y="625"/>
      <point x="505" y="592" type="curve"/>
      <point x="519" y="592" type="line"/>
      <point x="519" y="609"/>
      <point x="519" y="634"/>
      <point x="519" y="665" type="curve" smooth="yes"/>
      <point x="519" y="669"/>
      <point x="518" y="671"/>
      <point x="516" y="673" type="curve" smooth="yes"/>
      <point x="493" y="696"/>
      <point x="438" y="720"/>
      <point x="363" y="720" type="curve" smooth="yes"/>
      <point x="230" y="720"/>
      <point x="159" y="639"/>
      <point x="159" y="544" type="curve" smooth="yes"/>
      <point x="159" y="525" type="line" smooth="yes"/>
      <point x="159" y="509"/>
      <point x="171" y="509"/>
      <point x="240" y="531" type="curve"/>
      <point x="240" y="603"/>
      <point x="282" y="641"/>
    </contour>
    <contour>
      <point x="159" y="525" type="curve" smooth="yes"/>
      <point x="159" y="404"/>
      <point x="159" y="306"/>
      <point x="159" y="178" type="curve" smooth="yes"/>
      <point x="159" y="111"/>
      <point x="119" y="74"/>
      <point x="64" y="74" type="curve" smooth="yes"/>
      <point x="59" y="74"/>
      <point x="55" y="74"/>
      <point x="51" y="74" type="curve"/>
      <point x="47" y="74" type="line"/>
      <point x="47" y="53"/>
      <point x="47" y="36"/>
      <point x="47" y="11" type="curve" smooth="yes"/>
      <point x="47" y="3"/>
      <point x="51" y="0"/>
      <point x="58" y="0" type="curve" smooth="yes"/>
      <point x="63" y="0" type="line" smooth="yes"/>
      <point x="161" y="0"/>
      <point x="240" y="56"/>
      <point x="240" y="191" type="curve" smooth="yes"/>
      <point x="240" y="311"/>
      <point x="240" y="419"/>
      <point x="240" y="531" type="curve" smooth="yes"/>
      <point x="240" y="556"/>
      <point x="240" y="580"/>
      <point x="240" y="604" type="curve"/>
      <point x="195" y="604"/>
      <point x="159" y="575"/>
    </contour>
    <contour>
      <point x="63" y="0" type="curve"/>
      <point x="235" y="0"/>
      <point x="337" y="0"/>
      <point x="467" y="0" type="curve" smooth="yes"/>
      <point x="532" y="0" type="line" smooth="yes"/>
      <point x="540" y="0"/>
      <point x="543" y="3"/>
      <point x="543" y="11" type="curve"/>
      <point x="543" y="32"/>
      <point x="543" y="53"/>
      <point x="543" y="74" type="curve"/>
      <point x="523" y="74" type="line"/>
      <point x="499" y="74"/>
      <point x="481" y="74"/>
      <point x="451" y="74" type="curve" smooth="yes"/>
      <point x="352" y="74"/>
      <point x="281" y="74"/>
      <point x="130" y="74" type="curve"/>
      <point x="58" y="6"/>
      <point x="59" y="0"/>
    </contour>
    <contour>
      <point x="67" y="383" type="line"/>
      <point x="67" y="361"/>
      <point x="67" y="352"/>
      <point x="67" y="330" type="curve" smooth="yes"/>
      <point x="67" y="327"/>
      <point x="68" y="324"/>
      <point x="70" y="322" type="curve" smooth="yes"/>
      <point x="72" y="320"/>
      <point x="75" y="319"/>
      <point x="78" y="319" type="curve" smooth="yes"/>
      <point x="450" y="319" type="line"/>
      <point x="450" y="341"/>
      <point x="450" y="350"/>
      <point x="450" y="372" type="curve" smooth="yes"/>
      <point x="450" y="378"/>
      <point x="445" y="383"/>
      <point x="439" y="383" type="curve" smooth="yes"/>
    </contour>
  </outline>
</glyph>
<glyph name="yen" format="1">
  <advance width="600"/>
  <unicode hex="00A5"/>
  <outline>
    <contour>
      <point x="42" y="456" type="line"/>
      <point x="42" y="434"/>
      <point x="42" y="424"/>
      <point x="42" y="403" type="curve" smooth="yes"/>
      <point x="42" y="400"/>
      <point x="43" y="397"/>
      <point x="45" y="395" type="curve" smooth="yes"/>
      <point x="47" y="393"/>
      <point x="50" y="392"/>
      <point x="53" y="392" type="curve"/>
      <point x="220" y="392" type="line"/>
      <point x="220" y="413"/>
      <point x="220" y="423"/>
      <point x="220" y="445" type="curve" smooth="yes"/>
      <point x="220" y="451"/>
      <point x="215" y="456"/>
      <point x="209" y="456" type="curve"/>
    </contour>
    <contour>
      <point x="380" y="456" type="line"/>
      <point x="380" y="434"/>
      <point x="380" y="424"/>
      <point x="380" y="403" type="curve" smooth="yes"/>
      <point x="380" y="397"/>
      <point x="385" y="392"/>
      <point x="391" y="392" type="curve"/>
      <point x="558" y="392" type="line"/>
      <point x="558" y="413"/>
      <point x="558" y="423"/>
      <point x="558" y="445" type="curve" smooth="yes"/>
      <point x="558" y="451"/>
      <point x="553" y="456"/>
      <point x="547" y="456" type="curve"/>
    </contour>
    <contour>
      <point x="558" y="149" type="line"/>
      <point x="558" y="170"/>
      <point x="558" y="180"/>
      <point x="558" y="202" type="curve" smooth="yes"/>
      <point x="558" y="205"/>
      <point x="557" y="208"/>
      <point x="555" y="210" type="curve" smooth="yes"/>
      <point x="553" y="212"/>
      <point x="550" y="213"/>
      <point x="547" y="213" type="curve"/>
      <point x="42" y="213" type="line"/>
      <point x="42" y="191"/>
      <point x="42" y="181"/>
      <point x="42" y="160" type="curve" smooth="yes"/>
      <point x="42" y="154"/>
      <point x="47" y="149"/>
      <point x="53" y="149" type="curve"/>
    </contour>
    <contour>
      <point x="33" y="700" type="line"/>
      <point x="109" y="556"/>
      <point x="186" y="412"/>
      <point x="262" y="268" type="curve"/>
      <point x="265" y="263"/>
      <point x="272" y="261"/>
      <point x="279" y="261" type="curve"/>
      <point x="306" y="261"/>
      <point x="321" y="299"/>
      <point x="316" y="327" type="curve"/>
      <point x="254" y="447"/>
      <point x="192" y="568"/>
      <point x="131" y="688" type="curve"/>
      <point x="128" y="695"/>
      <point x="124" y="700"/>
      <point x="114" y="700" type="curve" smooth="yes"/>
    </contour>
    <contour>
      <point x="477" y="700" type="line"/>
      <point x="414" y="575"/>
      <point x="351" y="450"/>
      <point x="287" y="325" type="curve"/>
      <point x="273" y="292"/>
      <point x="279" y="269"/>
      <point x="279" y="261" type="curve"/>
      <point x="335" y="261" type="line"/>
      <point x="410" y="402"/>
      <point x="486" y="544"/>
      <point x="562" y="685" type="curve"/>
      <point x="565" y="693"/>
      <point x="560" y="700"/>
      <point x="553" y="700" type="curve"/>
    </contour>
    <contour>
      <point x="342" y="0" type="curve"/>
      <point x="342" y="32"/>
      <point x="342" y="66"/>
      <point x="342" y="100" type="curve" smooth="yes"/>
      <point x="342" y="303" type="line" smooth="yes"/>
      <point x="342" y="309"/>
      <point x="337" y="314"/>
      <point x="258" y="314" type="curve"/>
      <point x="258" y="11" type="line" smooth="yes"/>
      <point x="258" y="8"/>
      <point x="259" y="5"/>
      <point x="261" y="3" type="curve" smooth="yes"/>
      <point x="263" y="1"/>
      <point x="266" y="0"/>
      <point x="269" y="0" type="curve" smooth="yes"/>
      <point x="293" y="0"/>
      <point x="318" y="0"/>
    </contour>
  </outline>
</glyph>
<glyph name="brokenbar" format="1">
  <advance width="600"/>
  <unicode hex="00A6"/>
  <outline>
    <contour>
      <point x="258" y="760" type="curve"/>
      <point x="258" y="727"/>
      <point x="258" y="694"/>
      <point x="258" y="661" type="curve" smooth="yes"/>
      <point x="258" y="380" type="line" smooth="yes"/>
      <point x="258" y="374"/>
      <point x="263" y="369"/>
      <point x="269" y="369" type="curve" smooth="yes"/>
      <point x="293" y="369"/>
      <point x="317" y="369"/>
      <point x="342" y="369" type="curve"/>
      <point x="342" y="749" type="line" smooth="yes"/>
      <point x="342" y="752"/>
      <point x="341" y="755"/>
      <point x="339" y="757" type="curve" smooth="yes"/>
      <point x="337" y="759"/>
      <point x="334" y="760"/>
      <point x="331" y="760" type="curve" smooth="yes"/>
      <point x="306" y="760"/>
      <point x="282" y="760"/>
    </contour>
    <contour>
      <point x="258" y="231" type="curve"/>
      <point x="258" y="-149" type="line"/>
      <point x="258" y="-155"/>
      <point x="263" y="-160"/>
      <point x="269" y="-160" type="curve" smooth="yes"/>
      <point x="293" y="-160"/>
      <point x="317" y="-160"/>
      <point x="342" y="-160" type="curve"/>
      <point x="342" y="220" type="line" smooth="yes"/>
      <point x="342" y="227"/>
      <point x="338" y="231"/>
      <point x="331" y="231" type="curve" smooth="yes"/>
      <point x="306" y="231"/>
      <point x="282" y="231"/>
    </contour>
  </outline>
</glyph>
<glyph name="section" format="1">
  <advance width="600"/>
  <unicode hex="00A7"/>
  <outline>
    <contour>
      <point x="318" y="717" type="curve" smooth="yes"/>
      <point x="181" y="717"/>
      <point x="83" y="641"/>
      <point x="83" y="538" type="curve" smooth="yes"/>
      <point x="83" y="493" type="line" smooth="yes"/>
      <point x="83" y="469"/>
      <point x="118" y="443"/>
      <point x="162" y="436" type="curve"/>
      <point x="162" y="456"/>
      <point x="162" y="510"/>
      <point x="162" y="532" type="curve" smooth="yes"/>
      <point x="162" y="601"/>
      <point x="223" y="642"/>
      <point x="319" y="642" type="curve" smooth="yes"/>
      <point x="390" y="642"/>
      <point x="452" y="625"/>
      <point x="487" y="594" type="curve"/>
      <point x="516" y="638"/>
      <point x="518" y="642"/>
      <point x="518" y="647" type="curve" smooth="yes"/>
      <point x="518" y="657"/>
      <point x="517" y="660"/>
      <point x="511" y="666" type="curve" smooth="yes"/>
      <point x="481" y="695"/>
      <point x="410" y="717"/>
    </contour>
    <contour>
      <point x="381" y="375" type="curve" smooth="yes"/>
      <point x="284" y="403" type="line" smooth="yes"/>
      <point x="193" y="429"/>
      <point x="162" y="453"/>
      <point x="162" y="505" type="curve" smooth="yes"/>
      <point x="162" y="526"/>
      <point x="162" y="555"/>
      <point x="162" y="568" type="curve"/>
      <point x="121" y="568"/>
      <point x="83" y="557"/>
      <point x="83" y="493" type="curve" smooth="yes"/>
      <point x="83" y="423"/>
      <point x="124" y="369"/>
      <point x="252" y="330" type="curve" smooth="yes"/>
      <point x="349" y="301" type="line" smooth="yes"/>
      <point x="432" y="276"/>
      <point x="452" y="246"/>
      <point x="452" y="190" type="curve" smooth="yes"/>
      <point x="452" y="169" type="line" smooth="yes"/>
      <point x="452" y="129"/>
      <point x="440" y="107"/>
      <point x="398" y="70" type="curve"/>
      <point x="420" y="63"/>
      <point x="434" y="62"/>
      <point x="449" y="62" type="curve" smooth="yes"/>
      <point x="490" y="62"/>
      <point x="532" y="117"/>
      <point x="532" y="177" type="curve" smooth="yes"/>
      <point x="532" y="205" type="line" smooth="yes"/>
      <point x="532" y="285"/>
      <point x="498" y="340"/>
    </contour>
    <contour>
      <point x="374" y="109" type="curve" smooth="yes"/>
      <point x="277" y="137" type="line" smooth="yes"/>
      <point x="186" y="164"/>
      <point x="162" y="193"/>
      <point x="162" y="245" type="curve" smooth="yes"/>
      <point x="162" y="264" type="line" smooth="yes"/>
      <point x="162" y="317"/>
      <point x="172" y="339"/>
      <point x="225" y="371" type="curve"/>
      <point x="198" y="375"/>
      <point x="185" y="378"/>
      <point x="170" y="378" type="curve" smooth="yes"/>
      <point x="125" y="378"/>
      <point x="83" y="320"/>
      <point x="83" y="255" type="curve" smooth="yes"/>
      <point x="83" y="229" type="line" smooth="yes"/>
      <point x="83" y="160"/>
      <point x="119" y="104"/>
      <point x="247" y="65" type="curve" smooth="yes"/>
      <point x="344" y="36" type="line" smooth="yes"/>
      <point x="427" y="11"/>
      <point x="452" y="-7"/>
      <point x="452" y="-57" type="curve" smooth="yes"/>
      <point x="452" y="-78"/>
      <point x="452" y="-103"/>
      <point x="452" y="-120" type="curve"/>
      <point x="486" y="-120"/>
      <point x="532" y="-87"/>
      <point x="532" y="-57" type="curve"/>
      <point x="532" y="28"/>
      <point x="491" y="75"/>
    </contour>
    <contour>
      <point x="293" y="-250" type="curve" smooth="yes"/>
      <point x="443" y="-250"/>
      <point x="532" y="-178"/>
      <point x="532" y="-74" type="curve" smooth="yes"/>
      <point x="532" y="-57" type="line" smooth="yes"/>
      <point x="532" y="-42"/>
      <point x="497" y="-28"/>
      <point x="452" y="-28" type="curve"/>
      <point x="452" y="-45"/>
      <point x="452" y="-56"/>
      <point x="452" y="-72" type="curve" smooth="yes"/>
      <point x="452" y="-133"/>
      <point x="396" y="-172"/>
      <point x="296" y="-172" type="curve" smooth="yes"/>
      <point x="207" y="-172"/>
      <point x="148" y="-152"/>
      <point x="86" y="-99" type="curve"/>
      <point x="72" y="-99" type="line"/>
      <point x="72" y="-114"/>
      <point x="72" y="-141"/>
      <point x="72" y="-175" type="curve" smooth="yes"/>
      <point x="72" y="-178"/>
      <point x="73" y="-181"/>
      <point x="75" y="-183" type="curve" smooth="yes"/>
      <point x="117" y="-225"/>
      <point x="200" y="-250"/>
    </contour>
    <contour>
      <point x="518" y="518" type="curve"/>
      <point x="518" y="647" type="line" smooth="yes"/>
      <point x="518" y="658"/>
      <point x="511" y="664"/>
      <point x="439" y="664" type="curve"/>
      <point x="439" y="657"/>
      <point x="439" y="650"/>
      <point x="439" y="641" type="curve" smooth="yes"/>
      <point x="439" y="529" type="line" smooth="yes"/>
      <point x="439" y="525"/>
      <point x="440" y="523"/>
      <point x="442" y="521" type="curve" smooth="yes"/>
      <point x="443" y="519"/>
      <point x="446" y="518"/>
      <point x="449" y="518" type="curve" smooth="yes"/>
      <point x="472" y="518"/>
      <point x="495" y="518"/>
    </contour>
  </outline>
</glyph>
<glyph name="dieresis" format="1">
  <advance width="600"/>
  <unicode hex="00A8"/>
  <outline>
    <contour>
      <point x="249" y="656" type="curve"/>
      <point x="249" y="749" type="line" smooth="yes"/>
      <point x="249" y="755"/>
      <point x="244" y="760"/>
      <point x="238" y="760" type="curve" smooth="yes"/>
      <point x="207" y="760"/>
      <point x="176" y="760"/>
      <point x="145" y="760" type="curve"/>
      <point x="145" y="667" type="line" smooth="yes"/>
      <point x="145" y="661"/>
      <point x="150" y="656"/>
      <point x="156" y="656" type="curve" smooth="yes"/>
      <point x="187" y="656"/>
      <point x="218" y="656"/>
    </contour>
    <contour>
      <point x="455" y="656" type="curve"/>
      <point x="455" y="749" type="line" smooth="yes"/>
      <point x="455" y="755"/>
      <point x="450" y="760"/>
      <point x="444" y="760" type="curve" smooth="yes"/>
      <point x="413" y="760"/>
      <point x="382" y="760"/>
      <point x="351" y="760" type="curve"/>
      <point x="351" y="667" type="line" smooth="yes"/>
      <point x="351" y="661"/>
      <point x="356" y="656"/>
      <point x="362" y="656" type="curve" smooth="yes"/>
      <point x="393" y="656"/>
      <point x="424" y="656"/>
    </contour>
  </outline>
</glyph>
<glyph name="copyright" format="1">
  <advance width="600"/>
  <unicode hex="00A9"/>
  <outline>
    <contour>
      <point x="300" y="715" type="curve" smooth="yes"/>
      <point x="127" y="715"/>
      <point x="20" y="615"/>
      <point x="20" y="436" type="curve" smooth="yes"/>
      <point x="20" y="271" type="line" smooth="yes"/>
      <point x="20" y="85"/>
      <point x="123" y="-15"/>
      <point x="300" y="-15" type="curve" smooth="yes"/>
      <point x="303" y="-1"/>
      <point x="310" y="22"/>
      <point x="300" y="37" type="curve"/>
      <point x="156" y="37"/>
      <point x="74" y="117"/>
      <point x="74" y="255" type="curve" smooth="yes"/>
      <point x="74" y="446" type="line" smooth="yes"/>
      <point x="74" y="583"/>
      <point x="157" y="663"/>
      <point x="300" y="663" type="curve" smooth="yes"/>
      <point x="348" y="663"/>
      <point x="380" y="661"/>
      <point x="419" y="653" type="curve"/>
      <point x="428" y="687"/>
      <point x="379" y="715"/>
    </contour>
    <contour>
      <point x="300" y="-15" type="curve" smooth="yes"/>
      <point x="473" y="-15"/>
      <point x="580" y="85"/>
      <point x="580" y="264" type="curve" smooth="yes"/>
      <point x="580" y="429" type="line" smooth="yes"/>
      <point x="580" y="615"/>
      <point x="477" y="715"/>
      <point x="300" y="715" type="curve" smooth="yes"/>
      <point x="297" y="701"/>
      <point x="290" y="678"/>
      <point x="300" y="663" type="curve"/>
      <point x="444" y="663"/>
      <point x="526" y="583"/>
      <point x="526" y="445" type="curve" smooth="yes"/>
      <point x="526" y="254" type="line" smooth="yes"/>
      <point x="526" y="117"/>
      <point x="443" y="37"/>
      <point x="300" y="37" type="curve" smooth="yes"/>
      <point x="252" y="37"/>
      <point x="220" y="39"/>
      <point x="181" y="47" type="curve"/>
      <point x="172" y="13"/>
      <point x="221" y="-15"/>
    </contour>
    <contour>
      <point x="308" y="509" type="curve" smooth="yes"/>
      <point x="351" y="509"/>
      <point x="369" y="493"/>
      <point x="389" y="464" type="curve"/>
      <point x="415" y="497"/>
      <point x="420" y="504"/>
      <point x="420" y="511" type="curve" smooth="yes"/>
      <point x="420" y="516"/>
      <point x="419" y="518"/>
      <point x="415" y="522" type="curve" smooth="yes"/>
      <point x="391" y="549"/>
      <point x="356" y="566"/>
      <point x="308" y="566" type="curve" smooth="yes"/>
      <point x="221" y="566"/>
      <point x="170" y="518"/>
      <point x="170" y="430" type="curve" smooth="yes"/>
      <point x="170" y="273" type="line" smooth="yes"/>
      <point x="170" y="244"/>
      <point x="195" y="211"/>
      <point x="232" y="211" type="curve"/>
      <point x="232" y="234"/>
      <point x="232" y="250"/>
      <point x="232" y="275" type="curve" smooth="yes"/>
      <point x="232" y="431" type="line" smooth="yes"/>
      <point x="232" y="483"/>
      <point x="257" y="509"/>
    </contour>
    <contour>
      <point x="306" y="134" type="curve" smooth="yes"/>
      <point x="353" y="134"/>
      <point x="397" y="148"/>
      <point x="416" y="172" type="curve"/>
      <point x="420" y="177"/>
      <point x="421" y="178"/>
      <point x="421" y="188" type="curve" smooth="yes"/>
      <point x="421" y="205"/>
      <point x="421" y="221"/>
      <point x="421" y="241" type="curve"/>
      <point x="411" y="241" type="line"/>
      <point x="383" y="206"/>
      <point x="354" y="192"/>
      <point x="309" y="192" type="curve" smooth="yes"/>
      <point x="252" y="192"/>
      <point x="232" y="215"/>
      <point x="232" y="275" type="curve"/>
      <point x="181" y="284"/>
      <point x="170" y="279"/>
      <point x="170" y="273" type="curve" smooth="yes"/>
      <point x="170" y="186"/>
      <point x="213" y="134"/>
    </contour>
    <contour>
      <point x="420" y="426" type="curve"/>
      <point x="420" y="511" type="line" smooth="yes"/>
      <point x="420" y="519"/>
      <point x="406" y="522"/>
      <point x="361" y="522" type="curve"/>
      <point x="361" y="515"/>
      <point x="361" y="511"/>
      <point x="361" y="506" type="curve" smooth="yes"/>
      <point x="361" y="437" type="line" smooth="yes"/>
      <point x="361" y="430"/>
      <point x="365" y="426"/>
      <point x="372" y="426" type="curve" smooth="yes"/>
      <point x="388" y="426"/>
      <point x="402" y="426"/>
    </contour>
  </outline>
</glyph>
<glyph name="ordfeminine" format="1">
  <advance width="600"/>
  <unicode hex="00AA"/>
  <outline>
    <contour>
      <point x="274" y="759" type="curve" smooth="yes"/>
      <point x="215" y="759"/>
      <point x="145" y="742"/>
      <point x="135" y="731" type="curve" smooth="yes"/>
      <point x="133" y="730"/>
      <point x="133" y="727"/>
      <point x="133" y="725" type="curve" smooth="yes"/>
      <point x="133" y="706"/>
      <point x="133" y="687"/>
      <point x="133" y="669" type="curve"/>
      <point x="145" y="669" type="line"/>
      <point x="185" y="685"/>
      <point x="228" y="693"/>
      <point x="275" y="693" type="curve" smooth="yes"/>
      <point x="365" y="693"/>
      <point x="394" y="669"/>
      <point x="394" y="587" type="curve"/>
      <point x="456" y="571"/>
      <point x="464" y="574"/>
      <point x="464" y="584" type="curve"/>
      <point x="464" y="710"/>
      <point x="407" y="759"/>
    </contour>
    <contour>
      <point x="380" y="693" type="curve"/>
      <point x="391" y="663"/>
      <point x="394" y="643"/>
      <point x="394" y="593" type="curve" smooth="yes"/>
      <point x="394" y="521"/>
      <point x="394" y="455"/>
      <point x="394" y="392" type="curve" smooth="yes"/>
      <point x="394" y="356"/>
      <point x="432" y="319"/>
      <point x="480" y="329" type="curve"/>
      <point x="467" y="347"/>
      <point x="464" y="365"/>
      <point x="464" y="398" type="curve" smooth="yes"/>
      <point x="464" y="457"/>
      <point x="464" y="493"/>
      <point x="464" y="584" type="curve" smooth="yes"/>
      <point x="464" y="648"/>
      <point x="439" y="698"/>
    </contour>
    <contour>
      <point x="520" y="360" type="line"/>
      <point x="510" y="360" type="line"/>
      <point x="507" y="360"/>
      <point x="504" y="360"/>
      <point x="501" y="360" type="curve" smooth="yes"/>
      <point x="477" y="360"/>
      <point x="464" y="376"/>
      <point x="464" y="409" type="curve"/>
      <point x="402" y="414"/>
      <point x="394" y="405"/>
      <point x="394" y="392" type="curve" smooth="yes"/>
      <point x="394" y="331"/>
      <point x="436" y="296"/>
      <point x="498" y="296" type="curve" smooth="yes"/>
      <point x="511" y="296" type="line" smooth="yes"/>
      <point x="517" y="296"/>
      <point x="520" y="299"/>
      <point x="520" y="306" type="curve"/>
    </contour>
    <contour>
      <point x="179" y="420" type="curve" smooth="yes"/>
      <point x="179" y="441" type="line" smooth="yes"/>
      <point x="179" y="475"/>
      <point x="182" y="499"/>
      <point x="197" y="521" type="curve"/>
      <point x="155" y="528"/>
      <point x="111" y="486"/>
      <point x="111" y="438" type="curve" smooth="yes"/>
      <point x="111" y="414" type="line" smooth="yes"/>
      <point x="111" y="338"/>
      <point x="159" y="296"/>
      <point x="239" y="296" type="curve" smooth="yes"/>
      <point x="318" y="296"/>
      <point x="373" y="336"/>
      <point x="407" y="387" type="curve" smooth="yes"/>
      <point x="415" y="398"/>
      <point x="417" y="415"/>
      <point x="414" y="452" type="curve"/>
      <point x="359" y="382"/>
      <point x="317" y="360"/>
      <point x="251" y="360" type="curve" smooth="yes"/>
      <point x="245" y="360" type="line" smooth="yes"/>
      <point x="204" y="360"/>
      <point x="179" y="379"/>
    </contour>
    <contour>
      <point x="408" y="540" type="curve" smooth="yes"/>
      <point x="386" y="552"/>
      <point x="329" y="563"/>
      <point x="252" y="563" type="curve" smooth="yes"/>
      <point x="161" y="563"/>
      <point x="111" y="514"/>
      <point x="111" y="438" type="curve" smooth="yes"/>
      <point x="111" y="430"/>
      <point x="117" y="424"/>
      <point x="179" y="441" type="curve"/>
      <point x="179" y="476"/>
      <point x="196" y="508"/>
      <point x="256" y="508" type="curve" smooth="yes"/>
      <point x="326" y="508"/>
      <point x="375" y="504"/>
      <point x="422" y="497" type="curve"/>
      <point x="422" y="516"/>
      <point x="421" y="533"/>
    </contour>
  </outline>
</glyph>
<glyph name="logicalnot" format="1">
  <advance width="600"/>
  <unicode hex="00AC"/>
  <outline>
    <contour>
      <point x="71" y="426" type="line"/>
      <point x="71" y="402"/>
      <point x="71" y="383"/>
      <point x="71" y="360" type="curve" smooth="yes"/>
      <point x="71" y="357"/>
      <point x="72" y="354"/>
      <point x="74" y="352" type="curve" smooth="yes"/>
      <point x="76" y="350"/>
      <point x="79" y="349"/>
      <point x="82" y="349" type="curve"/>
      <point x="529" y="349" type="line"/>
      <point x="529" y="415" type="line"/>
      <point x="529" y="421"/>
      <point x="524" y="426"/>
      <point x="518" y="426" type="curve"/>
    </contour>
    <contour>
      <point x="529" y="140" type="curve"/>
      <point x="529" y="378" type="line" smooth="yes"/>
      <point x="529" y="384"/>
      <point x="524" y="389"/>
      <point x="518" y="389" type="curve"/>
      <point x="448" y="389" type="line"/>
      <point x="448" y="151" type="line" smooth="yes"/>
      <point x="448" y="145"/>
      <point x="453" y="140"/>
      <point x="459" y="140" type="curve" smooth="yes"/>
      <point x="483" y="140"/>
      <point x="504" y="140"/>
    </contour>
  </outline>
</glyph>
<glyph name="registered" format="1">
  <advance width="600"/>
  <unicode hex="00AE"/>
  <outline>
    <contour>
      <point x="249" y="327" type="curve"/>
      <point x="249" y="354"/>
      <point x="249" y="380"/>
      <point x="249" y="407" type="curve"/>
      <point x="249" y="602" type="line"/>
      <point x="249" y="603"/>
      <point x="249" y="608"/>
      <point x="193" y="608" type="curve"/>
      <point x="193" y="338" type="line" smooth="yes"/>
      <point x="193" y="331"/>
      <point x="197" y="327"/>
      <point x="204" y="327" type="curve" smooth="yes"/>
      <point x="219" y="327"/>
      <point x="234" y="327"/>
    </contour>
    <contour>
      <point x="171" y="635" type="curve"/>
      <point x="171" y="622"/>
      <point x="171" y="609"/>
      <point x="171" y="595" type="curve"/>
      <point x="171" y="588"/>
      <point x="175" y="584"/>
      <point x="182" y="584" type="curve"/>
      <point x="188" y="584"/>
      <point x="198" y="584"/>
      <point x="204" y="584" type="curve" smooth="yes"/>
      <point x="242" y="584"/>
      <point x="292" y="584"/>
      <point x="329" y="584" type="curve" smooth="yes"/>
      <point x="361" y="584"/>
      <point x="377" y="584"/>
      <point x="394" y="584" type="curve"/>
      <point x="394" y="616"/>
      <point x="367" y="635"/>
      <point x="323" y="635" type="curve" smooth="yes"/>
      <point x="279" y="635"/>
      <point x="215" y="635"/>
    </contour>
    <contour>
      <point x="423" y="520" type="curve" smooth="yes"/>
      <point x="423" y="552" type="line" smooth="yes"/>
      <point x="423" y="605"/>
      <point x="390" y="635"/>
      <point x="323" y="635" type="curve"/>
      <point x="313" y="635"/>
      <point x="313" y="629"/>
      <point x="329" y="584" type="curve"/>
      <point x="356" y="584"/>
      <point x="368" y="574"/>
      <point x="368" y="549" type="curve" smooth="yes"/>
      <point x="368" y="519" type="line" smooth="yes"/>
      <point x="368" y="498"/>
      <point x="352" y="483"/>
      <point x="329" y="483" type="curve" smooth="yes"/>
      <point x="305" y="483"/>
      <point x="247" y="483"/>
      <point x="229" y="483" type="curve"/>
      <point x="229" y="469"/>
      <point x="229" y="456"/>
      <point x="229" y="439" type="curve" smooth="yes"/>
      <point x="229" y="436"/>
      <point x="232" y="433"/>
      <point x="235" y="433" type="curve" smooth="yes"/>
      <point x="332" y="433" type="line" smooth="yes"/>
      <point x="389" y="433"/>
      <point x="423" y="470"/>
    </contour>
    <contour>
      <point x="350" y="469" type="line"/>
      <point x="311" y="465"/>
      <point x="303" y="452"/>
      <point x="306" y="443" type="curve" smooth="yes"/>
      <point x="336" y="367" type="line" smooth="yes"/>
      <point x="350" y="331"/>
      <point x="367" y="324"/>
      <point x="403" y="324" type="curve" smooth="yes"/>
      <point x="412" y="324" type="line" smooth="yes"/>
      <point x="420" y="324"/>
      <point x="423" y="327"/>
      <point x="423" y="335" type="curve"/>
      <point x="423" y="347"/>
      <point x="423" y="363"/>
      <point x="423" y="376" type="curve"/>
      <point x="420" y="376" type="line"/>
      <point x="409" y="376"/>
      <point x="412" y="376"/>
      <point x="401" y="376" type="curve"/>
      <point x="389" y="376"/>
      <point x="386" y="378"/>
      <point x="382" y="388" type="curve" smooth="yes"/>
    </contour>
    <contour>
      <point x="300" y="760" type="curve" smooth="yes"/>
      <point x="142" y="760"/>
      <point x="50" y="683"/>
      <point x="50" y="545" type="curve" smooth="yes"/>
      <point x="50" y="416" type="line" smooth="yes"/>
      <point x="50" y="277"/>
      <point x="140" y="201"/>
      <point x="300" y="201" type="curve" smooth="yes"/>
      <point x="303" y="214"/>
      <point x="308" y="232"/>
      <point x="300" y="253" type="curve"/>
      <point x="172" y="253"/>
      <point x="104" y="309"/>
      <point x="104" y="403" type="curve" smooth="yes"/>
      <point x="104" y="552" type="line" smooth="yes"/>
      <point x="104" y="651"/>
      <point x="173" y="708"/>
      <point x="300" y="708" type="curve" smooth="yes"/>
      <point x="342" y="708"/>
      <point x="370" y="708"/>
      <point x="403" y="708" type="curve"/>
      <point x="403" y="739"/>
      <point x="369" y="760"/>
    </contour>
    <contour>
      <point x="300" y="201" type="curve" smooth="yes"/>
      <point x="460" y="201"/>
      <point x="550" y="276"/>
      <point x="550" y="409" type="curve" smooth="yes"/>
      <point x="550" y="538" type="line" smooth="yes"/>
      <point x="550" y="682"/>
      <point x="462" y="760"/>
      <point x="300" y="760" type="curve" smooth="yes"/>
      <point x="297" y="746"/>
      <point x="292" y="730"/>
      <point x="300" y="708" type="curve"/>
      <point x="430" y="708"/>
      <point x="496" y="650"/>
      <point x="496" y="551" type="curve" smooth="yes"/>
      <point x="496" y="402" type="line" smooth="yes"/>
      <point x="496" y="308"/>
      <point x="429" y="253"/>
      <point x="300" y="253" type="curve" smooth="yes"/>
      <point x="258" y="253"/>
      <point x="230" y="253"/>
      <point x="197" y="253" type="curve"/>
      <point x="197" y="222"/>
      <point x="231" y="201"/>
    </contour>
  </outline>
</glyph>
<glyph name="macron" format="1">
  <advance width="600"/>
  <unicode hex="00AF"/>
  <outline>
    <contour>
      <point x="124" y="750" type="line"/>
      <point x="124" y="729"/>
      <point x="124" y="710"/>
      <point x="124" y="688" type="curve" smooth="yes"/>
      <point x="124" y="681"/>
      <point x="128" y="677"/>
      <point x="135" y="677" type="curve"/>
      <point x="476" y="677" type="line"/>
      <point x="476" y="699"/>
      <point x="476" y="718"/>
      <point x="476" y="739" type="curve" smooth="yes"/>
      <point x="476" y="745"/>
      <point x="471" y="750"/>
      <point x="465" y="750" type="curve"/>
    </contour>
  </outline>
</glyph>
